<svg width="41" height="39" fill="none" xmlns="http://www.w3.org/2000/svg"><path fill="#E5E5E5" d="M0 0h41v39H0z"/><path fill="#fff" d="M-65-2722h1440v835H-65z"/><mask id="a" style="mask-type:alpha" maskUnits="userSpaceOnUse" x="-94" y="-240" width="1440" height="835"><path fill="#FEF2D9" d="M-94-240h1440v835H-94z"/></mask><g mask="url(#a)"><path fill="#FEF2D9" d="M-94-240h1440v835H-94z"/></g><path d="M2.297 14.032c-.088.888.474 15.939 1.346 16.616.957.74 19.436 6.209 21.817 5.748 2.299-.446 11.559-8.56 12.65-10.89 1.02-2.17-2.224-17.89-2.578-18.388-.41-.58-21.007-5.117-21.92-4.453C11.108 4.487 2.376 13.233 2.297 14.032z" fill="#fff"/><path d="M-.35 14.032c-.286 3.923.235 8.103.574 12.01.157 1.825.107 4.101 1.013 5.747.753 1.367 2.403 1.76 3.78 2.227 4.63 1.57 9.373 2.9 14.128 4.03 1.839.435 3.765.94 5.662 1.018 1.936.078 3.595-1.075 5.095-2.167a64.048 64.048 0 006.744-5.678c1.468-1.411 3.422-3.089 4.056-5.096.558-1.768.2-3.922-.016-5.72a121.95 121.95 0 00-1.292-8.17c-.336-1.77-.628-3.594-1.145-5.322-.496-1.659-1.528-2.276-3.087-2.74-4.14-1.23-8.435-2.064-12.666-2.901-2.416-.48-4.85-.956-7.3-1.226-2.045-.226-3.206.477-4.75 1.819-2.26 1.966-4.4 4.092-6.49 6.24C2.62 9.473.212 11.373-.255 13.33c-.787 3.308 4.313 4.722 5.1 1.405-.144.611-.25.693-.14.37.04-.117.32-.33.028-.057-.295.276.423-.492.548-.633a66.58 66.58 0 012.177-2.336 135.63 135.63 0 015.208-5.112 65.325 65.325 0 012.148-1.91c.458-.388-.178.057-.37.114-.605.185-.599.022-.025.088.254.028.511.047.769.072.743.072-.342-.066.483.065.922.145 1.844.298 2.763.468a210.18 210.18 0 0112.742 2.73c.7.173 1.4.349 2.092.543.273.076.543.163.82.239.441.119.636.373-.01-.041.483.313-1.048-1.201-.819-.847-.577-.9-.2-.624-.179-.376.02.2.116.423.166.62.195.77.358 1.544.521 2.321.885 4.218 1.807 8.376 1.889 12.571.006.33-.026.659-.016.988.012.552.135-.461.028-.176-.022.06-.084.232-.075.289-.126-.756.376-.355 0-.141-.053.031-.198.282-.216.31.307-.436-.512.58-.697.78-1.713 1.873-3.623 3.576-5.577 5.19a38.26 38.26 0 01-2.375 1.829c-.367.257-.74.507-1.126.74-.191.115-.389.219-.583.332-.308.179-.546.025-.013.022-.728.006.687.138.053.003-.222-.047-.489-.031-.718-.05-.615-.047.637.11-.035-.007l-.526-.09a36.521 36.521 0 01-1.44-.286c-4.436-.944-8.818-2.204-13.15-3.543-.96-.298-1.92-.599-2.873-.925-.345-.12-.687-.245-1.03-.364-.112-.037-.219-.088-.332-.128-.448-.154.574.363.201.081-.367-.279.844.922.84 1.091.004-.266-.144-.627-.197-.893-.031-.163-.053-.33-.078-.496.1.662-.025-.21-.038-.345-.05-.555-.107-1.1-.154-1.646-.222-2.512-.357-5.033-.467-7.554-.066-1.511-.23-3.085-.12-4.6.249-3.399-5.043-3.383-5.291-.003z" fill="#fff"/><path d="M13.955 12.656V8.654c2.704 0 3.335-1.298 3.51-2.913h3.896V31.85h-4.667V12.656h-2.739z" fill="#111"/></svg>