<svg width="42" height="39" fill="none" xmlns="http://www.w3.org/2000/svg"><path fill="#E5E5E5" d="M0 0h42v39H0z"/><path fill="#fff" d="M-63-2903h1440v835H-63z"/><mask id="a" style="mask-type:alpha" maskUnits="userSpaceOnUse" x="-92" y="-421" width="1440" height="835"><path fill="#FEF2D9" d="M-92-421h1440v835H-92z"/></mask><g mask="url(#a)"><path fill="#FEF2D9" d="M-92-421h1440v835H-92z"/></g><path d="M3.297 25.13c-.088-.887.474-15.938 1.346-16.616.957-.74 19.436-6.208 21.817-5.747 2.299.445 11.559 8.56 12.65 10.89 1.02 2.17-2.224 17.889-2.578 18.387-.41.58-21.007 5.118-21.92 4.453C12.108 34.678 3.376 25.933 3.297 25.13z" fill="#fff"/><path d="M5.942 25.13c-.248-3.43.2-7.058.451-10.479.076-1.022.157-2.041.27-3.06.022-.21.047-.417.072-.624.094-.778-.094.523.025-.18.057-.325.167-.673.192-1.003.006-.069.075-.169.065-.235.05.383-.862 1.12-1.003 1.223.178-.132.712-.279-.17.05.593-.22 1.183-.439 1.782-.64 4.181-1.404 8.45-2.602 12.73-3.668.95-.235 1.9-.464 2.857-.668.449-.097.897-.188 1.346-.273.182-.034.364-.062.546-.097.617-.116.14-.028.153-.031.251-.025.565 0 .806-.06.609-.157-.737.12-.053.003-.232.041-.483-.235-.163-.069.188.097.373.195.555.301.458.264.897.562 1.33.863 1.914 1.339 3.692 2.89 5.402 4.477a45.286 45.286 0 012.553 2.537c.289.317.58.637.844.975-.326-.42-.103-.106-.034-.034.401.426.012.555.1.01-.003.021.047.187.063.222.179.448-.016-.674-.016-.11 0 .33.022.655.016.988-.02.972-.12 1.944-.23 2.913-.234 2.06-.658 4.509-1.081 6.754-.33 1.747-.662 3.5-1.098 5.224-.05.195-.148.417-.167.62-.022.245-.401.525.18-.375-.572.887 1.288-1.154.843-.86.166-.11.696-.225.1-.065-.285.075-.567.172-.853.254-3.883 1.09-7.858 1.903-11.81 2.696a193.43 193.43 0 01-3.523.674c-.514.091-1.029.182-1.543.264l-.584.094c-.075.013-.919.132-.492.075.323-.044-.587.066-.772.082-.191.012-.524-.041-.7.025-.263.097.782.135.462.066.58.294.721.342.423.138.27.21.327.25.167.122-.305-.348-.753-.634-1.101-.94-2.017-1.788-3.944-3.685-5.832-5.61a84.055 84.055 0 01-2.522-2.666 31.94 31.94 0 01-.85-.984c-.22-.267.226.533.091.116-.104-.317-.125-.565.075.276-.787-3.312-5.89-1.91-5.1 1.404.408 1.712 2.359 3.3 3.526 4.519a131.635 131.635 0 005.89 5.798c1.378 1.27 2.865 3.016 4.863 3.057 1.656.034 3.378-.373 5.003-.659a198.262 198.262 0 0014.031-2.994c1.208-.304 2.676-.533 3.761-1.189 1.437-.865 1.625-2.844 1.945-4.336 1.013-4.707 2.09-9.652 2.183-14.48.041-2.17-.599-3.553-1.985-5.184-1.735-2.041-3.786-3.847-5.835-5.563-1.785-1.489-3.657-3.123-5.778-4.126-1.766-.837-3.454-.533-5.31-.182-4.772.897-9.48 2.295-14.116 3.722-1.763.543-3.859.99-5.474 1.929-1.829 1.062-1.86 3.455-2.07 5.315-.308 2.759-.455 5.54-.584 8.315-.082 1.756-.28 3.594-.154 5.353.254 3.367 5.55 3.393 5.302-.01z" fill="#fff"/><path d="M12.93 24.027c1.406-3.826 4.565-12.669 5.863-16.494H22.9v16.001h2.421v4.456H22.9v5.826h-4.564V27.99H12.93v-3.963zm5.405-6.846c-.561 1.719-1.405 4.387-2.142 6.35h2.142v-6.35z" fill="#111"/></svg>