<svg width="41" height="39" fill="none" xmlns="http://www.w3.org/2000/svg"><path fill="#E5E5E5" d="M0 0h41v39H0z"/><path fill="#fff" d="M-64-2842h1440v835H-64z"/><mask id="a" style="mask-type:alpha" maskUnits="userSpaceOnUse" x="-93" y="-360" width="1440" height="835"><path fill="#FEF2D9" d="M-93-360h1440v835H-93z"/></mask><g mask="url(#a)"><path fill="#FEF2D9" d="M-93-360h1440v835H-93z"/></g><path d="M2.297 14.06c-.088.887.474 15.939 1.346 16.616.957.74 19.436 6.209 21.817 5.748 2.299-.446 11.559-8.56 12.65-10.89 1.02-2.17-2.224-17.89-2.578-18.388-.41-.58-21.007-5.117-21.92-4.453C11.108 4.515 2.376 13.261 2.297 14.06z" fill="#fff"/><path d="M-.35 14.06c-.286 3.923.235 8.103.574 12.01.157 1.825.107 4.101 1.013 5.747.753 1.367 2.403 1.76 3.78 2.227 4.63 1.57 9.373 2.9 14.128 4.029 1.839.436 3.765.94 5.662 1.019 1.936.078 3.595-1.076 5.095-2.167a64.027 64.027 0 006.744-5.678c1.468-1.412 3.422-3.09 4.056-5.096.558-1.768.2-3.923-.016-5.72a121.95 121.95 0 00-1.292-8.17c-.336-1.77-.628-3.594-1.145-5.322-.496-1.659-1.528-2.277-3.087-2.74-4.14-1.23-8.435-2.064-12.666-2.901-2.416-.48-4.85-.957-7.3-1.226-2.045-.226-3.206.476-4.75 1.818-2.26 1.967-4.4 4.092-6.49 6.24C2.62 9.504.212 11.404-.252 13.36c-.787 3.309 4.313 4.723 5.1 1.405-.144.612-.25.694-.14.37.04-.115.32-.329.028-.056-.295.276.423-.492.549-.633a64.88 64.88 0 012.177-2.336 135.567 135.567 0 015.207-5.112 65.219 65.219 0 012.149-1.91c.457-.388-.18.057-.37.114-.606.185-.6.022-.026.087.254.029.512.048.769.073.743.072-.342-.066.483.065.922.145 1.844.298 2.763.468 4.273.777 8.526 1.69 12.742 2.73.7.173 1.4.349 2.093.543.273.076.542.163.818.239.443.119.637.373-.01-.041.484.313-1.047-1.201-.818-.847-.577-.9-.2-.624-.179-.376.02.2.117.423.167.62.194.769.357 1.544.52 2.321.885 4.218 1.807 8.376 1.889 12.571.006.33-.025.659-.016.988.013.552.135-.461.028-.176-.022.06-.084.232-.075.289-.125-.756.377-.355 0-.141-.053.031-.198.282-.216.31.307-.436-.512.58-.697.78-1.713 1.873-3.623 3.576-5.577 5.19a38.182 38.182 0 01-2.375 1.828c-.367.258-.74.508-1.126.74-.191.117-.389.22-.583.333-.308.179-.546.025-.013.022-.728.006.687.138.053.003-.222-.047-.489-.031-.718-.05-.615-.047.637.11-.034-.007l-.527-.09a36.375 36.375 0 01-1.44-.286c-4.436-.944-8.818-2.204-13.15-3.543-.96-.298-1.92-.599-2.873-.925-.345-.12-.687-.245-1.03-.364-.112-.038-.219-.088-.332-.128-.448-.154.574.363.201.081-.367-.279.844.922.84 1.091.004-.266-.143-.627-.197-.893-.031-.163-.053-.33-.078-.496.1.662-.025-.21-.038-.345a93.626 93.626 0 01-.163-1.64c-.223-2.511-.358-5.032-.467-7.553-.066-1.512-.23-3.086-.12-4.6.255-3.409-5.037-3.393-5.285-.013z" fill="#fff"/><path d="M14.067 14.057v-3.368c0-2.386 1.123-4.982 4.633-4.982h.982c3.545 0 5.126 2.035 5.126 5.017v2.913c0 2.527-.844 3.508-1.685 3.966 1.299.42 1.933 1.405 1.933 2.982v6.526c0 3.367-1.967 5.402-5.195 5.402h-.982c-3.861 0-5.09-2.317-5.09-4.703v-5.265h4.563v4.142c0 .806.317 1.23.982 1.23.63 0 .947-.42.947-1.23v-5.086c0-.737-.069-1.053-.878-1.053h-2.422v-4.666h2.177c.806 0 .982-.317.982-1.157v-3.581c0-.947-.245-1.192-.913-1.192-.596 0-.878.245-.878 1.192v2.913h-4.282z" fill="#111"/></svg>