<svg width="42" height="39" fill="none" xmlns="http://www.w3.org/2000/svg"><path fill="#E5E5E5" d="M0 0h42v39H0z"/><path fill="#fff" d="M-62-2966h1440v835H-62z"/><mask id="a" style="mask-type:alpha" maskUnits="userSpaceOnUse" x="-91" y="-484" width="1440" height="835"><path fill="#FEF2D9" d="M-91-484h1440v835H-91z"/></mask><g mask="url(#a)"><path fill="#FEF2D9" d="M-91-484h1440v835H-91z"/></g><path d="M2.729 13.85c-.088.888.473 15.94 1.345 16.617.957.74 19.436 6.208 21.817 5.747 2.3-.445 11.56-8.56 12.651-10.89 1.02-2.17-2.224-17.889-2.578-18.388-.411-.58-21.008-5.117-21.92-4.452C11.54 4.306 2.806 13.05 2.728 13.85z" fill="#fff"/><path d="M.081 13.85c-.285 3.923.236 8.103.575 12.01.156 1.825.106 4.102 1.013 5.748.753 1.367 2.403 1.759 3.78 2.226 4.63 1.571 9.373 2.9 14.128 4.03 1.838.435 3.764.94 5.662 1.019 1.935.078 3.595-1.076 5.094-2.167a64.026 64.026 0 006.745-5.679c1.468-1.411 3.422-3.089 4.055-5.095.559-1.769.201-3.923-.015-5.72a121.96 121.96 0 00-1.293-8.171c-.335-1.769-.627-3.594-1.145-5.322-.495-1.658-1.527-2.276-3.086-2.74-4.14-1.23-8.435-2.063-12.667-2.9-2.415-.48-4.85-.957-7.3-1.227-2.045-.225-3.205.477-4.748 1.819-2.262 1.966-4.401 4.092-6.49 6.24C3.051 9.294.642 11.195.178 13.15c-.788 3.308 4.313 4.723 5.1 1.405-.144.612-.25.693-.14.37.04-.116.319-.33.027-.056-.295.276.424-.493.55-.634A66.57 66.57 0 017.891 11.9 135.638 135.638 0 0113.1 6.79a65.325 65.325 0 012.15-1.91c.457-.388-.18.057-.371.113-.605.185-.6.022-.025.088.254.028.511.047.768.072.744.072-.341-.066.484.066.922.144 1.844.298 2.763.467a210.18 210.18 0 0112.741 2.73c.7.173 1.399.348 2.092.543.273.075.543.163.819.238.442.12.637.373-.01-.04.484.313-1.047-1.202-.818-.847-.577-.9-.2-.624-.179-.377.019.201.116.424.166.621.195.769.358 1.543.521 2.32.885 4.218 1.807 8.376 1.888 12.572.007.329-.025.658-.015.987.012.552.135-.46.028-.175-.022.06-.085.232-.075.288-.126-.755.376-.354 0-.14-.054.03-.198.281-.217.31.308-.436-.511.58-.696.78-1.713 1.872-3.623 3.575-5.577 5.19a38.23 38.23 0 01-2.375 1.828c-.367.257-.74.508-1.126.74-.192.116-.39.22-.584.332-.307.18-.546.025-.012.022-.728.007.687.138.053.003-.223-.047-.49-.03-.718-.05-.615-.047.637.11-.035-.006-.175-.031-.351-.06-.527-.09a36.521 36.521 0 01-1.44-.286c-4.435-.944-8.817-2.205-13.15-3.544-.96-.298-1.919-.599-2.873-.925-.345-.119-.687-.244-1.028-.363-.113-.038-.22-.088-.333-.129-.449-.154.574.364.2.082-.366-.28.845.921.841 1.09.004-.266-.144-.626-.197-.893-.032-.163-.053-.33-.079-.495.1.661-.025-.21-.037-.345a93.614 93.614 0 01-.163-1.64c-.223-2.512-.358-5.033-.468-7.554-.066-1.511-.229-3.086-.119-4.6.254-3.409-5.038-3.393-5.286-.012z" fill="#fff"/><path d="M16.004 20.35V5.859H26.71v4.528H20.5v5.158c.702-1.23 1.756-2.456 3.192-2.456h.42c2.143 0 2.915 1.791 2.915 3.403v10.774c0 2.63-1.509 5.089-4.95 5.089h-1.405c-3.896 0-4.95-2.63-4.95-4.631V22.39h4.667v4.315c0 .736.176 1.229.879 1.229.668 0 .878-.527.878-1.23v-7.895c0-.668 0-1.298-.806-1.298-.703 0-.737.702-.737 1.263v1.58h-4.599v-.002z" fill="#111"/></svg>