<svg width="42" height="39" fill="none" xmlns="http://www.w3.org/2000/svg"><path fill="#E5E5E5" d="M0 0h42v39H0z"/><path fill="#fff" d="M-62-3027h1440v835H-62z"/><mask id="a" style="mask-type:alpha" maskUnits="userSpaceOnUse" x="-91" y="-545" width="1440" height="835"><path fill="#FEF2D9" d="M-91-545h1440v835H-91z"/></mask><g mask="url(#a)"><path fill="#FEF2D9" d="M-91-545h1440v835H-91z"/></g><path d="M2.729 24.92c-.088-.887.473-15.938 1.345-16.615.957-.74 19.436-6.209 21.817-5.748 2.3.446 11.56 8.56 12.651 10.89 1.02 2.17-2.224 17.89-2.578 18.388-.411.58-21.008 5.117-21.92 4.453C11.54 34.469 2.806 25.724 2.728 24.92z" fill="#fff"/><path d="M5.373 24.921c-.248-3.43.2-7.058.452-10.48a83.28 83.28 0 01.27-3.06c.022-.21.047-.417.072-.624.094-.777-.094.524.025-.179.056-.326.166-.674.191-1.003.007-.069.076-.17.066-.235.05.382-.863 1.12-1.004 1.223.18-.132.712-.28-.17.05.594-.22 1.184-.44 1.783-.64 4.181-1.405 8.45-2.602 12.729-3.669.95-.235 1.901-.464 2.858-.667.448-.098.897-.189 1.345-.273.182-.035.364-.063.546-.097.618-.116.141-.029.154-.032.25-.025.565 0 .806-.06.609-.156-.737.12-.053.004-.232.04-.483-.235-.163-.07.188.098.373.195.555.302.458.263.897.561 1.33.862 1.913 1.34 3.692 2.891 5.402 4.478.878.815 1.74 1.652 2.553 2.537.289.316.58.636.844.975-.326-.42-.104-.107-.035-.035.402.427.013.555.1.01-.003.022.048.188.063.222.18.449-.015-.674-.015-.11 0 .33.022.656.015.988-.018.972-.119 1.944-.229 2.913-.235 2.06-.658 4.51-1.082 6.755-.33 1.746-.662 3.499-1.098 5.224-.05.194-.147.417-.166.62-.022.245-.402.524.179-.376-.571.888 1.29-1.154.844-.859.166-.11.696-.226.1-.066-.285.076-.568.173-.853.254-3.884 1.091-7.858 1.903-11.81 2.697-1.174.235-2.347.46-3.523.674-.515.091-1.029.182-1.544.263l-.583.095c-.075.012-.919.131-.492.075.323-.044-.587.066-.772.081-.191.013-.524-.04-.7.025-.263.098.782.135.462.066.58.295.721.342.423.138.27.21.326.251.166.122-.304-.348-.753-.633-1.1-.94-2.018-1.788-3.944-3.685-5.832-5.61a84.166 84.166 0 01-2.522-2.665 31.706 31.706 0 01-.85-.985c-.22-.266.226.533.09.116-.103-.316-.125-.564.076.276-.787-3.311-5.891-1.91-5.1 1.405.407 1.712 2.358 3.299 3.525 4.518a131.677 131.677 0 005.891 5.798c1.377 1.27 2.864 3.017 4.862 3.058 1.657.034 3.379-.374 5.004-.659a198.203 198.203 0 0014.03-2.995c1.209-.304 2.676-.533 3.762-1.188 1.437-.865 1.625-2.844 1.945-4.337 1.013-4.706 2.089-9.651 2.183-14.48.04-2.17-.6-3.553-1.986-5.183-1.734-2.042-3.786-3.848-5.834-5.563C31.773 3.115 29.9 1.482 27.78.478c-1.766-.837-3.454-.533-5.311-.181-4.771.896-9.48 2.295-14.116 3.722-1.763.542-3.858.99-5.474 1.928C1.051 7.01 1.02 9.403.81 11.262c-.307 2.76-.455 5.54-.583 8.316-.082 1.756-.28 3.593-.154 5.352.254 3.368 5.549 3.393 5.301-.009z" fill="#fff"/><path d="M24.468 15.602c2.28 0 3.159 1.86 3.159 3.299v8.632c0 2.596-1.826 5.227-5.336 5.227h-1.054c-3.755 0-5.477-2.352-5.477-5.09V11.495c0-3.264 1.65-5.544 5.405-5.544h.981c3.335 0 4.985 2.07 4.985 4.315v3.929h-4.806V11.28c0-.668-.141-1.02-.844-1.02-.668 0-.878.493-.878 1.02v6.632c.668-.772 1.791-2.318 3.58-2.318h.285v.007zm-1.72 11.37V20.97c0-.947-.316-1.298-1.053-1.298-.738 0-1.089.42-1.089 1.264v6.036c0 .702.141 1.367 1.089 1.367.947 0 1.054-.7 1.054-1.367z" fill="#111"/></svg>