<svg width="160" height="158" viewBox="0 0 160 158" fill="none" xmlns="http://www.w3.org/2000/svg">
<g clip-path="url(#clip0_34_413)">
<path d="M92.2946 145.736C129.612 139.215 154.529 103.948 147.949 66.9649C141.369 29.9818 105.783 5.2875 68.4663 11.8086C31.1493 18.3297 6.23209 53.5969 12.8121 90.58C19.3921 127.563 54.9776 152.257 92.2946 145.736Z" fill="#FFC64F"/>
<path d="M43.3142 107.405L43.2757 107.838C43.2431 108.231 43.1722 108.516 43.0741 108.686C42.9761 108.856 42.7728 108.974 42.4682 109.027L40.8334 109.313L40.9103 113.923L44.9756 113.213C46.4985 112.947 47.4179 111.738 47.74 109.586L51.9412 83.234C50.6249 83.4005 49.3181 83.5844 48.027 83.7846L47.2126 83.9269L45.7462 96.1821L43.9057 84.5048L43.3463 84.6026C41.8775 84.8847 40.4379 85.187 39.0265 85.5036L43.1094 104.958C43.2899 105.936 43.3516 106.751 43.3142 107.405Z" fill="white"/>
<path d="M61.2806 110.364L60.996 93.1298L63.7856 109.926L65.6877 109.594L67.7963 91.9414L68.0809 109.175L72.5254 108.399L72.0752 82.5613C69.9922 82.4172 67.9161 82.3481 65.8385 82.3427L64.4469 95.5947L62.4571 82.3937C60.4497 82.4586 58.4584 82.5779 56.4832 82.7516L56.9791 111.115L61.2806 110.364Z" fill="white"/>
<path d="M73.695 101.321C73.7342 103.595 74.3654 105.27 75.5898 106.351C76.8142 107.433 78.4924 107.788 80.6183 107.416L81.6439 107.237C85.013 106.648 86.6804 103.988 86.6521 99.2541L86.3873 84.2208C84.6169 84.1046 82.8407 83.9195 81.0648 83.6645C81.1543 83.9157 81.2143 84.2164 81.2241 84.5959L81.5041 100.471C81.5113 101.556 81.1145 102.172 80.3064 102.313C79.3678 102.477 78.8819 102.016 78.8437 100.936L78.5636 85.0608C78.5469 84.3904 78.6252 83.8939 78.785 83.5675C78.8278 83.4838 78.879 83.4113 78.9437 83.3428C77.2165 83.073 75.4805 82.8618 73.7481 82.7072C73.5183 83.7574 73.4085 84.9771 73.4353 86.3889L73.695 101.321Z" fill="white"/>
<path d="M92.9761 104.825L92.7631 93.2889L95.6162 92.7903C97.2386 92.5068 98.3528 91.8166 98.9702 90.7115C99.5813 89.6074 99.8671 88.1156 99.8202 86.2309L99.7825 83.8936C98.1353 84.0735 96.4719 84.199 94.8009 84.2814L94.8423 86.6752C94.8664 87.2427 94.8049 87.6536 94.6703 87.9058C94.5306 88.1652 94.2208 88.3337 93.7422 88.4173L92.7166 88.5965L92.6349 84.355C90.9997 84.3867 89.3558 84.369 87.7009 84.2898L88.0716 105.682L92.9761 104.825Z" fill="white"/>
<path d="M102.896 91.0164L100 103.597L105.166 102.695L107.71 91.4519L108.126 91.3791L108.317 102.144L113.222 101.287L112.879 81.5288C111.277 81.9294 109.639 82.3045 107.98 82.6326L108.042 86.6933L107.091 86.8595C106.557 86.9529 106.204 86.8811 106.033 86.638C105.861 86.3948 105.779 86.0027 105.784 85.4555L105.74 83.0494C104.118 83.3329 102.47 83.5827 100.801 83.7792L100.855 86.825C100.854 89.1565 101.538 90.5549 102.896 91.0164Z" fill="white"/>
<path d="M44.94 56.6359L43.3704 71.5895L41.2166 57.2865L35.3984 58.3033L35.7429 78.0358C37.1449 77.7019 38.5811 77.381 40.0405 77.0815L39.907 69.1268L41.1974 76.8476C42.6889 76.5488 44.2107 76.2765 45.7483 76.0206L46.7136 67.9373L46.8456 75.8479C48.3118 75.6234 49.7876 75.4163 51.2875 75.2368L50.9447 55.5866L44.94 56.6359Z" fill="white"/>
<path d="M59.38 54.1125L57.9197 66.3665L56.0793 54.6893L51.1748 55.5464L55.2219 74.8351C57.0531 74.6803 58.8908 74.5624 60.7508 74.4978L64.129 53.2826L59.38 54.1125Z" fill="white"/>
<path d="M64.7063 71.4755L64.7728 74.4429C66.4146 74.4482 68.0588 74.5039 69.7035 74.5976L69.6108 70.6184L64.7063 71.4755Z" fill="white"/>
<path d="M76.8153 68.4256C76.7381 66.0825 75.9704 64.7938 74.5174 64.5523C75.7011 63.8563 76.279 62.4214 76.2574 60.2465L76.1759 56.6909C76.1184 54.8907 75.5848 53.5484 74.5772 52.6764C73.5758 51.8033 72.0427 51.544 69.9914 51.9024L69.115 52.0556C67.3683 52.3608 66.1469 53.0253 65.4521 54.055C64.7572 55.0848 64.4492 56.5233 64.5154 58.3729L64.5869 62.089L69.4541 61.2385L69.4125 58.3746C69.3972 57.8565 69.4674 57.4948 69.6108 57.2919C69.7541 57.089 69.9926 56.9521 70.322 56.8945C71.0058 56.775 71.3487 57.1534 71.3456 58.0368L71.3974 61.642C71.4072 62.1294 71.341 62.4777 71.2112 62.6845C71.0751 62.8925 70.7983 63.0298 70.3632 63.1059L68.0073 63.5176L68.1028 68.665L70.5705 68.2338C70.9994 68.1588 71.2905 68.2096 71.4385 68.3933C71.5866 68.5771 71.6655 68.9127 71.6753 69.4L71.7996 74.7457C73.5101 74.8851 75.2179 75.0821 76.9233 75.3367C76.939 75.0291 76.9413 74.7174 76.9402 74.3873L76.8153 68.4256Z" fill="white"/>
<path d="M90.8458 48.6139L91.3314 76.4523C92.979 76.4184 94.6167 76.3292 96.2468 76.1968L95.7502 47.7569L90.8458 48.6139Z" fill="white"/>
<path d="M90.1038 71.9663L89.9984 64.9976C89.9876 61.1184 88.3593 59.4593 85.1145 60.0263L82.7213 60.4445L82.5597 50.0619L77.6553 50.9189L78.0833 75.5152C78.156 75.5279 78.235 75.5395 78.3078 75.5522C81.9403 76.156 85.5667 76.437 89.1481 76.4654C89.1584 76.4509 89.1748 76.4353 89.1851 76.4208C89.8591 75.382 90.1595 73.9003 90.1038 71.9663ZM85.1122 66.3533L85.2002 72.3596C85.1993 72.9314 85.1163 73.3651 84.9645 73.6648C84.8065 73.9655 84.4628 74.159 83.9344 74.2513L82.9834 74.4175L82.8176 65.1281L83.7686 64.962C84.3032 64.8685 84.663 64.9454 84.8491 65.1987C85.0351 65.452 85.1228 65.8369 85.1122 66.3533Z" fill="white"/>
<path d="M110.041 45.2596L105.062 46.1297L102.171 57.6236L101.985 46.6674L97.0802 47.5244L97.5779 76.0785C99.2346 75.916 100.87 75.7064 102.486 75.4559L102.265 63.0128L105.787 74.8852C107.517 74.5575 109.226 74.1827 110.89 73.7713L106.521 59.1947L110.041 45.2596Z" fill="white"/>
<path d="M114.031 44.5622L111.098 73.7159C112.615 73.3428 114.106 72.9361 115.568 72.5091L115.86 68.2784L118.863 67.7538L119.322 71.3449C120.891 70.8295 122.41 70.2909 123.882 69.7413L119.843 43.5466L114.031 44.5622ZM116.259 63.2416L116.97 53.3671L118.236 62.8961L116.259 63.2416Z" fill="white"/>
<path d="M115.352 79.5404L114.737 79.648L114.672 79.2845L116.356 78.9901L116.421 79.3536L115.806 79.4611L116.082 81.0136L115.634 81.0918L115.358 79.5394L115.352 79.5404Z" fill="white"/>
<path d="M118.686 80.5584L118.482 79.4126L118.085 80.4602L117.887 80.4949L117.156 79.6697L117.356 80.7909L116.94 80.8637L116.599 78.9478L116.965 78.8837L117.898 79.9467L118.401 78.6328L118.768 78.5687L119.115 80.4835L118.686 80.5584Z" fill="white"/>
</g>
<defs>
<clipPath id="clip0_34_413">
<rect width="137.191" height="136.037" fill="white" transform="matrix(0.985072 -0.172141 0.175168 0.984539 0.897949 23.6161)"/>
</clipPath>
</defs>
</svg>
