<svg width="181" height="181" viewBox="0 0 181 181" fill="none" xmlns="http://www.w3.org/2000/svg">
<g clip-path="url(#clip0_34_607)">
<path d="M119.201 151.996C153.219 136.088 167.901 95.6158 151.993 61.5977C136.086 27.5797 95.6131 12.8982 61.5951 28.8058C27.5771 44.7133 12.8956 85.1859 28.8031 119.204C44.7106 153.222 85.1833 167.903 119.201 151.996Z" fill="#FFC64F"/>
<path d="M62.3662 127.596L62.4418 128.023C62.5127 128.411 62.519 128.705 62.4693 128.894C62.4195 129.083 62.2557 129.25 61.978 129.38L60.4877 130.076L61.7594 134.509L65.4653 132.776C66.8536 132.127 67.4194 130.723 67.1683 128.561L64.3412 102.033C63.1247 102.533 61.9219 103.047 60.7383 103.573L59.996 103.92L61.7772 116.132L56.9814 105.33L56.4714 105.568C55.139 106.219 53.8399 106.882 52.5714 107.551L61.5341 125.285C61.9611 126.183 62.2319 126.954 62.3662 127.596Z" fill="white"/>
<path d="M80.3287 125.826L75.5779 109.257L82.6123 124.758L84.3462 123.947L81.7771 106.358L86.5278 122.927L90.5794 121.032L83.4345 96.1985C81.4036 96.5957 79.3988 97.0636 77.4092 97.5935L79.521 110.749L74.1863 98.5136C72.2821 99.0933 70.4075 99.7213 68.5623 100.398L76.4074 127.659L80.3287 125.826Z" fill="white"/>
<path d="M89.8601 113.897C90.4883 116.082 91.5276 117.537 92.9804 118.266C94.4333 118.995 96.1316 118.906 98.0695 117.999L99.0045 117.562C102.076 116.126 102.98 113.127 101.723 108.564L97.5629 94.1149C95.8384 94.4586 94.0905 94.7374 92.3247 94.9485C92.4756 95.1679 92.6111 95.443 92.7191 95.8068L97.1125 111.065C97.4013 112.111 97.1815 112.807 96.4449 113.152C95.5892 113.552 95.0043 113.231 94.6872 112.199L90.2938 96.9409C90.1036 96.2979 90.0496 95.7983 90.1177 95.4419C90.1369 95.35 90.1671 95.2669 90.2112 95.1841C88.4881 95.3683 86.7718 95.6115 85.0738 95.9084C85.1268 96.9816 85.3386 98.1877 85.7311 99.5441L89.8601 113.897Z" fill="white"/>
<path d="M109.222 112.315L106.021 101.23L108.621 100.013C110.1 99.3218 110.987 98.3684 111.291 97.1422C111.589 95.9187 111.475 94.4045 110.94 92.5967L110.297 90.3494C108.767 90.9473 107.208 91.4968 105.63 92.0067L106.292 94.3077C106.462 94.8495 106.51 95.2621 106.447 95.5403C106.381 95.8268 106.128 96.0692 105.692 96.2733L104.757 96.7105L103.576 92.6357C102.02 93.0874 100.442 93.4937 98.8375 93.8434L104.751 114.405L109.222 112.315Z" fill="white"/>
<path d="M115.127 96.4258L115.625 109.32L120.334 107.118L119.847 95.6065L120.227 95.429L123.207 105.775L127.678 103.684L122.216 84.693C120.787 85.4923 119.317 86.2764 117.814 87.0206L118.929 90.9258L118.062 91.3312C117.575 91.5591 117.219 91.5805 116.991 91.3898C116.764 91.1992 116.583 90.8418 116.446 90.3121L115.779 87.9998C114.3 88.6914 112.788 89.357 111.241 89.9768L112.085 92.9038C112.689 95.1556 113.708 96.3298 115.127 96.4258Z" fill="white"/>
<path d="M50.7293 78.1518L53.113 92.996L47.3351 79.739L42.0312 82.2192L47.4887 101.185C48.7435 100.502 50.0347 99.8219 51.3534 99.1569L49.1586 91.5097L52.3998 98.633C53.7495 97.9604 55.1352 97.3056 56.5401 96.6624L55.3634 88.6082L57.5454 96.213C58.8903 95.6187 60.2488 95.0386 61.6375 94.479L56.2032 75.5921L50.7293 78.1518Z" fill="white"/>
<path d="M63.8924 71.9964L65.6793 84.2056L60.8835 73.4035L56.4126 75.4941L65.2981 93.078C67.0103 92.4569 68.7384 91.8698 70.5016 91.3283L68.2216 69.972L63.8924 71.9964Z" fill="white"/>
<path d="M73.5017 87.3911L74.3365 90.2395C75.909 89.8218 77.4971 89.4521 79.0954 89.1191L77.9726 85.3004L73.5017 87.3911Z" fill="white"/>
<path d="M84.2979 81.3275C83.6152 79.0848 82.5456 78.0381 81.0923 78.1791C82.0443 77.2022 82.2244 75.6678 81.6386 73.5731L80.6367 70.1606C80.1138 68.437 79.2543 67.2783 78.0635 66.6957C76.8783 66.1105 75.3437 66.255 73.4738 67.1294L72.6748 67.503C71.0825 68.2476 70.0863 69.2037 69.6889 70.3771C69.2915 71.5504 69.3705 73.0189 69.9146 74.7878L70.9487 78.3578L75.3856 76.283L74.6015 73.5283C74.4522 73.0319 74.4255 72.6646 74.51 72.4317C74.5944 72.1989 74.787 72.0052 75.0874 71.8648C75.7107 71.5733 76.1372 71.8504 76.3638 72.7043L77.3502 76.1723C77.4863 76.6404 77.5134 76.9937 77.4429 77.227C77.3667 77.4628 77.1375 77.6667 76.7408 77.8522L74.5932 78.8565L76.0222 83.8025L78.2718 82.7505C78.6628 82.5677 78.9545 82.5418 79.144 82.6811C79.3334 82.8204 79.4961 83.1241 79.6322 83.5922L81.1402 88.7222C82.8134 88.4163 84.499 88.1667 86.1972 87.9734C86.1323 87.6723 86.0535 87.3708 85.9667 87.0523L84.2979 81.3275Z" fill="white"/>
<path d="M92.5765 58.5832L100.275 85.3401C101.843 84.8831 103.387 84.3751 104.913 83.8275L97.0474 56.4925L92.5765 58.5832Z" fill="white"/>
<path d="M97.9348 81.3244L96.0231 74.6222C95.0047 70.8791 93.0152 69.6963 90.0573 71.0795L87.8757 72.0996L85.023 62.1153L80.5521 64.206L87.3533 87.847C87.4262 87.8405 87.5048 87.8314 87.5777 87.8249C91.211 87.4725 94.7545 86.8099 98.1894 85.915C98.1954 85.8984 98.2071 85.8791 98.2131 85.8624C98.5882 84.6857 98.4907 83.1776 97.9348 81.3244ZM91.6992 77.1897L93.3442 82.967C93.492 83.5193 93.5252 83.9596 93.4578 84.288C93.3848 84.6191 93.1061 84.8945 92.6244 85.1197L91.7575 85.5251L89.1849 76.5976L90.0518 76.1922C90.5392 75.9643 90.9035 75.9459 91.1474 76.1426C91.3913 76.3393 91.5752 76.6883 91.6992 77.1897Z" fill="white"/>
<path d="M110.075 50.4007L105.536 52.5232L105.757 64.3666L102.731 53.8348L98.2601 55.9255L106.156 83.3704C107.7 82.7869 109.21 82.1633 110.691 81.5053L107.247 69.5465L113.703 80.1039C115.273 79.342 116.811 78.54 118.296 77.7142L110.327 64.7636L110.075 50.4007Z" fill="white"/>
<path d="M113.713 48.6995L118.481 77.6071C119.836 76.8563 121.157 76.0794 122.446 75.2905L121.626 71.13L124.363 69.8501L125.736 73.1996C127.103 72.298 128.417 71.3865 129.683 70.4767L119.011 46.2219L113.713 48.6995ZM120.698 66.1635L118.813 56.4452L122.5 65.3209L120.698 66.1635Z" fill="white"/>
<path d="M124.065 82.1361L123.504 82.3984L123.348 82.0641L124.884 81.346L125.04 81.6803L124.479 81.9426L125.147 83.3706L124.739 83.5614L124.071 82.1334L124.065 82.1361Z" fill="white"/>
<path d="M127.521 82.2604L127.028 81.2064L126.921 82.3202L126.74 82.405L125.826 81.7961L126.309 82.8274L125.929 83.005L125.105 81.2427L125.439 81.0863L126.608 81.8726L126.748 80.4742L127.083 80.3179L127.912 82.0775L127.521 82.2604Z" fill="white"/>
</g>
<defs>
<clipPath id="clip0_34_607">
<rect width="136" height="136" fill="white" transform="translate(0 57.6089) rotate(-25.0617)"/>
</clipPath>
</defs>
</svg>
