<svg width="160" height="158" fill="none" xmlns="http://www.w3.org/2000/svg"><g clip-path="url(#clip0_34_413)"><path d="M92.295 145.736c37.317-6.521 62.234-41.788 55.654-78.771-6.58-36.983-42.166-61.678-79.483-55.156C31.15 18.329 6.232 53.597 12.812 90.58c6.58 36.983 42.166 61.677 79.483 55.156z" fill="#FFC64F"/><path d="M43.314 107.405l-.038.433c-.033.393-.104.678-.202.848-.098.17-.301.288-.606.341l-1.635.286.077 4.61 4.066-.71c1.523-.266 2.442-1.475 2.764-3.627l4.201-26.352c-1.316.166-2.623.35-3.914.55l-.814.143-1.467 12.255-1.84-11.677-.56.098c-1.468.282-2.908.584-4.32.9l4.083 19.455c.18.978.243 1.793.205 2.447zm17.966 2.959l-.284-17.234 2.79 16.796 1.902-.332 2.108-17.653.285 17.234 4.444-.776-.45-25.838a93.805 93.805 0 00-6.237-.218l-1.391 13.252-1.99-13.201a108.03 108.03 0 00-5.974.358l.496 28.363 4.302-.751zm12.415-9.043c.04 2.274.67 3.949 1.895 5.03 1.224 1.082 2.902 1.437 5.028 1.065l1.026-.179c3.369-.589 5.036-3.249 5.008-7.983l-.265-15.033a69.464 69.464 0 01-5.322-.556c.09.25.15.551.16.93l.28 15.876c.006 1.085-.39 1.701-1.199 1.842-.938.164-1.424-.297-1.462-1.377l-.28-15.875c-.017-.67.061-1.167.221-1.494a.951.951 0 01.159-.224 79.451 79.451 0 00-5.196-.636c-.23 1.05-.34 2.27-.313 3.682l.26 14.932zm19.281 3.504l-.213-11.536 2.853-.499c1.623-.283 2.737-.973 3.354-2.079.611-1.104.897-2.595.85-4.48l-.037-2.337c-1.648.18-3.311.305-4.982.387l.041 2.394c.024.568-.037.979-.172 1.23-.14.26-.45.429-.928.512l-1.025.18-.082-4.242a73.31 73.31 0 01-4.934-.065l.37 21.392 4.905-.857zm9.92-13.809L100 103.597l5.166-.902 2.544-11.243.416-.073.191 10.765 4.905-.857-.343-19.758c-1.602.4-3.24.776-4.899 1.104l.062 4.06-.951.166c-.534.094-.887.022-1.058-.221-.172-.243-.254-.635-.249-1.183l-.044-2.406c-1.622.284-3.27.534-4.939.73l.054 3.046c-.001 2.331.683 3.73 2.041 4.191zM44.94 56.636l-1.57 14.953-2.153-14.303-5.819 1.017.345 19.733c1.402-.334 2.838-.655 4.297-.954l-.133-7.955 1.29 7.72a141.36 141.36 0 014.551-.826l.966-8.084.132 7.91c1.466-.224 2.942-.43 4.442-.61l-.343-19.65-6.005 1.049zm14.44-2.524l-1.46 12.255-1.84-11.678-4.905.857 4.047 19.29c1.831-.156 3.669-.274 5.529-.338l3.378-21.215-4.749.83zm5.326 17.363l.067 2.968a91.92 91.92 0 014.93.155l-.092-3.98-4.905.858z" fill="#fff"/><path d="M76.815 68.426c-.077-2.344-.845-3.632-2.298-3.874 1.184-.696 1.762-2.13 1.74-4.306l-.081-3.555c-.058-1.8-.591-3.143-1.599-4.015-1.001-.873-2.534-1.132-4.586-.774l-.876.154c-1.747.305-2.968.97-3.663 1.999-.695 1.03-1.003 2.468-.937 4.318l.072 3.716 4.867-.85-.041-2.864c-.016-.519.054-.88.198-1.083.143-.203.382-.34.711-.398.684-.119 1.027.26 1.024 1.143l.051 3.605c.01.487-.056.836-.186 1.042-.136.209-.413.346-.848.422l-2.356.412.096 5.147 2.468-.431c.428-.075.72-.024.868.16.148.183.227.519.236 1.006l.125 5.346a77.9 77.9 0 015.123.59c.016-.307.018-.619.017-.949l-.125-5.961zm14.031-19.812l.485 27.838a81.362 81.362 0 004.916-.255l-.497-28.44-4.904.857zm-.742 23.352l-.106-6.968c-.01-3.88-1.639-5.539-4.883-4.972l-2.394.418-.161-10.382-4.905.857.428 24.596.225.037c3.632.604 7.259.885 10.84.913.01-.014.027-.03.037-.044.674-1.039.974-2.52.919-4.455zm-4.992-5.613l.088 6.007c0 .571-.084 1.005-.236 1.305-.157.3-.501.494-1.03.586l-.95.166-.166-9.289.95-.166c.535-.094.895-.017 1.081.237.186.253.274.638.263 1.154zm24.929-21.093l-4.979.87-2.891 11.494-.186-10.957-4.905.857.498 28.555a88.295 88.295 0 004.908-.623l-.221-12.443 3.522 11.872a94.89 94.89 0 005.103-1.114l-4.369-14.576 3.52-13.935zm3.99-.698l-2.933 29.154a107.67 107.67 0 004.47-1.207l.292-4.23 3.003-.525.459 3.59a120.85 120.85 0 004.56-1.603l-4.039-26.194-5.812 1.015zm2.228 18.68l.711-9.875 1.266 9.53-1.977.345zm-.907 16.298l-.615.108-.065-.364 1.684-.294.065.364-.615.107.276 1.553-.448.078-.276-1.553-.006.001zm3.334 1.018l-.204-1.145-.397 1.047-.198.035-.731-.825.2 1.12-.416.074-.341-1.916.366-.064.933 1.063.503-1.314.367-.064.347 1.915-.429.074z" fill="#fff"/></g><defs><clipPath id="clip0_34_413"><path fill="#fff" transform="rotate(-9.912 136.615 6.63) skewX(.176)" d="M0 0h137.191v136.037H0z"/></clipPath></defs></svg>