<svg width="26" height="25" viewBox="0 0 26 25" fill="none" xmlns="http://www.w3.org/2000/svg">
<path d="M13.3998 14.675C12.184 14.675 11.1962 13.7 11.1962 12.5C11.1962 11.3 12.1756 10.325 13.3998 10.325C14.6072 10.325 15.6034 11.3 15.6034 12.5C15.6034 13.7 14.6156 14.675 13.3998 14.675ZM13.3998 9.17499C11.5424 9.17499 10.0396 10.6583 10.0396 12.5C10.0396 14.3333 11.5508 15.825 13.3998 15.825C15.2573 15.825 16.7685 14.3333 16.7685 12.5C16.7685 10.6667 15.2573 9.17499 13.3998 9.17499Z" fill="white"/>
<path d="M17.1063 7.96667C16.6757 7.96667 16.3296 8.30834 16.3296 8.73334C16.3296 9.15834 16.6757 9.50001 17.1063 9.50001C17.5369 9.50001 17.8831 9.15834 17.8831 8.73334C17.8831 8.30834 17.5369 7.96667 17.1063 7.96667Z" fill="white"/>
<path d="M19.8757 15.2167C19.8757 17.2333 18.204 18.8833 16.1439 18.8833H10.6561C8.59599 18.8833 6.9243 17.2333 6.9243 15.225V9.76667C6.9243 7.75 8.59599 6.1 10.6561 6.1H16.1439C18.204 6.1 19.8757 7.75 19.8757 9.76667V15.2167ZM13.4 0.125C6.47683 0.125 0.862305 5.66667 0.862305 12.5C0.862305 19.3333 6.47683 24.875 13.4 24.875C20.3232 24.875 25.9377 19.3333 25.9377 12.5C25.9377 5.66667 20.3232 0.125 13.4 0.125Z" fill="white"/>
</svg>
