<svg width="26" height="25" viewBox="0 0 26 25" fill="none" xmlns="http://www.w3.org/2000/svg">
<path d="M20.24 5.79167L17.4116 18.9167C17.3694 19.1667 17.0739 19.2917 16.8206 19.1667L12.4725 16.2917L10.1507 18.4583C9.93966 18.625 9.64416 18.5417 9.55973 18.2917L8.04001 13.625L4.02964 12C3.73413 11.875 3.73413 11.375 4.02964 11.25L19.6912 5.375C19.9867 5.29167 20.2822 5.5 20.24 5.79167ZM13.1057 0C6.09815 0 0.441406 5.58333 0.441406 12.5C0.441406 19.4167 6.09815 25 13.1057 25C20.1133 25 25.7701 19.4167 25.7701 12.5C25.7701 5.58333 20.1133 0 13.1057 0Z" fill="white"/>
<path d="M10.0243 16.9167L10.2776 14.5L17.3696 7.70834L8.84229 13.25" fill="white"/>
</svg>
