<svg width="26" height="25" viewBox="0 0 26 25" fill="none" xmlns="http://www.w3.org/2000/svg">
<path d="M18.6377 15.1C17.2531 13.8333 17.4389 14.0333 19.1105 11.8417C20.1237 10.5083 20.529 9.69167 20.4023 9.34167C20.2841 9.00833 19.5327 9.1 19.5327 9.1L17.0505 9.11667C17.0505 9.11667 16.8647 9.09167 16.7297 9.175C16.5946 9.25 16.5101 9.44167 16.5101 9.44167C16.5101 9.44167 16.1218 10.475 15.5983 11.35C14.4923 13.2 14.0533 13.3 13.8675 13.1833C13.4454 12.9167 13.5551 12.1083 13.5551 11.5333C13.5551 9.73333 13.8337 8.99167 13.0148 8.79167C12.7446 8.725 12.542 8.68333 11.8581 8.675C10.9716 8.66667 10.2202 8.675 9.79803 8.88333C9.51942 9.025 9.2999 9.325 9.42655 9.34167C9.58696 9.36667 9.96689 9.44167 10.1611 9.70833C10.4144 10.05 10.4059 10.8167 10.4059 10.8167C10.4059 10.8167 10.5579 12.925 10.0682 13.1917C9.73049 13.375 9.27458 13.0083 8.28676 11.325C7.78018 10.4667 7.40025 9.51667 7.40025 9.51667C7.40025 9.51667 7.32427 9.34167 7.19762 9.24167C7.03721 9.125 6.81769 9.08333 6.81769 9.08333L4.46213 9.09167C4.46213 9.09167 4.10752 9.09167 3.98088 9.24167C3.86268 9.375 3.97244 9.63333 3.97244 9.63333C3.97244 9.63333 5.82143 13.85 7.90683 16C9.82336 17.9667 12.0016 17.75 12.0016 17.75H12.9894C12.9894 17.75 13.285 17.8083 13.4369 17.65C13.5805 17.5 13.572 17.3167 13.572 17.3167C13.572 17.3167 13.5551 16.0083 14.1715 15.8167C14.7793 15.625 15.5561 17.0833 16.3835 17.6333C17.0083 18.0583 17.4811 17.9667 17.4811 17.9667L19.6847 17.9333C19.6847 17.9333 20.8413 17.8667 20.2926 16.9667C20.2335 16.9 19.9548 16.3167 18.6377 15.1ZM25.2316 12.5C25.2316 19.3333 19.6171 24.875 12.6939 24.875C5.77077 24.875 0.15625 19.3333 0.15625 12.5C0.15625 5.66667 5.77077 0.125 12.6939 0.125C19.6171 0.125 25.2316 5.66667 25.2316 12.5Z" fill="white"/>
</svg>
