<svg width="132" height="78" fill="none" xmlns="http://www.w3.org/2000/svg"><path d="M111.211 52.269h-6.055L94.067 77.16h6.321l2.63-8.258 4.139-.015.305 7.9h4.926l-1.177-24.518zm-3.749 12.443h-3.163l3.163-6.676v6.676zM1.365 43.028l31.158 1.228v5.129l-24.567-1.95.148 8.38 5.286-.58-.143 4.122H8.104L8.32 78l-5.074-1.086-1.881-33.886z" fill="#FFC64F"/><path d="M21.646 72.464v-4.137l14.542-.56-.423-14.432-19.883 1.262.35 22.563h22.065l1.123-5.114-17.774.418zM21.434 58.1h9.907l.35 4.416H21.434V58.1zm37.125-2.054l-.542-4.426-16.129 1.243-.468 14.762 13.789-1.09.236 5.747H44.307l-1.094 4.51h18.385l-2.182-15.617-12.848.845.232-5.817 11.759-.157z" fill="#FFC64F"/><path d="M36.174 50.205l.27-6.037 41.682-.491.61 3.68-10.675-.07 2.109 29.505h-3.128l-4.217-29.416-26.651 2.83z" fill="#FFC64F"/><path d="M73.505 58.576h4.912V77.16h-4.33l-.582-18.584zm-1.226-7.997h6.138v4.971h-4.912l-1.225-4.97zm9.537-5.929l.65 32.51h8.665l8.163-28.453 10.257-.285.359-3.89-14.951-.29-8.404 27.406.172-26.999h-4.911zm31.715-2.6l7.498-.746-.468 31.11 10.946-1.876v6.254l-16.271.368-1.705-35.11zM18.183 3.97l10.335.328v27.26l16.42-4.5.458 11.814H20.148L18.183 3.97z" fill="#FFC64F"/><path d="M54.746 13.426l-23.548-.978L32.46 27.19l6.045-1.016-.645-3.493 11.005-.9.064 16.615 11.636-.005-5.818-24.965zm-17.459 5.757l-.956-3.35 11.434.953.636 2.397H37.287z" fill="#FFC64F"/><path d="M39.351 10.179l1.404-6.21 43.608-1.807.561 5.482-20.05 2.083 6.119 29.43-7.42-.034-4.536-28.787-19.686-.157zM90.92 39.89L87.048 2.431l10.261 1.817 6.739 25.236-2.31-25.285 7.394-.452.453 34.27-10.217-.477L94.994 19l1.005 19.832-5.08 1.056zM129.852 0l-18.04 3.807 1.33 33.616L132 35.13 129.852 0zm-10.72 29.951l-1.734-19.925 8.272.35.014 16.672-6.552 2.903zM16.784 23.786l-1.32-21.015L0 3.969l2.094 34.333 7.419.035-2.114-13.15 9.385-1.4zM5.557 10.856h4.764l.635 7.983-4.286-.108-1.113-7.875z" fill="#FFC64F"/><path d="M84.57 11.073l-14.735 2.721 3.966 24.287 4.123-.034-2.04-11.156 5.503.52.65 13.028h4.74L84.57 11.073zM75.407 23.02l-.675-6.052 5.365-1.042 1.01 7.472-5.7-.378zM33.006 2.466L38.2 3.788l-1.86 6.116-5.093.054 1.758-7.492z" fill="#FFC64F"/></svg>