<svg width="129" height="77" viewBox="0 0 129 77" fill="none" xmlns="http://www.w3.org/2000/svg">
<path d="M108.356 51.3615H102.457L91.6523 75.8209H97.8105L100.374 67.7064L104.405 67.6919L104.703 75.454H109.503L108.356 51.3615ZM104.703 63.5888H101.621L104.703 57.0286V63.5888Z" fill="#FFC64F"/>
<path d="M1.33008 42.2815L31.6887 43.4883V48.5279L7.75218 46.6115L7.89617 54.8467L13.0463 54.2771L12.9071 58.3271H7.89617L8.10736 76.6463L3.16359 75.5795L1.33008 42.2815Z" fill="#FFC64F"/>
<path d="M21.0913 71.2061V67.1416L35.2603 66.5913L34.8475 52.409L15.4756 53.6496L15.8164 75.8209H37.3146L38.4089 70.7958L21.0913 71.2061ZM20.8849 57.0914H30.5373L30.8781 61.431H20.8849V57.0914Z" fill="#FFC64F"/>
<path d="M57.0558 55.0736L56.5279 50.7243L40.8134 51.9456L40.3574 66.4513L53.792 65.3797L54.0224 71.0275H43.1701L42.1045 75.4589H60.0173L57.891 60.1132L45.3732 60.9435L45.5988 55.2281L57.0558 55.0736Z" fill="#FFC64F"/>
<path d="M35.2441 49.334L35.5081 43.4014L76.119 42.9187L76.7142 46.5343L66.3131 46.4667L68.3674 75.4589H65.3195L61.2109 46.5536L35.2441 49.334Z" fill="#FFC64F"/>
<path d="M71.6182 57.5596H76.4035V75.8209H72.1845L71.6182 57.5596Z" fill="#FFC64F"/>
<path d="M70.4238 49.7009H76.4043V54.586H71.619L70.4238 49.7009Z" fill="#FFC64F"/>
<path d="M79.7158 43.8745L80.3494 75.8209H88.7922L96.7454 47.8617L106.739 47.5818L107.089 43.7586L92.5216 43.4738L84.3332 70.4048L84.5012 43.8745H79.7158Z" fill="#FFC64F"/>
<path d="M110.616 41.3209L117.921 40.5871L117.465 71.1578L128.131 69.3138V75.4589L112.277 75.8209L110.616 41.3209Z" fill="#FFC64F"/>
<path d="M17.7158 3.90039L27.7858 4.22381V31.01L43.7834 26.5883L44.2298 38.1977H19.6309L17.7158 3.90039Z" fill="#FFC64F"/>
<path d="M53.3394 13.1928L30.3965 12.2321L31.6252 26.7186L37.5146 25.7194L36.8858 22.2872L47.6085 21.4038L47.6709 37.7294L59.008 37.7246L53.3394 13.1928ZM36.329 18.8502L35.3979 15.5581L46.5381 16.4946L47.1573 18.8502H36.329Z" fill="#FFC64F"/>
<path d="M38.3408 10.002L39.7088 3.90039L82.1964 2.12398L82.7436 7.51114L63.2085 9.55787L69.1698 38.4777L61.9413 38.4439L57.5207 10.1564L38.3408 10.002Z" fill="#FFC64F"/>
<path d="M88.5841 39.1969L84.8115 2.38947L94.8095 4.17553L101.376 28.9729L99.1245 4.12726L106.329 3.68316L106.77 37.3577L96.8158 36.8895L92.5536 18.6716L93.5327 38.1591L88.5841 39.1969Z" fill="#FFC64F"/>
<path d="M126.518 0L108.941 3.74109L110.237 36.7737L128.611 34.5194L126.518 0ZM116.074 29.4315L114.384 9.85233L122.443 10.1951L122.458 26.5786L116.074 29.4315Z" fill="#FFC64F"/>
<path d="M16.3528 23.3733L15.0665 2.72255L0 3.90039L2.03991 37.6377L9.26837 37.6715L7.20926 24.7491L16.3528 23.3733ZM5.41415 10.6681H10.0555L10.6747 18.5123L6.4989 18.4061L5.41415 10.6681Z" fill="#FFC64F"/>
<path d="M82.3971 10.8805L68.041 13.5548L71.9048 37.4205L75.9222 37.3867L73.9351 26.4241L79.2965 26.9358L79.9301 39.7376H84.5474L82.3971 10.8805ZM73.4696 22.6203L72.812 16.6732L78.0389 15.6498L79.0229 22.992L73.4696 22.6203Z" fill="#FFC64F"/>
<path d="M32.1579 2.42326L37.2168 3.72178L35.4073 9.73165L30.4443 9.78475L32.1579 2.42326Z" fill="#FFC64F"/>
</svg>
