<svg width="64" height="46" fill="none" xmlns="http://www.w3.org/2000/svg"><path d="M53.7 32.88V6.6h-6.71v26.28h6.71zm-10.07 0V6.6h-6.71v26.28h6.71zM33.56 16.5V6.6H20.2v9.9h13.36zm-6.33 20.37a5.04 5.04 0 00-1.5-3.82 5.163 5.163 0 00-3.88-1.48c-2.94 0-5.32 2.34-5.32 5.23 0 2.89 2.38 5.23 5.32 5.23 1.43.07 2.82-.44 3.84-1.43a4.96 4.96 0 001.54-3.73zM16.84 16.5V6.6H3.42v9.9h13.42zm-3.73 20.37c-.07-2.31.82-4.54 2.47-6.18 1.65-1.64 3.92-2.53 6.26-2.48v-3.05c-3.2-.15-6.32 1.03-8.59 3.26-2.27 2.23-3.47 5.3-3.32 8.45 0 .93.13 1.85.38 2.74H0V0h53.57l6.65 6.6v19.68h3.36v6.6h-3.36v6.72H30.08c-1.21 3.47-4.51 5.81-8.23 5.85-2.34.08-4.61-.8-6.27-2.43a8.188 8.188 0 01-2.47-6.15z" fill="#FFC64F"/></svg>