<svg width="35" height="25" fill="none" xmlns="http://www.w3.org/2000/svg"><path d="M29.561 18.084V3.63h-3.694v14.454h3.694zm-5.543 0V3.63h-3.694v14.454h3.694zm-5.544-9.01V3.63H11.12v5.445h7.354zM14.99 20.279a2.77 2.77 0 00-.826-2.1 2.844 2.844 0 00-2.136-.815c-1.618 0-2.928 1.287-2.928 2.877 0 1.59 1.31 2.876 2.928 2.876a2.83 2.83 0 002.114-.786c.562-.534.87-1.282.848-2.052zM9.27 9.075V3.63H1.883v5.445H9.27zM7.217 20.278a4.588 4.588 0 011.36-3.399 4.748 4.748 0 013.446-1.364v-1.677a6.33 6.33 0 00-4.729 1.793 6.101 6.101 0 00-1.828 4.647c0 .512.072 1.018.21 1.507H0V0h29.49l3.66 3.63v10.824H35v3.63h-1.85v3.696H16.56c-.666 1.908-2.483 3.195-4.53 3.217a4.701 4.701 0 01-3.452-1.336 4.501 4.501 0 01-1.36-3.383z" fill="#FFC64F"/></svg>