<svg width="41" height="39" viewBox="0 0 41 39" fill="none" xmlns="http://www.w3.org/2000/svg">
<rect width="41" height="39" fill="#E5E5E5"/>
<rect width="1440" height="835" transform="translate(-65 -2722)" fill="white"/>
<mask id="mask0_0_1" style="mask-type:alpha" maskUnits="userSpaceOnUse" x="-94" y="-240" width="1440" height="835">
<rect x="-94" y="-240" width="1440" height="835" fill="#FEF2D9"/>
</mask>
<g mask="url(#mask0_0_1)">
<rect x="-94" y="-240" width="1440" height="835" fill="#FEF2D9"/>
</g>
<path d="M2.2971 14.0322C2.20927 14.9196 2.77077 29.9708 3.64281 30.6481C4.59956 31.3881 23.0788 36.8567 25.4596 36.3958C27.759 35.9505 37.0189 27.8354 38.1106 25.5056C39.13 23.3358 35.8865 7.61667 35.5321 7.11809C35.1211 6.538 14.5246 2.00069 13.6117 2.66545C11.1085 4.48727 2.37553 13.2326 2.2971 14.0322Z" fill="white"/>
<path d="M-0.350173 14.0321C-0.635627 17.9548 -0.114909 22.1347 0.223871 26.0417C0.380714 27.8667 0.330524 30.1432 1.23708 31.7894C1.98992 33.1565 3.63991 33.5485 5.01699 34.0157C9.64698 35.5867 14.3899 36.9162 19.1454 38.0451C20.9836 38.4809 22.9096 38.9858 24.8074 39.0641C26.7428 39.1425 28.4022 37.9886 29.9017 36.8974C32.2762 35.1696 34.5316 33.2569 36.6459 31.2187C38.1139 29.8077 40.0682 28.1301 40.7018 26.1233C41.2602 24.3547 40.9026 22.2005 40.6862 20.4038C40.3568 17.6664 39.9082 14.9415 39.3938 12.2323C39.0581 10.4637 38.7664 8.63878 38.2488 6.91103C37.7532 5.25226 36.7212 4.63453 35.1622 4.17046C31.0215 2.94127 26.7272 2.10719 22.4955 1.26996C20.0802 0.790207 17.646 0.313586 15.1961 0.0439189C13.1508 -0.181849 11.9902 0.52054 10.4469 1.86261C8.18521 3.82867 6.04587 5.95465 3.95673 8.10258C2.62043 9.47287 0.211324 11.3731 -0.256067 13.3297C-1.04342 16.6379 4.05711 18.052 4.84446 14.7345C4.70016 15.346 4.59351 15.4275 4.7033 15.1045C4.74408 14.9885 5.02326 14.7753 4.73153 15.0481C4.43667 15.324 5.15501 14.5558 5.28048 14.4147C5.98314 13.6151 6.71716 12.8437 7.45746 12.0786C9.14822 10.332 10.8829 8.61996 12.6646 6.96747C13.3673 6.31525 14.0825 5.67871 14.8134 5.05785C15.2714 4.66903 14.6346 5.11429 14.4432 5.17073C13.8378 5.35574 13.8441 5.19268 14.4181 5.25853C14.6722 5.28675 14.9294 5.30557 15.1867 5.33065C15.9301 5.40277 14.8448 5.2648 15.6697 5.3965C16.592 5.54074 17.5142 5.69439 18.4333 5.86371C22.7057 6.64136 26.9593 7.55384 31.1752 8.59488C31.8747 8.76734 32.5743 8.94294 33.2675 9.13735C33.5404 9.21261 33.8102 9.3004 34.0862 9.37566C34.5285 9.49482 34.723 9.7488 34.0768 9.3349C34.5599 9.64846 33.0291 8.13394 33.2581 8.48827C32.6809 7.58833 33.0573 7.86427 33.0793 8.11199C33.0981 8.31267 33.1953 8.5353 33.2455 8.73285C33.44 9.50109 33.6031 10.2756 33.7663 11.0532C34.6508 15.2707 35.5731 19.4286 35.6546 23.6241C35.6609 23.9534 35.6295 24.2826 35.639 24.6119C35.6515 25.1637 35.7738 24.1509 35.6672 24.4363C35.6452 24.4958 35.5825 24.6683 35.5919 24.7247C35.4664 23.969 35.9683 24.3704 35.5919 24.5836C35.5386 24.615 35.3943 24.8658 35.3755 24.8941C35.6829 24.4582 34.8642 25.4742 34.6791 25.6748C32.9664 27.5468 31.056 29.2495 29.1018 30.8644C28.3301 31.5009 27.5459 32.1186 26.7272 32.6925C26.3601 32.9496 25.9869 33.2004 25.601 33.4325C25.4097 33.5485 25.2121 33.652 25.0176 33.7649C24.7102 33.9436 24.4718 33.79 25.005 33.7868C24.2773 33.7931 25.692 33.9248 25.0583 33.79C24.8356 33.7429 24.569 33.7586 24.34 33.7398C23.7252 33.6927 24.9768 33.8495 24.3055 33.7335C24.1298 33.7022 23.9542 33.6739 23.7785 33.6426C23.2954 33.5579 22.8155 33.4607 22.3387 33.3572C17.9032 32.4134 13.521 31.1529 9.189 29.8139C8.22912 29.516 7.26925 29.215 6.31564 28.8889C5.97059 28.7698 5.62867 28.6443 5.28675 28.5252C5.17383 28.4875 5.06717 28.4374 4.95425 28.3966C4.50568 28.243 5.52829 28.7603 5.15501 28.4781C4.78799 28.1991 5.99882 29.4 5.99568 29.5693C5.99882 29.3028 5.85139 28.9422 5.79806 28.6757C5.76669 28.5126 5.74474 28.3464 5.71964 28.1802C5.82002 28.8419 5.69455 27.9702 5.682 27.8353C5.63181 27.2803 5.57535 26.7347 5.52829 26.1891C5.30558 23.6774 5.17069 21.1564 5.0609 18.6353C4.99503 17.1239 4.83191 15.5498 4.9417 14.0353C5.18951 10.6362 -0.102361 10.6519 -0.350173 14.0321Z" fill="white"/>
<path d="M13.9551 12.6556V8.65449C16.659 8.65449 17.2896 7.35632 17.4652 5.74146H21.3612V31.849H16.6936V12.6556H13.9551Z" fill="#111111"/>
</svg>
