<svg width="41" height="39" viewBox="0 0 41 39" fill="none" xmlns="http://www.w3.org/2000/svg">
<rect width="41" height="39" fill="#E5E5E5"/>
<rect width="1440" height="835" transform="translate(-64 -2783)" fill="white"/>
<mask id="mask0_0_1" style="mask-type:alpha" maskUnits="userSpaceOnUse" x="-93" y="-301" width="1440" height="835">
<rect x="-93" y="-301" width="1440" height="835" fill="#FEF2D9"/>
</mask>
<g mask="url(#mask0_0_1)">
<rect x="-93" y="-301" width="1440" height="835" fill="#FEF2D9"/>
</g>
<path d="M2.2971 25.1025C2.20927 24.2151 2.77077 9.16394 3.64281 8.48664C4.59956 7.74662 23.0788 2.27802 25.4596 2.73896C27.7589 3.18423 37.0189 11.2993 38.1106 13.6291C39.13 15.799 35.8865 31.5181 35.5321 32.0167C35.1211 32.5968 14.5246 37.1341 13.6117 36.4693C11.1085 34.6506 2.37553 25.9053 2.2971 25.1025Z" fill="white"/>
<path d="M4.94154 25.1026C4.69373 21.6722 5.1423 18.0442 5.39325 14.6232C5.46853 13.601 5.55009 12.5819 5.66301 11.5628C5.68497 11.3527 5.71007 11.1457 5.73516 10.9388C5.82927 10.1611 5.64106 11.4624 5.76026 10.76C5.81672 10.4339 5.92651 10.0859 5.95161 9.75663C5.95788 9.68765 6.02689 9.58731 6.01748 9.52146C6.06767 9.90401 5.15484 10.6409 5.01369 10.7444C5.19249 10.6127 5.72575 10.4653 4.8443 10.7945C5.43716 10.575 6.02689 10.3555 6.62603 10.1549C10.8075 8.75008 15.0767 7.55226 19.3554 6.48614C20.3059 6.25096 21.2563 6.02206 22.2131 5.81824C22.6616 5.72103 23.1102 5.6301 23.5588 5.54544C23.7407 5.51094 23.9226 5.48272 24.1046 5.44823C24.7225 5.33221 24.2457 5.42001 24.2583 5.41687C24.5092 5.39179 24.8229 5.41687 25.0645 5.35729C25.673 5.20051 24.3273 5.47645 25.0111 5.36043C24.779 5.4012 24.5281 5.12526 24.848 5.29145C25.0362 5.38865 25.2213 5.48586 25.4032 5.59247C25.8612 5.85586 26.3004 6.15375 26.7333 6.45478C28.6467 7.79371 30.4253 9.34586 32.1349 10.9325C33.0132 11.7478 33.8759 12.585 34.6883 13.4693C34.9769 13.786 35.2687 14.1058 35.5321 14.4445C35.2059 14.0243 35.4286 14.3378 35.4976 14.41C35.8992 14.8364 35.5102 14.965 35.598 14.4194C35.5949 14.4413 35.6451 14.6075 35.6608 14.642C35.8396 15.0904 35.6451 13.9678 35.6451 14.5323C35.6451 14.8615 35.667 15.1876 35.6608 15.52C35.6419 16.492 35.5416 17.4641 35.4318 18.433C35.1965 20.4932 34.773 22.9421 34.3495 25.1872C34.0202 26.9338 33.6877 28.6867 33.2516 30.4113C33.2015 30.6057 33.1042 30.8283 33.0854 31.0321C33.0634 31.2767 32.6839 31.5558 33.2642 30.6558C32.6933 31.5432 34.5534 29.5019 34.108 29.7967C34.2743 29.6869 34.8044 29.5709 34.2084 29.7308C33.9229 29.8061 33.6406 29.9033 33.3552 29.9848C29.4717 31.076 25.4973 31.8882 21.5449 32.6815C20.3717 32.9167 19.1985 33.1424 18.0222 33.3557C17.5078 33.4466 16.9933 33.5375 16.4789 33.619C16.2844 33.6504 16.0899 33.6818 15.8954 33.7131C15.8202 33.7257 14.9763 33.8448 15.4029 33.7884C15.726 33.7445 14.8164 33.8542 14.6313 33.8699C14.4399 33.8825 14.1074 33.8291 13.9318 33.895C13.6683 33.9922 14.7128 34.0298 14.3929 33.9608C14.9732 34.2556 15.1144 34.3026 14.8164 34.0988C15.0861 34.3089 15.1426 34.3497 14.9826 34.2211C14.6783 33.873 14.2298 33.5877 13.8816 33.2804C11.8646 31.4931 9.93855 29.596 8.05016 27.6707C7.1938 26.7958 6.34371 25.9147 5.52813 25.0054C5.23954 24.6824 4.95409 24.3563 4.67804 24.0208C4.45846 23.7542 4.9039 24.5538 4.76901 24.1368C4.6655 23.8201 4.64354 23.5724 4.8443 24.4127C4.05695 21.1015 -1.04672 22.5031 -0.256229 25.8175C0.151562 27.5296 2.10269 29.1162 3.26959 30.336C5.17367 32.3272 7.13734 34.2681 9.16061 36.1339C10.5377 37.4038 12.0246 39.1504 14.0227 39.1911C15.679 39.2256 17.4011 38.818 19.026 38.5326C23.7313 37.708 28.424 36.7014 33.0572 35.5381C34.2649 35.2339 35.7329 35.005 36.8183 34.3497C38.2549 33.4842 38.4431 31.5056 38.7631 30.013C39.7763 25.3064 40.8522 20.3615 40.9464 15.5325C40.9871 13.3626 40.3472 11.9798 38.9607 10.3493C37.226 8.30795 35.1745 6.50181 33.1262 4.7866C31.3413 3.29716 29.4686 1.66348 27.3481 0.660067C25.582 -0.177156 23.8944 0.127004 22.0374 0.478198C17.2662 1.375 12.5578 2.7735 7.92155 4.20023C6.15864 4.7427 4.06322 5.19111 2.44774 6.12867C0.618953 7.19166 0.587584 9.58417 0.377415 11.4436C0.0700035 14.203 -0.0774286 16.9843 -0.20604 19.7594C-0.287598 21.5154 -0.48522 23.3529 -0.359745 25.112C-0.10566 28.4797 5.18935 28.5048 4.94154 25.1026Z" fill="white"/>
<path d="M18.5427 11.3999V15.4355H14.1543V10.8386C14.1543 8.41787 15.3839 5.96265 18.9286 5.96265H19.8759C23.2449 5.96265 25.1772 7.61201 25.1772 10.9797V12.4535C25.1772 15.2599 25.1082 16.6647 22.8967 19.5432C22.0905 20.6313 21.1777 21.7883 20.3339 22.8764C17.3507 26.8054 17.5954 27.2977 17.5954 27.859H20.8609V23.4032H25.425V32.3869H13.5928V29.7216C13.5928 26.5295 13.9441 25.1592 16.7516 20.4933L18.9976 16.7744C20.2272 14.7049 20.2962 13.9335 20.2962 12.9834V11.3999C20.2962 10.594 20.0139 10.2083 19.4179 10.2083C18.7529 10.2083 18.5427 10.5595 18.5427 11.3999Z" fill="#111111"/>
</svg>
