<svg width="41" height="39" viewBox="0 0 41 39" fill="none" xmlns="http://www.w3.org/2000/svg">
<rect width="41" height="39" fill="#E5E5E5"/>
<rect width="1440" height="835" transform="translate(-64 -2842)" fill="white"/>
<mask id="mask0_0_1" style="mask-type:alpha" maskUnits="userSpaceOnUse" x="-93" y="-360" width="1440" height="835">
<rect x="-93" y="-360" width="1440" height="835" fill="#FEF2D9"/>
</mask>
<g mask="url(#mask0_0_1)">
<rect x="-93" y="-360" width="1440" height="835" fill="#FEF2D9"/>
</g>
<path d="M2.2971 14.0601C2.20927 14.9475 2.77077 29.9987 3.64281 30.676C4.59956 31.416 23.0788 36.8846 25.4596 36.4236C27.7589 35.9784 37.0189 27.8633 38.1106 25.5335C39.13 23.3636 35.8865 7.6445 35.5321 7.14593C35.1211 6.56583 14.5246 2.02852 13.6117 2.69328C11.1085 4.5151 2.37553 13.2605 2.2971 14.0601Z" fill="white"/>
<path d="M-0.350173 14.06C-0.635627 17.9827 -0.114909 22.1625 0.223871 26.0696C0.380714 27.8945 0.330524 30.171 1.23708 31.8172C1.98992 33.1844 3.63991 33.5763 5.01699 34.0436C9.64698 35.6145 14.3899 36.944 19.1454 38.0729C20.9836 38.5087 22.9096 39.0136 24.8074 39.092C26.7428 39.1704 28.4022 38.0164 29.9016 36.9252C32.2762 35.1975 34.5316 33.2847 36.6459 31.2465C38.1139 29.8355 40.0682 28.1579 40.7018 26.1511C41.2602 24.3826 40.9026 22.2284 40.6862 20.4316C40.3568 17.6942 39.9082 14.9693 39.3938 12.2601C39.0581 10.4916 38.7664 8.66661 38.2488 6.93886C37.7532 5.28009 36.7212 4.66236 35.1622 4.19828C31.0215 2.9691 26.7272 2.13501 22.4955 1.29779C20.0802 0.818031 17.646 0.341418 15.1961 0.0717511C13.1508 -0.154017 11.9902 0.548369 10.4469 1.89043C8.18521 3.8565 6.04587 5.98248 3.95673 8.13041C2.62043 9.50383 0.211324 11.404 -0.25293 13.3607C-1.04028 16.6688 4.06024 18.083 4.84759 14.7655C4.7033 15.3769 4.59665 15.4585 4.70644 15.1355C4.74722 15.0195 5.0264 14.8062 4.73467 15.079C4.4398 15.355 5.15814 14.5867 5.28362 14.4456C5.98627 13.646 6.7203 12.8747 7.46059 12.1096C9.15136 10.363 10.886 8.65093 12.6678 6.99844C13.3704 6.34622 14.0856 5.70968 14.8165 5.08882C15.2745 4.69999 14.6377 5.14525 14.4464 5.2017C13.841 5.3867 13.8472 5.22365 14.4213 5.28949C14.6754 5.31772 14.9326 5.33653 15.1898 5.36162C15.9332 5.43374 14.8479 5.29577 15.6729 5.42746C16.5951 5.57171 17.5173 5.72535 18.4364 5.89468C22.7088 6.67232 26.9624 7.58481 31.1784 8.62585C31.8779 8.79831 32.5774 8.9739 33.2706 9.16831C33.5435 9.24357 33.8133 9.33137 34.0894 9.40663C34.5317 9.52578 34.7261 9.77977 34.0799 9.36586C34.563 9.67943 33.0322 8.1649 33.2612 8.51923C32.684 7.61929 33.0605 7.89524 33.0824 8.14295C33.1012 8.34364 33.1985 8.56626 33.2487 8.76381C33.4432 9.53205 33.6063 10.3066 33.7694 11.0842C34.654 15.3017 35.5762 19.4596 35.6578 23.6551C35.6641 23.9843 35.6327 24.3136 35.6421 24.6428C35.6546 25.1947 35.777 24.1819 35.6703 24.4672C35.6484 24.5268 35.5856 24.6993 35.595 24.7557C35.4696 24 35.9715 24.4014 35.595 24.6146C35.5417 24.646 35.3974 24.8968 35.3786 24.925C35.686 24.4892 34.8673 25.5051 34.6822 25.7058C32.9695 27.5778 31.0592 29.2805 29.1049 30.8953C28.3332 31.5319 27.549 32.1496 26.7303 32.7234C26.3633 32.9806 25.99 33.2314 25.6042 33.4635C25.4128 33.5795 25.2152 33.683 25.0207 33.7958C24.7133 33.9746 24.4749 33.8209 25.0082 33.8178C24.2804 33.8241 25.6951 33.9558 25.0615 33.8209C24.8388 33.7739 24.5721 33.7896 24.3431 33.7707C23.7283 33.7237 24.9799 33.8805 24.3086 33.7645C24.133 33.7331 23.9573 33.7049 23.7816 33.6735C23.2986 33.5889 22.8186 33.4917 22.3418 33.3882C17.9063 32.4444 13.5241 31.1838 9.19214 29.8449C8.23226 29.547 7.27238 29.246 6.31878 28.9199C5.97373 28.8007 5.63181 28.6753 5.28989 28.5561C5.17696 28.5185 5.07031 28.4683 4.95739 28.4276C4.50881 28.2739 5.53143 28.7913 5.15814 28.5091C4.79113 28.23 6.00196 29.431 5.99882 29.6003C6.00196 29.3338 5.85453 28.9732 5.8012 28.7066C5.76983 28.5436 5.74787 28.3774 5.72278 28.2112C5.82316 28.8728 5.69768 28.0011 5.68513 27.8663C5.62554 27.3207 5.57221 26.7751 5.52202 26.2263C5.2993 23.7147 5.16442 21.1936 5.05463 18.6725C4.98875 17.1611 4.82564 15.587 4.93543 14.0725C5.18951 10.664 -0.102361 10.6797 -0.350173 14.06Z" fill="white"/>
<path d="M14.0673 14.0568V10.6891C14.0673 8.30288 15.1903 5.70654 18.7004 5.70654H19.6822C23.2269 5.70654 24.8079 7.74159 24.8079 10.7236V13.6366C24.8079 16.164 23.964 17.1455 23.1234 17.6033C24.422 18.0234 25.0557 19.008 25.0557 20.5853V27.1106C25.0557 30.4783 23.0889 32.5134 19.861 32.5134H18.8792C15.0177 32.5134 13.7881 30.1961 13.7881 27.8099V22.5451H18.3522V26.6873C18.3522 27.4931 18.669 27.9165 19.334 27.9165C19.9646 27.9165 20.2814 27.4963 20.2814 26.6873V21.6012C20.2814 20.8644 20.2124 20.5477 19.4031 20.5477H16.9814V15.8818H19.1584C19.9645 15.8818 20.1402 15.5651 20.1402 14.7247V11.1438C20.1402 10.1968 19.8955 9.95224 19.2274 9.95224C18.6314 9.95224 18.3491 10.1968 18.3491 11.1438V14.0568H14.0673Z" fill="#111111"/>
</svg>
