<svg width="42" height="39" viewBox="0 0 42 39" fill="none" xmlns="http://www.w3.org/2000/svg">
<rect width="42" height="39" fill="#E5E5E5"/>
<rect width="1440" height="835" transform="translate(-63 -2903)" fill="white"/>
<mask id="mask0_0_1" style="mask-type:alpha" maskUnits="userSpaceOnUse" x="-92" y="-421" width="1440" height="835">
<rect x="-92" y="-421" width="1440" height="835" fill="#FEF2D9"/>
</mask>
<g mask="url(#mask0_0_1)">
<rect x="-92" y="-421" width="1440" height="835" fill="#FEF2D9"/>
</g>
<path d="M3.2971 25.1304C3.20927 24.243 3.77077 9.19177 4.64281 8.51447C5.59956 7.77445 24.0788 2.30585 26.4596 2.76679C28.7589 3.21206 38.0189 11.3272 39.1106 13.657C40.13 15.8268 36.8865 31.5459 36.5321 32.0445C36.1211 32.6246 15.5246 37.1619 14.6117 36.4972C12.1085 34.6785 3.37553 25.9331 3.2971 25.1304Z" fill="white"/>
<path d="M5.94154 25.1304C5.69373 21.7 6.1423 18.072 6.39325 14.651C6.46853 13.6288 6.55009 12.6097 6.66301 11.5906C6.68497 11.3805 6.71007 11.1736 6.73516 10.9666C6.82927 10.189 6.64106 11.4903 6.76026 10.7879C6.81672 10.4618 6.92651 10.1137 6.95161 9.78446C6.95788 9.71548 7.02689 9.61514 7.01748 9.54929C7.06767 9.93184 6.15484 10.6687 6.01369 10.7722C6.19249 10.6405 6.72575 10.4931 5.8443 10.8224C6.43716 10.6029 7.02689 10.3834 7.62603 10.1827C11.8075 8.77792 16.0767 7.58009 20.3554 6.51396C21.3059 6.27878 22.2563 6.04989 23.2131 5.84607C23.6616 5.74886 24.1102 5.65792 24.5588 5.57326C24.7407 5.53877 24.9226 5.51055 25.1046 5.47605C25.7225 5.36003 25.2457 5.44784 25.2583 5.44471C25.5092 5.41962 25.8229 5.44471 26.0645 5.38513C26.673 5.22834 25.3273 5.50428 26.0111 5.38826C25.779 5.42902 25.5281 5.15308 25.848 5.31927C26.0362 5.41648 26.2213 5.51369 26.4032 5.6203C26.8612 5.8837 27.3004 6.18159 27.7333 6.48261C29.6467 7.82154 31.4253 9.37369 33.1349 10.9603C34.0132 11.7756 34.8759 12.6128 35.6883 13.4971C35.9769 13.8138 36.2687 14.1336 36.5321 14.4723C36.2059 14.0521 36.4286 14.3657 36.4976 14.4378C36.8992 14.8642 36.5102 14.9928 36.598 14.4472C36.5949 14.4691 36.6451 14.6353 36.6608 14.6698C36.8396 15.1182 36.6451 13.9957 36.6451 14.5601C36.6451 14.8893 36.667 15.2154 36.6608 15.5478C36.6419 16.5199 36.5416 17.4919 36.4318 18.4608C36.1965 20.521 35.773 22.9699 35.3495 25.2151C35.0202 26.9616 34.6877 28.7145 34.2516 30.4391C34.2015 30.6335 34.1042 30.8561 34.0854 31.0599C34.0634 31.3045 33.6839 31.5836 34.2642 30.6837C33.6933 31.5711 35.5534 29.5297 35.108 29.8245C35.2743 29.7147 35.8044 29.5987 35.2084 29.7587C34.9229 29.8339 34.6406 29.9311 34.3552 30.0126C30.4717 31.1039 26.4973 31.916 22.5449 32.7093C21.3717 32.9445 20.1985 33.1703 19.0222 33.3835C18.5078 33.4744 17.9933 33.5653 17.4789 33.6469C17.2844 33.6782 17.0899 33.7096 16.8954 33.7409C16.8202 33.7535 15.9763 33.8727 16.4029 33.8162C16.726 33.7723 15.8164 33.882 15.6313 33.8977C15.4399 33.9103 15.1074 33.857 14.9318 33.9228C14.6683 34.02 15.7128 34.0577 15.3929 33.9887C15.9732 34.2834 16.1144 34.3305 15.8164 34.1266C16.0861 34.3367 16.1426 34.3775 15.9826 34.2489C15.6783 33.9009 15.2298 33.6155 14.8816 33.3082C12.8646 31.5209 10.9385 29.6238 9.05016 27.6985C8.1938 26.8237 7.34371 25.9426 6.52813 25.0332C6.23954 24.7102 5.95409 24.3841 5.67804 24.0486C5.45846 23.7821 5.9039 24.5817 5.76901 24.1646C5.6655 23.8479 5.64354 23.6002 5.8443 24.4406C5.05695 21.1293 -0.0467166 22.5309 0.743771 25.8453C1.15156 27.5574 3.10269 29.1441 4.26959 30.3638C6.17367 32.355 8.13734 34.296 10.1606 36.1617C11.5377 37.4316 13.0246 39.1782 15.0227 39.219C16.679 39.2534 18.4011 38.8458 20.026 38.5605C24.7313 37.7358 29.424 36.7292 34.0572 35.5659C35.2649 35.2617 36.7329 35.0328 37.8183 34.3775C39.2549 33.512 39.4431 31.5334 39.7631 30.0409C40.7763 25.3342 41.8522 20.3893 41.9464 15.5604C41.9871 13.3905 41.3472 12.0077 39.9607 10.3771C38.226 8.33579 36.1745 6.52964 34.1262 4.81443C32.3413 3.32499 30.4686 1.69131 28.3481 0.687897C26.582 -0.149326 24.8944 0.154838 23.0374 0.506033C18.2662 1.40283 13.5578 2.80134 8.92155 4.22807C7.15864 4.77054 5.06322 5.21893 3.44774 6.1565C1.61895 7.21949 1.58758 9.61201 1.37742 11.4715C1.07 14.2308 0.922571 17.0122 0.79396 19.7872C0.712402 21.5432 0.51478 23.3807 0.640255 25.1398C0.89434 28.5075 6.18935 28.5326 5.94154 25.1304Z" fill="white"/>
<path d="M12.9307 24.0266C14.336 20.2011 17.4948 11.3585 18.7934 7.53296H22.8996V23.5343H25.3212V27.9901H22.8996V33.8161H18.3355V27.9901H12.9307V24.0266ZM18.3355 17.1814C17.774 18.8997 16.9302 21.5682 16.193 23.5311H18.3355V17.1814Z" fill="#111111"/>
</svg>
