<svg width="42" height="39" viewBox="0 0 42 39" fill="none" xmlns="http://www.w3.org/2000/svg">
<rect width="42" height="39" fill="#E5E5E5"/>
<rect width="1440" height="835" transform="translate(-62 -2966)" fill="white"/>
<mask id="mask0_0_1" style="mask-type:alpha" maskUnits="userSpaceOnUse" x="-91" y="-484" width="1440" height="835">
<rect x="-91" y="-484" width="1440" height="835" fill="#FEF2D9"/>
</mask>
<g mask="url(#mask0_0_1)">
<rect x="-91" y="-484" width="1440" height="835" fill="#FEF2D9"/>
</g>
<path d="M2.72874 13.8506C2.64091 14.738 3.20241 29.7892 4.07446 30.4665C5.0312 31.2065 23.5104 36.6751 25.8913 36.2142C28.1906 35.7689 37.4506 27.6538 38.5422 25.324C39.5617 23.1541 36.3182 7.43503 35.9637 6.93646C35.5528 6.35636 14.9562 1.81905 14.0434 2.48381C11.5402 4.30563 2.80717 13.051 2.72874 13.8506Z" fill="white"/>
<path d="M0.0814678 13.8505C-0.203986 17.7732 0.316732 21.953 0.655512 25.8601C0.812355 27.685 0.762165 29.9615 1.66872 31.6077C2.42156 32.9749 4.07155 33.3668 5.44863 33.8341C10.0786 35.405 14.8215 36.7346 19.577 37.8634C21.4152 38.2993 23.3412 38.8041 25.239 38.8825C27.1745 38.9609 28.8339 37.807 30.3333 36.7157C32.7079 34.988 34.9633 33.0752 37.0775 31.0371C38.5456 29.626 40.4998 27.9484 41.1335 25.9416C41.6918 24.1731 41.3342 22.0189 41.1178 20.2221C40.7884 17.4847 40.3399 14.7598 39.8254 12.0506C39.4898 10.2821 39.198 8.45713 38.6805 6.72937C38.1848 5.07061 37.1528 4.45288 35.5938 3.98881C31.4531 2.75962 27.1588 1.92554 22.9272 1.08832C20.5118 0.608558 18.0776 0.131946 15.6277 -0.137722C13.5825 -0.363489 12.4219 0.338896 10.8785 1.68096C8.61685 3.64702 6.47751 5.77301 4.38837 7.92094C3.05207 9.29436 0.642965 11.1946 0.17871 13.1512C-0.60864 16.4594 4.49189 17.8735 5.27924 14.556C5.13494 15.1675 5.02829 15.249 5.13808 14.926C5.17886 14.81 5.45804 14.5968 5.16631 14.8696C4.87144 15.1455 5.58978 14.3773 5.71526 14.2362C6.41791 13.4366 7.15194 12.6652 7.89224 11.9001C9.583 10.1535 11.3177 8.44145 13.0994 6.78895C13.8021 6.13673 14.5173 5.5002 15.2482 4.87934C15.7061 4.49052 15.0694 4.93578 14.878 4.99222C14.2726 5.17723 14.2789 5.01418 14.8529 5.08003C15.107 5.10825 15.3642 5.12706 15.6214 5.15214C16.3649 5.22426 15.2795 5.08628 16.1045 5.21798C17.0268 5.36222 17.949 5.51589 18.8681 5.68521C23.1405 6.46286 27.3941 7.37532 31.61 8.41636C32.3095 8.58882 33.009 8.76443 33.7023 8.95885C33.9752 9.0341 34.2449 9.12188 34.521 9.19714C34.9633 9.3163 35.1578 9.5703 34.5116 9.15639C34.9947 9.46996 33.4639 7.95543 33.6929 8.30976C33.1157 7.40983 33.4921 7.68576 33.5141 7.93348C33.5329 8.13416 33.6301 8.35679 33.6803 8.55433C33.8748 9.32257 34.0379 10.0971 34.201 10.8747C35.0856 15.0922 36.0079 19.2501 36.0894 23.4456C36.0957 23.7748 36.0643 24.1041 36.0737 24.4333C36.0863 24.9852 36.2086 23.9724 36.102 24.2577C36.08 24.3173 36.0173 24.4898 36.0267 24.5462C35.9012 23.7905 36.4031 24.1919 36.0267 24.4051C35.9734 24.4365 35.8291 24.6873 35.8102 24.7156C36.1177 24.2797 35.2989 25.2957 35.1139 25.4963C33.4011 27.3683 31.4908 29.071 29.5365 30.6859C28.7649 31.3224 27.9806 31.9401 27.1619 32.514C26.7949 32.7711 26.4216 33.0219 26.0358 33.254C25.8445 33.37 25.6468 33.4735 25.4523 33.5864C25.1449 33.7651 24.9065 33.6114 25.4398 33.6083C24.712 33.6146 26.1268 33.7463 25.4931 33.6114C25.2704 33.5644 25.0038 33.5801 24.7748 33.5613C24.16 33.5142 25.4116 33.671 24.7403 33.555C24.5646 33.5236 24.389 33.4954 24.2133 33.4641C23.7302 33.3794 23.2503 33.2822 22.7735 33.1787C18.338 32.2349 13.9558 30.9744 9.62378 29.6354C8.6639 29.3375 7.70402 29.0365 6.75042 28.7104C6.40537 28.5912 6.06345 28.4658 5.72153 28.3466C5.60861 28.309 5.50195 28.2589 5.38903 28.2181C4.94046 28.0644 5.96307 28.5818 5.58978 28.2996C5.22277 28.0206 6.4336 29.2215 6.43046 29.3908C6.4336 29.1243 6.28617 28.7637 6.23284 28.4972C6.20147 28.3341 6.17951 28.1679 6.15442 28.0017C6.2548 28.6634 6.12932 27.7917 6.11678 27.6568C6.05718 27.1112 6.00385 26.5656 5.95366 26.0169C5.73094 23.5052 5.59606 20.9841 5.48627 18.463C5.42039 16.9517 5.25728 15.3775 5.36707 13.863C5.62115 10.4545 0.329279 10.4702 0.0814678 13.8505Z" fill="white"/>
<path d="M16.004 20.3507V5.85767H26.7101V10.3856H20.4991V15.5437C21.2018 14.3146 22.2557 13.0885 23.6924 13.0885H24.1128C26.2552 13.0885 27.0269 14.879 27.0269 16.4907V27.2649C27.0269 29.8957 25.5181 32.354 22.0769 32.354H20.6716C16.7757 32.354 15.7217 29.7232 15.7217 27.7227V22.3889H20.3893V26.7036C20.3893 27.4404 20.565 27.9327 21.2676 27.9327C21.9358 27.9327 22.146 27.4059 22.146 26.7036V18.808C22.146 18.1401 22.146 17.5098 21.3398 17.5098C20.6371 17.5098 20.6026 18.2122 20.6026 18.7735V20.3538H16.004V20.3507Z" fill="#111111"/>
</svg>
