<svg width="42" height="39" viewBox="0 0 42 39" fill="none" xmlns="http://www.w3.org/2000/svg">
<rect width="42" height="39" fill="#E5E5E5"/>
<rect width="1440" height="835" transform="translate(-62 -3027)" fill="white"/>
<mask id="mask0_0_1" style="mask-type:alpha" maskUnits="userSpaceOnUse" x="-91" y="-545" width="1440" height="835">
<rect x="-91" y="-545" width="1440" height="835" fill="#FEF2D9"/>
</mask>
<g mask="url(#mask0_0_1)">
<rect x="-91" y="-545" width="1440" height="835" fill="#FEF2D9"/>
</g>
<path d="M2.72874 24.9209C2.64091 24.0335 3.20241 8.9823 4.07446 8.305C5.0312 7.56498 23.5104 2.09638 25.8913 2.55732C28.1906 3.00258 37.4506 11.1177 38.5422 13.4475C39.5617 15.6174 36.3182 31.3365 35.9637 31.835C35.5528 32.4151 14.9562 36.9524 14.0434 36.2877C11.5402 34.469 2.80717 25.7236 2.72874 24.9209Z" fill="white"/>
<path d="M5.37318 24.921C5.12537 21.4905 5.57394 17.8626 5.82489 14.4416C5.90017 13.4193 5.98173 12.4002 6.09466 11.3811C6.11661 11.1711 6.14171 10.9641 6.1668 10.7572C6.26091 9.97951 6.0727 11.2808 6.1919 10.5784C6.24836 10.2523 6.35815 9.90424 6.38325 9.575C6.38952 9.50601 6.45853 9.40567 6.44912 9.33982C6.49931 9.72238 5.58649 10.4592 5.44533 10.5627C5.62413 10.431 6.15739 10.2837 5.27594 10.6129C5.8688 10.3934 6.45853 10.1739 7.05767 9.97324C11.2391 8.56846 15.5084 7.37063 19.787 6.3045C20.7375 6.06933 21.688 5.84042 22.6447 5.6366C23.0933 5.5394 23.5418 5.44846 23.9904 5.3638C24.1723 5.32931 24.3543 5.30109 24.5362 5.2666C25.1542 5.15058 24.6774 5.23836 24.6899 5.23523C24.9409 5.21014 25.2546 5.23523 25.4961 5.17565C26.1047 5.01887 24.7589 5.29481 25.4428 5.17879C25.2106 5.21955 24.9597 4.94362 25.2797 5.10981C25.4679 5.20702 25.6529 5.30421 25.8349 5.41083C26.2929 5.67422 26.732 5.97211 27.1649 6.27313C29.0784 7.61206 30.857 9.16423 32.5666 10.7509C33.4449 11.5661 34.3075 12.4034 35.12 13.2876C35.4086 13.6043 35.7003 13.9242 35.9638 14.2628C35.6376 13.8426 35.8603 14.1562 35.9293 14.2283C36.3308 14.6548 35.9418 14.7833 36.0297 14.2377C36.0265 14.2597 36.0767 14.4259 36.0924 14.4604C36.2712 14.9088 36.0767 13.7862 36.0767 14.3506C36.0767 14.6799 36.0987 15.006 36.0924 15.3384C36.0736 16.3104 35.9732 17.2825 35.8634 18.2514C35.6281 20.3115 35.2047 22.7605 34.7812 25.0056C34.4518 26.7522 34.1193 28.505 33.6833 30.2296C33.6331 30.424 33.5359 30.6467 33.517 30.8505C33.4951 31.0951 33.1155 31.3741 33.6958 30.4742C33.1249 31.3616 34.9851 29.3203 34.5397 29.615C34.7059 29.5053 35.236 29.3893 34.64 29.5492C34.3546 29.6245 34.0723 29.7217 33.7868 29.8032C29.9034 30.8944 25.929 31.7065 21.9765 32.4999C20.8034 32.735 19.6302 32.9608 18.4539 33.174C17.9394 33.265 17.425 33.3559 16.9105 33.4374C16.716 33.4688 16.5216 33.5001 16.3271 33.5315C16.2518 33.544 15.408 33.6632 15.8346 33.6068C16.1577 33.5629 15.248 33.6726 15.0629 33.6883C14.8716 33.7008 14.5391 33.6475 14.3634 33.7134C14.0999 33.8106 15.1445 33.8482 14.8245 33.7792C15.4048 34.074 15.546 34.121 15.248 33.9172C15.5178 34.1273 15.5742 34.168 15.4143 34.0395C15.11 33.6914 14.6614 33.4061 14.3132 33.0988C12.2962 31.3114 10.3702 29.4144 8.4818 27.4891C7.62544 26.6142 6.77535 25.7331 5.95977 24.8237C5.67118 24.5008 5.38573 24.1747 5.10968 23.8391C4.8901 23.5726 5.33554 24.3722 5.20065 23.9552C5.09714 23.6385 5.07518 23.3907 5.27594 24.2311C4.48859 20.9198 -0.615076 22.3215 0.175411 25.6359C0.583202 27.3479 2.53433 28.9346 3.70124 30.1544C5.60531 32.1455 7.56898 34.0865 9.59225 35.9522C10.9693 37.2222 12.4562 38.9687 14.4544 39.0095C16.1106 39.044 17.8328 38.6364 19.4577 38.351C24.1629 37.5263 28.8557 36.5198 33.4888 35.3564C34.6965 35.0523 36.1645 34.8234 37.2499 34.168C38.6866 33.3026 38.8748 31.324 39.1947 29.8314C40.2079 25.1248 41.2839 20.1798 41.378 15.3509C41.4188 13.181 40.7789 11.7982 39.3924 10.1676C37.6577 8.12633 35.6062 6.32017 33.5578 4.60496C31.7729 3.11552 29.9002 1.48184 27.7797 0.478429C26.0137 -0.358794 24.3261 -0.0546397 22.469 0.296555C17.6979 1.19336 12.9895 2.59186 8.35319 4.01859C6.59028 4.56106 4.49486 5.00947 2.87938 5.94703C1.05059 7.01002 1.01923 9.40254 0.809056 11.262C0.501644 14.0214 0.354212 16.8027 0.225601 19.5778C0.144043 21.3337 -0.0535791 23.1712 0.0718951 24.9303C0.32598 28.2981 5.62099 28.3232 5.37318 24.921Z" fill="white"/>
<path d="M24.4677 15.6018C26.7482 15.6018 27.6265 17.4612 27.6265 18.9005V27.533C27.6265 30.1293 25.8008 32.7601 22.2907 32.7601H21.2367C17.4819 32.7601 15.7598 30.4084 15.7598 27.6709V11.494C15.7598 8.22982 17.4098 5.9502 21.1646 5.9502H22.1464C25.4809 5.9502 27.1309 8.01974 27.1309 10.2649V14.1939H22.3252V11.2808C22.3252 10.6129 22.184 10.2617 21.4814 10.2617C20.8132 10.2617 20.6031 10.754 20.6031 11.2808V17.9127C21.2712 17.1414 22.3942 15.5955 24.1822 15.5955H24.4677V15.6018ZM22.7487 26.9717V20.97C22.7487 20.023 22.4319 19.6719 21.6947 19.6719C20.9575 19.6719 20.6062 20.092 20.6062 20.9355V26.9717C20.6062 27.6741 20.7474 28.3388 21.6947 28.3388C22.642 28.3388 22.7487 27.6396 22.7487 26.9717Z" fill="#111111"/>
</svg>
