<svg width="35" height="25" viewBox="0 0 35 25" fill="none" xmlns="http://www.w3.org/2000/svg">
<path d="M29.5612 18.0838V3.62996H25.8674V18.0838H29.5612ZM24.0178 18.0838V3.62996H20.324V18.0838H24.0178ZM18.4744 9.07491V3.62996H11.1198V9.07491H18.4744ZM14.9898 20.2783C15.0283 19.4973 14.7255 18.7328 14.164 18.1773C13.6025 17.6218 12.8264 17.3248 12.0282 17.3633C10.4097 17.3633 9.09956 18.6503 9.09956 20.2398C9.09956 21.8293 10.4097 23.1163 12.0282 23.1163C12.8154 23.1548 13.5805 22.8743 14.142 22.3298C14.7035 21.7963 15.0118 21.0483 14.9898 20.2783ZM9.27021 9.07491V3.62996H1.88267V9.07491H9.27021ZM7.21689 20.2783C7.17836 19.0078 7.66829 17.7813 8.5766 16.8793C9.4849 15.9773 10.7345 15.4878 12.0226 15.5153V13.8379C10.2611 13.7554 8.54357 14.4044 7.29396 15.6308C6.04435 16.8573 5.38377 18.5458 5.46634 20.2783C5.46634 20.7898 5.53791 21.2958 5.67553 21.7853H0V0H29.4896L33.1504 3.62996V14.4539H35V18.0838H33.1504V21.7798H16.5587C15.8926 23.6883 14.076 24.9752 12.0282 24.9972C10.74 25.0412 9.49041 24.5572 8.5766 23.6608C7.66279 22.7698 7.17285 21.5433 7.21689 20.2783Z" fill="#FFC64F"/>
</svg>
