<svg width="26" height="25" fill="none" xmlns="http://www.w3.org/2000/svg"><path d="M18.638 15.1c-1.385-1.267-1.2-1.067.472-3.258 1.014-1.334 1.419-2.15 1.292-2.5-.118-.334-.87-.242-.87-.242l-2.482.017s-.185-.025-.32.058c-.135.075-.22.267-.22.267s-.388 1.033-.912 1.908c-1.106 1.85-1.545 1.95-1.73 1.833-.423-.266-.313-1.075-.313-1.65 0-1.8.279-2.541-.54-2.741-.27-.067-.473-.109-1.157-.117-.886-.008-1.638 0-2.06.208-.279.142-.498.442-.371.459.16.025.54.1.734.366.253.342.245 1.109.245 1.109s.152 2.108-.338 2.375c-.338.183-.793-.184-1.781-1.867-.507-.858-.887-1.808-.887-1.808s-.076-.175-.202-.275c-.16-.117-.38-.159-.38-.159l-2.356.009s-.354 0-.481.15c-.118.133-.009.391-.009.391S5.822 13.85 7.907 16c1.916 1.967 4.095 1.75 4.095 1.75h.987s.296.058.448-.1c.144-.15.135-.333.135-.333s-.017-1.309.6-1.5c.607-.192 1.384 1.266 2.212 1.816.624.425 1.097.334 1.097.334l2.204-.034s1.156-.066.608-.966c-.06-.067-.338-.65-1.655-1.867zm6.594-2.6c0 6.833-5.615 12.375-12.538 12.375S.156 19.333.156 12.5 5.771.125 12.694.125 25.232 5.667 25.232 12.5z" fill="#fff"/></svg>