<svg width="26" height="25" fill="none" xmlns="http://www.w3.org/2000/svg"><path d="M13.4 14.675c-1.216 0-2.204-.975-2.204-2.175 0-1.2.98-2.175 2.204-2.175 1.207 0 2.203.975 2.203 2.175 0 1.2-.987 2.175-2.203 2.175zm0-5.5c-1.858 0-3.36 1.483-3.36 3.325 0 1.833 1.51 3.325 3.36 3.325 1.857 0 3.368-1.492 3.368-3.325 0-1.833-1.51-3.325-3.368-3.325zm3.706-1.208a.77.77 0 00-.776.766.77.77 0 00.776.767.77.77 0 00.777-.767.77.77 0 00-.777-.766z" fill="#fff"/><path d="M19.876 15.217c0 2.016-1.672 3.666-3.732 3.666h-5.488c-2.06 0-3.732-1.65-3.732-3.658V9.767c0-2.017 1.672-3.667 3.732-3.667h5.488c2.06 0 3.732 1.65 3.732 3.667v5.45zM13.4.125C6.477.125.862 5.667.862 12.5S6.477 24.875 13.4 24.875 25.938 19.333 25.938 12.5 20.323.125 13.4.125z" fill="#fff"/></svg>