<svg width="41" height="39" fill="none" xmlns="http://www.w3.org/2000/svg"><path fill="#E5E5E5" d="M0 0h41v39H0z"/><path fill="#fff" d="M-64-2783h1440v835H-64z"/><mask id="a" style="mask-type:alpha" maskUnits="userSpaceOnUse" x="-93" y="-301" width="1440" height="835"><path fill="#FEF2D9" d="M-93-301h1440v835H-93z"/></mask><g mask="url(#a)"><path fill="#FEF2D9" d="M-93-301h1440v835H-93z"/></g><path d="M2.297 25.102c-.088-.887.474-15.938 1.346-16.615.957-.74 19.436-6.209 21.817-5.748 2.299.445 11.559 8.56 12.65 10.89 1.02 2.17-2.224 17.89-2.578 18.388-.41.58-21.007 5.117-21.92 4.452-2.504-1.818-11.236-10.564-11.315-11.367z" fill="#fff"/><path d="M4.942 25.103c-.248-3.43.2-7.059.451-10.48.076-1.022.157-2.041.27-3.06.022-.21.047-.417.072-.624.094-.778-.094.523.025-.179.057-.326.167-.674.192-1.003.006-.07.075-.17.065-.236.05.383-.862 1.12-1.003 1.223.178-.131.712-.279-.17.05.593-.219 1.183-.439 1.782-.64 4.181-1.404 8.45-2.602 12.73-3.668.95-.235 1.9-.464 2.857-.668.449-.097.897-.188 1.346-.273.182-.034.364-.062.546-.097.617-.116.14-.028.153-.031.251-.025.565 0 .806-.06.609-.156-.737.12-.053.003-.232.041-.483-.235-.163-.069.188.098.373.195.555.301.458.264.897.562 1.33.863 1.914 1.339 3.692 2.89 5.402 4.477a45.286 45.286 0 012.553 2.537c.289.317.58.637.844.976-.326-.42-.103-.107-.034-.035.401.426.012.555.1.01-.003.021.047.188.063.222.179.448-.016-.674-.016-.11 0 .33.022.656.016.988-.02.972-.12 1.944-.23 2.913-.234 2.06-.658 4.51-1.081 6.754-.33 1.747-.662 3.5-1.098 5.224-.05.195-.148.417-.167.621-.022.245-.401.524.18-.376-.572.887 1.288-1.154.843-.86.166-.11.696-.225.1-.065-.285.075-.567.172-.853.254-3.883 1.091-7.858 1.903-11.81 2.697-1.173.235-2.347.46-3.523.674-.514.09-1.029.181-1.543.263l-.584.094c-.075.013-.919.132-.492.075.323-.043-.587.066-.772.082-.191.013-.524-.04-.7.025-.263.097.782.135.462.066.58.295.721.342.423.138.27.21.327.25.167.122-.305-.348-.753-.633-1.101-.94-2.017-1.788-3.943-3.685-5.832-5.61a84.271 84.271 0 01-2.522-2.666 31.94 31.94 0 01-.85-.984c-.22-.267.226.533.091.116-.104-.317-.125-.565.075.276-.787-3.311-5.89-1.91-5.1 1.404.408 1.713 2.359 3.3 3.526 4.519a131.684 131.684 0 005.89 5.798c1.378 1.27 2.865 3.016 4.863 3.057 1.656.035 3.378-.373 5.003-.658a198.205 198.205 0 0014.031-2.995c1.208-.304 2.676-.533 3.761-1.188 1.437-.866 1.625-2.844 1.945-4.337 1.013-4.707 2.09-9.652 2.183-14.48.041-2.17-.599-3.553-1.985-5.184-1.735-2.041-3.786-3.847-5.835-5.562-1.785-1.49-3.657-3.124-5.778-4.127-1.766-.837-3.454-.533-5.31-.182-4.772.897-9.48 2.296-14.116 3.722-1.763.543-3.859.991-5.474 1.929C.619 7.192.588 9.584.378 11.444c-.308 2.759-.455 5.54-.584 8.315-.082 1.756-.28 3.594-.154 5.353.254 3.368 5.55 3.393 5.302-.01z" fill="#fff"/><path d="M18.543 11.4v4.035h-4.389V10.84c0-2.421 1.23-4.876 4.775-4.876h.947c3.369 0 5.301 1.649 5.301 5.017v1.473c0 2.807-.069 4.212-2.28 7.09-.806 1.088-1.72 2.245-2.563 3.333-2.983 3.93-2.739 4.422-2.739 4.983h3.266v-4.456h4.564v8.984H13.593v-2.665c0-3.193.351-4.563 3.159-9.229l2.246-3.719c1.23-2.07 1.298-2.84 1.298-3.79V11.4c0-.806-.282-1.192-.878-1.192-.665 0-.875.351-.875 1.192z" fill="#111"/></svg>