<svg width="1440" height="835" fill="none" xmlns="http://www.w3.org/2000/svg"><path fill="#FEF2D9" d="M0 0h1440v835H0z"/><path opacity=".35" d="M1287.19 422.204c-12.36-41.658 46.81-308.968 21.68-344.882-49.04-70.101-110.71-123.617-196.44-142.909-40.76-9.174-299.413-197.782-351.738-205.282-46.166-6.612-535.864-107.289-539.588-108.126-7.878-1.794 435.164 491.349 382.424 631.008-27.802 73.63-54.564 117.293-74.345 193.681-20.535 79.291 37.527 137.082 32.74 198.551-8.217 105.48 41.236 158.476 174.118 208.306 114.488 42.932 132.513 33.396 200.888 19.344 136.061-27.953 136.591 94.601 182.331 91.963 105.75-6.099 142.43 125.682 170.15 77.652 27.78-48.124-14-373.616-.15-427.6 16.15-62.985 16.42-129.369-2.07-191.706z" fill="#008C4C"/><path opacity=".7" d="M1337.28 394.643c-12.36-41.658 46.81-308.968 21.68-344.882-49.05-70.101-110.71-123.617-196.44-142.909-40.77-9.174-406.479-70.576-458.804-78.069-46.166-6.619-426.156-197.247-429.872-198.091-7.878-1.794-13.75 7.267-8.813 13.66.038.053.083.113.129.166 10.177 13.147 426.886 440.539 388.462 579.942-20.912 75.876-54.564 117.293-74.345 193.681-20.535 79.291 37.527 137.081 32.74 198.551-8.217 105.48 41.236 158.476 174.118 208.306 114.488 42.932 132.513 33.395 200.888 19.344 136.067-27.953 136.587 94.601 182.337 91.963 105.74-6.099 142.42 125.685 170.14 77.655 27.78-48.127-14-373.62-.15-427.603 16.16-62.993 16.42-129.377-2.07-191.714z" fill="#008C4C"/><path d="M1549.66 398.043c-12.37-41.658-80.5-647.465-75-603.983-9.28-73.41 148.56-131.977-747.891-56.185-90.908 7.69-446.532-120.85-441.595-114.465.038.052 422.779 431.96 388.591 580.108-17.7 76.69-54.564 117.292-74.345 193.681-20.535 79.29 37.527 137.081 32.74 198.551-8.217 105.479 41.236 158.475 174.118 208.305 114.488 42.932 132.513 33.396 200.892 19.344 136.06-27.953 379.87 134.353 425.62 131.714 105.74-6.099 46.49-6.031 74.2-54.066 27.78-48.127 59.03-191.163 72.88-245.147 16.16-62.985-32.13-141.725-50.62-204.069" fill="#008C4C"/><path d="M973.092 433.844c7.893-18.153 9.717-29.981 17.617-48.134.317-.731.679-1.47 1.259-.875.626.641-.263 3.634.355 5.473 5.91 17.55 12.237 37.882 32.617 85.752-1.42 1.809-29.549 13.177-31.14 13.147-6.656-15.236-15.182-33.087-20.324-54.089" fill="#193222"/><path d="M1148.79 158.467l.68-2.118-3.35-1.07-.68 2.118-2.85-.905 1.68-5.292.51.159c.18-.174.49-.822.92-1.93.42-1.116 1.51-4.38 3.3-9.785l7.33 2.337-3.78 11.858.77.241-1.68 5.292-2.85-.905zm-.06-8.247c-.37.935-.72 1.666-1.04 2.186l1.62.513 2.82-8.85-1.17-.37c-1.41 4.116-2.14 6.295-2.23 6.521zm6.27 4.184l1.35-4.131c.39-1.168.97-1.96 1.75-2.375.78-.414 1.72-.444 2.82-.083l.63.204c1.11.362 1.87.942 2.26 1.726.39.792.39 1.764.01 2.94l-1.34 4.132c-.37 1.13-.97 1.914-1.78 2.352-.83.437-1.76.482-2.82.143l-.65-.211c-2.27-.739-3.01-2.307-2.23-4.697zm4.72-3.437l-1.56 4.794c-.15.46-.07.739.24.837.32.105.56-.068.71-.528l1.56-4.794c.15-.46.06-.739-.27-.845-.31-.105-.54.076-.68.536zm6.97-1.026l3.2 1.063-.45 1.327c.51-.377.97-.633 1.39-.769.41-.136.84-.121 1.3.03l.06.023c.64.211 1.04.61 1.2 1.183.16.573.11 1.267-.16 2.066l-2 5.993c-.25.754-.66 1.304-1.21 1.651-.55.347-1.12.43-1.69.241l-.06-.022c-.78-.257-1.32-.898-1.63-1.923l-1.59 4.81-3.22-1.071 4.86-14.602zm2.26 3.95l-1.72 5.194c-.15.43-.08.694.21.784.29.098.51-.06.64-.474l1.74-5.21c.13-.399.05-.655-.24-.753-.29-.098-.49.06-.63.459zm4.35 6.544l1.4-4.116c.39-1.161.98-1.953 1.77-2.352.78-.407 1.72-.422 2.82-.046l.63.212c1.11.377 1.85.964 2.24 1.756.38.792.37 1.772-.02 2.94l-1.4 4.116c-.38 1.123-.99 1.9-1.81 2.33-.82.429-1.76.459-2.82.105l-.64-.218c-2.26-.769-2.98-2.345-2.17-4.727zm4.75-3.377l-1.62 4.779c-.16.452-.08.731.23.837.32.105.55-.061.71-.52l1.62-4.78c.15-.452.07-.739-.25-.844-.3-.098-.53.075-.69.528zm6.43 10.946l-3.2-1.109 3.73-10.78 5.27 1.825-.94 2.706-2.06-.716-2.8 8.074zm4.28-.671l.75-2.119c.37-1.055 1.09-1.658 2.17-1.824.22-.03.68-.068 1.36-.113.7-.045 1.11-.083 1.23-.098.18-.015.29-.121.37-.324l.19-.558c.11-.317.05-.528-.21-.611l-.06-.022c-.26-.091-.46.022-.57.339l-.35 1.002-2.84-1.002.43-1.221c.26-.747.72-1.252 1.37-1.508.66-.256 1.49-.204 2.52.158l.43.159c1.14.399 1.9.904 2.27 1.507.38.603.42 1.335.12 2.186l-1.95 5.541c-.05.159.02.279.22.347l.28.098-.92 2.623-2.82-.995c-.55-.196-.68-.693-.39-1.507-.86.701-1.71.904-2.53.618l-.09-.03c-.53-.189-.88-.536-1.04-1.041-.16-.512-.13-1.04.06-1.605zm4.1.55l.87-2.458c-.31.061-.54.136-.71.227-.22.15-.38.384-.5.701l-.44 1.259c-.12.346-.06.565.2.655.27.083.46-.037.58-.384zm8.75 2.405l1.49-4.086c.42-1.154 1.03-1.922 1.83-2.314.79-.385 1.73-.385 2.82.015l.62.226c1.1.399 1.83 1.002 2.19 1.809.37.799.34 1.779-.09 2.933l-1.49 4.085c-.41 1.116-1.02 1.878-1.86 2.292-.84.407-1.78.422-2.83.038l-.64-.234c-2.22-.814-2.9-2.405-2.04-4.764zm4.83-3.272l-1.73 4.742c-.17.452-.1.731.21.844.31.113.56-.053.72-.505l1.74-4.742c.16-.452.09-.738-.24-.852-.3-.113-.53.061-.7.513zm4.34 10.426l3.07-7.968-1.56-.603 1.03-2.669 6.31 2.435-1.03 2.669-1.56-.604-3.08 7.969-3.18-1.229zm13.9 5.669l2.55-5.827-1.11-.483-2.54 5.828-3.21-1.403 6.32-14.459 3.2 1.403-2.29 5.246 1.11.483 2.29-5.247 3.2 1.402-6.31 14.459-3.21-1.402zm6.39-1.025l1.93-3.898c.54-1.1 1.24-1.801 2.06-2.103.84-.294 1.78-.188 2.81.324l.59.294c1.04.52 1.71 1.199 1.98 2.036.27.836.14 1.801-.41 2.909l-1.93 3.898c-.53 1.063-1.23 1.756-2.1 2.073-.88.317-1.81.226-2.81-.264l-.61-.301c-2.12-1.063-2.63-2.714-1.51-4.968zm5.16-2.729l-2.24 4.523c-.21.43-.18.716.12.859.3.151.56.008.77-.422l2.24-4.523c.21-.43.17-.724-.13-.875-.3-.135-.55.008-.76.438zm5.91 12.506l-4.2-2.389 5.63-9.921 4.05 2.307c.95.535 1.52 1.055 1.71 1.552.19.498.07 1.116-.35 1.855l-.48.844c-.52.912-1.18 1.289-1.97 1.146.29.354.45.716.51 1.063.05.354-.1.822-.42 1.395l-.68 1.198c-.47.837-.99 1.335-1.54 1.501-.56.165-1.32-.008-2.26-.551zm-.12-2.699l.26.144c.35.196.63.083.87-.332l.59-1.033c.23-.407.17-.708-.17-.904l-.26-.144-1.29 2.269zm2.37-4.168l.26.143c.27.158.53.045.76-.347l.37-.663c.2-.347.15-.596-.12-.754l-.26-.143-1.01 1.764zm3.58 6.166l2.4-3.626c.68-1.025 1.45-1.636 2.32-1.824.87-.189 1.78.037 2.74.678l.55.362c.98.648 1.55 1.402 1.71 2.269.17.867-.09 1.809-.76 2.835l-2.41 3.626c-.66.987-1.44 1.583-2.34 1.794-.91.203-1.83 0-2.76-.618l-.57-.377c-1.98-1.312-2.27-3.016-.88-5.119zm5.46-2.05l-2.79 4.206c-.27.4-.27.694.01.867.28.189.55.083.82-.317l2.79-4.206c.26-.4.25-.694-.03-.882-.27-.181-.54-.068-.8.332zm7.41 1.266l2.65 2.073-.86 1.101c.61-.189 1.13-.271 1.56-.256.43.015.84.165 1.22.459l.05.038c.54.415.78.927.74 1.515-.05.596-.33 1.229-.85 1.893l-3.89 4.975c-.49.626-1.06 1.01-1.7 1.153-.64.144-1.2.031-1.68-.346l-.05-.038c-.65-.505-.95-1.289-.88-2.352l-3.12 3.988-2.67-2.088 9.48-12.115zm.81 4.478l-3.37 4.312c-.28.354-.31.626-.07.807.24.188.5.113.77-.234l3.38-4.327c.27-.332.27-.596.02-.792-.23-.173-.48-.098-.73.234zm1.83 7.674l2.94-3.204c.83-.904 1.69-1.387 2.58-1.439.88-.053 1.74.309 2.6 1.093l.49.444c.86.792 1.31 1.629 1.34 2.511.03.882-.37 1.771-1.21 2.676l-2.94 3.204c-.8.874-1.66 1.342-2.59 1.402-.93.06-1.8-.286-2.62-1.04l-.5-.46c-1.76-1.606-1.78-3.332-.09-5.187zm5.72-1.183l-3.41 3.716c-.32.355-.37.641-.13.86.25.226.54.166.86-.189l3.41-3.716c.32-.355.36-.649.11-.875-.24-.218-.52-.15-.84.204zm5.35 9.732l2.1 2.239-1.66 1.568c-.67.626-1.4.935-2.2.912-.79-.023-1.54-.407-2.25-1.161l-.44-.46c-.75-.806-1.12-1.621-1.1-2.45.01-.829.4-1.605 1.18-2.329l3.71-3.483c.77-.724 1.57-1.101 2.41-1.131.84-.03 1.66.385 2.46 1.237l.48.512c1.46 1.546 1.44 3.008-.03 4.395l-1.25 1.176-2.09-2.224 1.21-1.131c.3-.278.34-.527.14-.746-.17-.188-.41-.143-.69.128l-4.1 3.845c-.28.264-.33.483-.16.671.2.204.43.181.7-.068l1.58-1.5zm5.99 6.92l1.93 2.383-1.77 1.447c-.72.58-1.47.829-2.26.754-.79-.076-1.51-.513-2.16-1.319l-.4-.498c-.7-.852-1-1.696-.93-2.525.08-.83.53-1.576 1.35-2.239l3.95-3.212c.82-.671 1.65-.987 2.49-.957.84.03 1.62.505 2.37 1.409l.44.543c1.33 1.644 1.22 3.106-.35 4.38l-1.33 1.086-1.92-2.367 1.28-1.041c.32-.256.38-.505.19-.731-.15-.196-.39-.173-.7.075l-4.35 3.544c-.3.241-.37.459-.21.655.18.219.41.211.7-.022l1.68-1.365zm3.4 13.298l-1.89-2.713 4.4-3.069-5.14 2.006-1.89-2.714 9.36-6.521 1.9 2.714-4.42 3.076 5.16-2.013 1.89 2.714-9.37 6.52zm4.87 8.172l-1.67-2.849 4.63-2.714-5.28 1.598-1.67-2.849 9.84-5.775 1.67 2.85-4.64 2.728 5.3-1.613 1.67 2.85-9.85 5.774zm8.26-9.347l-.05-.076c-.4-.693-.54-1.349-.39-1.967.14-.619.57-1.131 1.26-1.538l.22-.128 1.06 1.809-.13.075c-.43.249-.55.52-.38.814l.01.015c.18.302.48.332.9.083l.13-.075 1.04 1.772-.22.128c-.68.399-1.33.512-1.95.331-.61-.165-1.11-.58-1.5-1.243zm-1.07 12.295l1.35 2.759-2.06 1.01c-.83.407-1.61.483-2.37.226-.75-.256-1.35-.844-1.81-1.771l-.28-.573c-.48-.988-.59-1.877-.33-2.669.25-.791.86-1.417 1.81-1.884l4.57-2.239c.95-.468 1.83-.588 2.64-.37.81.219 1.47.852 1.98 1.907l.31.626c.94 1.907.49 3.302-1.32 4.192l-1.54.753-1.35-2.744 1.49-.731c.37-.181.49-.407.35-.671-.11-.226-.34-.256-.7-.083l-5.04 2.473c-.34.166-.46.369-.35.596.12.256.36.301.68.135l1.97-.942zm-.86 10.773l3.46-2.827-3.96 1.583-1.26-3.151 10.59-4.237 1.26 3.151-3.87 1.553 4.35-.369 1.19 2.97-5.59.347-4.93 4.055-1.24-3.075zm3.46 3.317l2.14-.671c1.06-.332 1.98-.121 2.76.64.15.159.46.498.91 1.026.45.527.73.829.82.919.11.128.27.159.47.098l.57-.181c.32-.098.44-.279.36-.535l-.02-.06c-.09-.272-.29-.354-.62-.249l-1.01.317-.9-2.873 1.24-.384c.75-.241 1.43-.173 2.02.196.6.369 1.06 1.07 1.39 2.111l.14.445c.37 1.145.42 2.05.16 2.721-.25.663-.81 1.138-1.68 1.41l-5.6 1.764c-.16.053-.21.181-.15.377l.09.286-2.65.837-.89-2.85c-.18-.55.15-.957.97-1.213-1.08-.272-1.75-.822-2.01-1.659l-.03-.083c-.16-.543-.09-1.025.22-1.455.3-.444.73-.754 1.3-.934zm2.03 3.61l2.48-.784c-.22-.211-.42-.354-.6-.429-.25-.083-.53-.076-.86.022l-1.27.4c-.36.113-.48.294-.41.55.08.272.3.355.66.241z" fill="#fff"/><path d="M1342.57 483.538c-.06-9.431-.19-18.854-.31-28.277-.06-4.667-.12-9.341-.19-14.007-.06-4.35.06-8.737-.31-13.072-.39-4.523-1.26-9.219-3.84-13.057-2.4-3.573-5.77-6.347-9.68-8.134-3.66-1.673-7.39-2.729-11.27-3.716-4.1-1.048-8.15-2.284-12.13-3.732-.98-.354-1.96-.723-2.93-1.1-.45-.174-.9-.355-1.34-.536-.3-.12-.6-.241-.89-.362-.08-.03-.14-.052-.19-.075-1.95-.837-3.88-1.711-5.78-2.638-3.73-1.81-7.32-3.868-10.9-5.933-1.78-1.025-3.62-2.088-5.48-3.099a128.1 128.1 0 01-8.83-8.616c-1.52-1.621-2.9-3.385-4.45-4.968-1.49-1.53-2.85-3.038-4.12-4.757-2.66-3.611-4.73-7.629-6.72-11.64-.52-1.055-1.9-1.605-3.01-1.439-1.26.188-2.05.995-2.51 2.156-9.15 23.294-21.18 47.432-41.79 62.66-9.77 7.23-20.91 12.575-32.98 14.452-6.15.95-12.7.656-18.72-.845-6.36-1.583-11.85-4.794-16.54-9.34a42.825 42.825 0 01-3.1-3.362c-5.31-8.277-9.21-17.603-11.55-27.358-3.16-13.207-4.09-26.618-3.98-40.339.12-14.33 1.75-28.586 3.73-42.766 1.83-13.064 3.28-26.181 5.53-39.178.45-2.307.93-4.606 1.54-6.875.09-.369.11-.754.05-1.116a430.088 430.088 0 0118.69 7.2c2.27.934 4.55 1.869 6.97 2.337 1.67.316 3.44.61 4.94-.219 2.4-.784 3.17-4.191 3.14-6.551-.03-2.246-.29-4.5-.45-6.739-.14-1.93-.3-3.868-.65-5.775-.66-3.649-2.16-7.109-5.08-9.506a15.251 15.251 0 00-4.09-2.397c-2.09-1.501-4.99-2.224-7.18-3.038-7.83-2.918-15.66-5.85-23.51-8.7-3.95-1.432-7.93-2.782-12.01-3.784-3.84-.943-7.74-1.561-11.65-.649-6.69 1.561-12.05 6.702-16.49 11.663-.41.459-.83.934-1.2 1.439-.93.95-1.78 1.976-2.28 3.219-1.48 3.679 2.17 6.167 5.1 7.456 3.87 1.704 8.19 2.45 12.26 3.543 3.05.822 6.08 1.674 9.11 2.563-.08 1.289-.11 2.586-.14 3.883-.08 3.083-.17 6.159-.19 9.249-.03 6.167-.07 12.326-.01 18.493.12 12.242.37 24.477.58 36.72.21 12.084.55 24.176.38 36.26-.08 6.039-.3 12.07-.79 18.086-.31 3.814-.68 7.229-1.18 10.704-.09.475-.18.943-.28 1.417-1.33 6.446-3.08 12.869-5.68 18.922-2.32 5.413-5.3 10.615-9.1 15.123a49.578 49.578 0 01-6.19 6.181c-2.08 1.727-4.35 2.993-7.05 1.998-.85-.317-1.65-.724-2.43-1.191-.25-.226-.53-.445-.8-.656l-.19-.166c-9.51-13.124-21.32-24.5-34.85-33.471a128.735 128.735 0 00-5.65-3.528c-2.9-1.711-7.19-.754-8.81 2.314-1.64 3.099-.79 6.989 2.31 8.813 3.7 2.186 7.3 4.553 10.76 7.101.39.287.78.581 1.17.875l.28.211c.81.686 1.68 1.319 2.5 1.997 1.66 1.365 3.29 2.775 4.88 4.222 1.53 1.395 3.02 2.827 4.48 4.29a60.583 60.583 0 00-7.42-4.064 77.93 77.93 0 00-6.5-2.646 5.289 5.289 0 00-2.35-.241c-6.12-3.091-12.8-5.013-19.69-5.232-11.95-.377-23.133 5.172-30.905 14.12-2.985 3.438-5.518 7.229-7.629 11.24-3.415 2.488-6.287 5.729-8.662 9.34a57.25 57.25 0 01.762-15.514 52.994 52.994 0 015.563-15.605c.075-.136-.128-.264-.211-.128-6.008 9.928-8.451 21.62-7.644 33.109a31.14 31.14 0 00-.52-.512c-1.093-1.063-2.759-.762-3.566.46a35.736 35.736 0 00-1.568 2.623c-.596-2.096-2.141-3.898-4.395-4.41a7.137 7.137 0 00-4.787.603c-.008-.038-.008-.075-.015-.121-.226-2.322-3.89-2.344-3.656 0 .196 1.99.052 4.086.083 6.099v.106a48.683 48.683 0 00-.611 4.651 88.688 88.688 0 01-1.146-6.099c-.166-1.093-1.553-.912-1.967-.113-.49-.173-1.139.098-1.116.746.06 1.727.09 3.453.181 5.179.083 1.712.422 3.408.678 5.096v.023c.151 2.744.438 5.481.875 8.217.098.596.226 1.282.226 1.832 0 .935-.023 1.757.173 2.691.332 1.606.762 3.204 1.169 4.795.158.61.324 1.214.482 1.817a685.75 685.75 0 001.742 11.006c.573 3.43 1.379 6.996 1.862 10.576a24.365 24.365 0 01-.536 3.981c-.723 3.189-2.54 6.204-5.729 6.905-2.314.505-4.847-.233-7.071-.837-2.601-.701-5.172-1.56-7.704-2.495-4.999-1.847-9.891-3.965-14.904-5.789-5.051-1.84-10.177-3.197-15.326-4.712-10.366-3.061-20.912-5.481-31.579-7.177-2.903-.46-5.82-.867-8.752-1.213a215.96 215.96 0 00-38.515-4.976c-7.772-.294-15.582-.143-23.309.829-7.803.98-15.168 2.85-22.624 5.277-1.341.438-2.676.905-3.987 1.395 7.146-6.265 13.931-12.951 20.256-20.045 17.489-19.623 31.956-41.975 42.51-66.053 5.284-12.047 9.74-24.448 13.094-37.173 3.46-13.155 5.043-26.603 7.207-39.999 1.885-11.67 4.44-23.574 10.222-33.962a71.525 71.525 0 003.822 4.463c11.391 12.228 25.722 18.779 41.915 21.96 32.687 6.423 68.367-6.084 89.113-31.398 5.939-7.252 10.569-15.296 13.989-23.995 2.39-6.076 1.38-12.017-1.67-17.61-2.63-4.818-3.27-9.763-2.18-15.168.63-3.083 1.89-5.729 3.45-8.338 1.56-2.616-.28-7.516-3.29-8.601-2.48-.897-4.93-.603-7.24.58-1.415.724-2.154 1.938-2.365 3.604-.867 6.845-1.432 13.758-4.176 20.226-1.056 2.487-2.028 4.915-4.818 6.106-.934.399-1.696 1.432-2.314 2.329-6.031 8.722-13.464 15.944-22.344 21.794-18.741 12.341-39.043 14.904-63.415 9.559-4.297-1.492-11.232-4.078-18.288-6.287-5.617-1.756-11.346-3.174-17.083-4.5-1.93-.445-4.055-.332-6.053-.136-4.41.437-7.441 5.45-5.903 9.709 1.342 3.702 3.068 7.162 5.111 10.426-.181.294-.362.581-.543.867-3.543 5.699-6.136 11.987-8.104 18.387-4.025 13.109-5.51 26.799-7.892 40.256-2.239 12.672-5.413 25.209-9.574 37.384-8.255 24.153-20.784 46.972-36.261 67.334-7.704 10.132-16.268 19.653-25.405 28.511-7.727 7.486-15.982 14.316-24.553 20.776-3.837 2.141-7.652 4.342-11.481 6.491-6.054 3.4-12.175 6.694-18.515 9.521-.415.189-.837.37-1.251.55-.106.046-.392.166-.581.249-.686.279-1.372.558-2.058.83a112.029 112.029 0 01-4.809 1.756c-3.302 1.123-6.642 2.126-9.982 3.128-13.2 3.966-27.365 7.976-36.991 18.508-9.205 10.064-13.766 24.312-10.517 37.753a32.118 32.118 0 001.252 3.98 23.837 23.837 0 002.254 5.556c1.402 2.533 3.219 4.878 5.262 6.928 7.523 7.546 18.153 11.692 28.759 11.609 4.78-.037 10.102-.61 14.648-2.329a22.471 22.471 0 009.453-6.852c3.815-4.735 5.104-10.283 5.775-16.216.814-7.124.95-14.301 1.741-21.432.362-3.234 1.003-6.385 1.847-9.491.023-.053.038-.098.06-.151-.007.015.136-.324.249-.603.113-.256.377-.882.37-.859.278-.641.565-1.282.859-1.923.731-1.59 1.493-3.173 2.292-4.734a108.36 108.36 0 014.93-8.632 94.31 94.31 0 012.759-4.116 89.42 89.42 0 011.372-1.892l.535-.708.686-.875a90.215 90.215 0 016.604-7.38 74.474 74.474 0 019.567-8.044c4.726-2.684 9.453-5.352 14.232-7.915.385-.204.777-.407 1.161-.611a94.307 94.307 0 017.81-2.91c13.08-4.221 25.654-5.744 39.374-5.458 30.562.641 59.932 11.172 87.975 22.804 1.621.671 2.616 1.093 3.626 1.523.995.422 1.991.852 2.993 1.274.407.174.822.339 1.229.513.105.045.686.286.89.377a185.388 185.388 0 018.993 4.108c3 1.485 5.956 3.076 8.82 4.817a81.1 81.1 0 013.973 2.556c.724.49 1.432.995 2.141 1.508.279.203.558.414.837.625.105.076.181.136.233.174.016.015.106.083.317.256.286.219.565.437.852.656.03.023.09.068.181.143.339.272.678.55 1.01.829a87.133 87.133 0 011.779 1.538 59.543 59.543 0 013.566 3.468c2.601 2.744 4.244 4.945 6.347 7.765.626.844 1.259 1.688 1.893 2.54 2.374 4.282 4.779 8.556 7.515 12.605.408.603.83 1.213 1.252 1.817-1.734-.114-3.468-.189-5.187-.279a96.37 96.37 0 00-10.546.06c-3.687.218-7.373.663-11.014 1.281-3.717.634-7.305 1.621-10.961 2.496-7.162 1.718-14.18 4.033-21.033 6.739-13.268 5.24-26.468 11.512-37.979 20.023-10.049 7.44-18.764 16.411-26.076 26.55-4.086 5.669-7.719 11.685-10.644 18.025a89.134 89.134 0 00-3.717 9.491 110.48 110.48 0 00-1.545 5.104c-.483 1.719-.709 3.505-1.01 5.262-.076.429.49.58.648.181a273.61 273.61 0 013.151-7.765c.211.324.776.415 1.01 0 .407-.716.807-1.432 1.199-2.156-.061.234-.113.475-.174.709a88.213 88.213 0 00-1.055 4.191c-.128.573.143 1.01.535 1.236a60.045 60.045 0 00-.641 4.32c-.241 2.292-.474 4.583-.618 6.89-.015.257.407.317.453.061.799-4.576 2.208-9.001 3.799-13.359 1.598-4.387 3.347-8.647 5.473-12.808 4.267-8.36 9.544-16.034 15.952-22.894 13.742-14.708 31.586-24.742 50.681-30.758 9.884-3.113 20.166-4.99 30.456-6.053 11.097-1.146 22.48-1.583 33.472.625 10.832 2.179 21.243 6.046 32.114 8.044 11.399 2.096 22.779 1.809 34.189-.008 5.15-.595 10.29-1.47 15.25-2.811 15.88-4.282 31.16-13.14 40.13-27.298 4.9-7.749 7.31-16.795 9.08-25.706 1.86-9.34 2.96-18.99 2.78-28.519-.04-1.952-.1-3.897-.21-5.842-.04-3.905-.29-7.802-.65-11.632-.83-8.601-2.52-17.052-3.65-25.608-.52-4.041-.83-8.135-.55-12.205.28-3.981 1.17-7.84 2.15-11.7l.06-.196c.36-1.071.75-2.141 1.15-3.204 1.63-4.342 3.41-8.685 5-13.08 2.79-5.646 5.05-11.564 6.85-17.564.74-2.45 1.39-4.923 1.97-7.403.21-.603.4-1.199.58-1.802 1.06-3.453 1.87-7.041 2.21-10.644 2.28 11.745 6.25 23.06 12.67 33.328 6.95 11.111 16.07 20.731 25.76 29.49 9.29 8.406 19.24 16.08 29.55 23.174 20.54 14.127 42.58 25.895 64.71 37.316 22.26 11.496 44.72 22.668 66.19 35.62 1.26.761 2.51 1.522 3.76 2.291 1.59.98 3.2 1.568 4.98 2.111.9.272 1.73.174 2.44-.158.11.083.22.173.33.249 3.69 2.593 8.25 1.568 12.02-.264 4.96-2.405 6.45-8.067 6.83-13.087.35-4.576.21-9.227.27-13.811.06-4.666-.02-9.34-.05-14.006l-.18-28.549zm-237-235.354s0-.008 0 0zM690.221 541.706a2.178 2.178 0 00-.12-.181l.859-.317c-.256.166-.497.332-.739.498zm16.171 8.933l-.023.045c-.083-.128-.181-.249-.271-.369.316-.385.641-.762.965-1.139-.226.49-.453.973-.671 1.463zm187.002-48.481a257.734 257.734 0 00-3.996-1.598c2.02.626 4.033 1.274 6.038 1.953-.678-.129-1.364-.242-2.042-.355zm-61.968 139.901c-.007-.008-.015-.007-.03-.015.113-.219.234-.43.347-.648-.105.218-.211.437-.317.663zm38.357-42.314c-5.813 3.988-11.361 8.33-16.495 13.125a120.142 120.142 0 018.519-7.494c4.025-3.211 8.285-6.098 12.695-8.722a136.528 136.528 0 00-4.719 3.091zm14.828-4.923c.641-.324 1.289-.64 1.937-.957.136-.023.264-.053.4-.083-.784.347-1.56.694-2.337 1.04zm61.251-14.368c.045-.045.09-.091.128-.143 1.606-.008 3.212.015 4.817.06-1.651-.008-3.302.022-4.945.083zm21.387 1.508c-.302-.061-.596-.114-.897-.174 1.063.166 2.118.347 3.181.528.339.143.701.271 1.071.369a101.666 101.666 0 00-3.355-.723zm3.973.866c.03.008.06.016.083.016.007 0 .007.007.015.007l-.098-.023zm7.945-66.15c-.279-.415-.558-.83-.829-1.244-.121-.325-.234-.649-.354-.973a84.965 84.965 0 002.42 3.965c-.422-.58-.83-1.16-1.237-1.748zm14.708 45.661l-.445-.046c-.022-.143-.037-.286-.06-.422l.543.453c-.015.007-.03.015-.038.015zm12.585-139.366v.249c-1.58.301-3.12.814-4.55 1.523a27.64 27.64 0 00-.7-.242c1.43-1.605 3.07-2.985 5.03-3.935.02.008.63-.248.64-.256.22-.068.44-.113.65-.181.1-.03.16-.053.21-.075.04 0 .1.007.19.007h.43c-1.07.49-1.82 1.561-1.9 2.91zm6.98 6.83c0-.007 0-.023-.01-.03.19.053.38.105.57.166.01.06.03.12.04.188-.2-.113-.4-.218-.6-.324zm4.92-8.782a17.99 17.99 0 00-.89-1.87c.78.136 1.55.286 2.31.46-.58.354-1.08.837-1.42 1.41zm3.48 23.55c-.15.045-.3.098-.43.158-.31-.309-.61-.633-.9-.957-.11-.294-.23-.588-.35-.89l.09-.233c.58.61 1.15 1.244 1.68 1.899l-.09.023zm12.27-12.876c-.14.061-.27.128-.39.211-1.74-1.56-3.58-3-5.51-4.319.62.165 1.23.346 1.84.557 1.22.43 2.13.837 3.58 1.629a35.27 35.27 0 012.88 1.771c-.83-.203-1.71-.158-2.4.151zm21.54 119.155c.08-.829.15-1.666.21-2.503.19-.249.37-.505.56-.761a22.39 22.39 0 01-.77 3.264zm58.94-236.576l-.03-2.11h.08v.241c0 .309.05.58.14.837-.06.339-.13.686-.19 1.032zm28.87 117.444a6.404 6.404 0 01-.25-.287c.1.068.22.136.32.211-.02.023-.05.046-.07.076zm17.64 17.384c.45.347.91.693 1.37 1.033 0 .052.01.105.01.165-.46-.407-.92-.806-1.38-1.198zm17.02-11.723c-.09-.166-.2-.324-.32-.475.3-.045.58-.098.87-.143-.19.204-.37.407-.55.618zm37.94 49.589c.04-.053.08-.113.12-.166.08.053.17.113.25.174.64.429 1.27.859 1.91 1.289-.77-.43-1.53-.86-2.28-1.297zm27.9-94.903c.14-.234.29-.475.42-.709.03.174.07.347.11.52a2.77 2.77 0 00-.53.189zm79.71 145.494c-.04-.022-.07-.037-.1-.06.13-.023.23-.038.31-.045.03.015.06.03.1.045-.07.03-.19.053-.31.06zm.05-3.008a39.58 39.58 0 01-.09-1.537c.1.15.23.279.38.369-.09.392-.19.776-.29 1.168zm.91 3.4c-.01-.007-.02-.015-.02-.022.02.022.05.037.07.06a.115.115 0 00-.05-.038zm.22.227c-.11-.204-.25-.4-.37-.596.1.098.23.301.4.626a.106.106 0 00-.03-.03zm.1.203c.01 0 .01 0 0 0 .03.038.04.068.06.098-.02-.03-.03-.068-.06-.098zm3.4-104.748c-.1 2.533-.21 5.066-.33 7.591a48.73 48.73 0 00-.24-1.726c.08-1.184.17-2.367.27-3.551.08-.814.15-1.621.24-2.435.03-.173.04-.354.06-.528.01.219.01.438 0 .649zM836.13 677.49c.015-.354-.083-.693-.354-.95-.528-.49-1.478-.55-2.119-.716-1.108-.286-2.216-.58-3.324-.851-1.877-.468-3.77-.913-5.654-1.342-1.041-.392-2.126-.649-2.774-.226a.455.455 0 00-.37.361c-.904 4.35-1.312 8.79-1.915 13.193a446.265 446.265 0 01-1.138 7.81c-.596 2.397-1.191 4.802-1.817 7.192-.158.618.294 1.07.867 1.138 4.425.52 8.866.671 13.313.445.362-.015.784-.264.86-.649a910.074 910.074 0 004.432-25.05 1.392 1.392 0 00-.007-.355zm-9.725-1.5c-.045-.022-.098-.045-.143-.068.053.015.105.038.158.061 0 0-.007.007-.015.007zm7.946 2.36a.475.475 0 00-.091-.121l.106.023c-.008.03-.008.068-.015.098zm7.184-1.938c-1.236-.203-2.767-.218-3.83.121-.716.226-.904.867-.957 1.538-.792 3.965-1.319 7.991-1.998 11.971-.346 2.058-.716 4.109-1.07 6.167-.355 2.125-.596 4.342-1.176 6.415-.128.452.158.98.625 1.1 1.41.347 2.888.619 4.23 1.199.633.271 1.568-.015 1.56-.829.294-.731.354-1.546.46-2.322.166-1.214.324-2.427.482-3.634.325-2.42.649-4.839.973-7.267.301-2.254.618-4.508.905-6.762.301-1.847.527-3.716.821-5.548.083-.505.46-1.508.03-1.953-.218-.211-.648-.226-1.055-.196zm-7.169 25.526l.022-.136c.031.045.061.098.098.143-.045-.007-.082-.007-.12-.007zM985.1 750.886c3.339-3.377 6.408-6.973 9.529-10.539.135-.151.218-.437.082-.618-.866-1.123-1.862-2.149-2.917-3.106-.113-.136-.241-.256-.369-.377-1.282-1.184-2.609-2.337-3.905-3.505-1.244-1.116-2.473-2.39-3.935-3.227-.242-.136-.604.158-.408.407.098.128.212.256.317.385-.505 0-1.101.218-1.455.52-2.284 1.945-4.221 4.5-6.227 6.717a153.206 153.206 0 01-6.211 6.483c-.4.392-.777.791-1.146 1.198a1675.143 1675.143 0 01-5.179 5.112c-.204.203-.181.512 0 .723 1.605 1.84 3.234 3.687 5.096 5.27a95.927 95.927 0 005.525 4.342c.249.181.604.075.815-.106 3.573-3.113 7.056-6.309 10.388-9.679zm3.347-10.253c-.008 0-.008 0 0 0l-.158-.135c.09.007.181.007.271.007a.917.917 0 01-.113.128zm.445-2.902c-.091-.068-.174-.128-.249-.196-.792-.648-1.726-1.176-2.405-1.93.89.701 1.787 1.402 2.654 2.126zm-11.504 12.838a26.973 26.973 0 00-2.36-2.08c-.603-.475-1.244-1.048-1.914-1.493.082-.083.158-.166.241-.249a575.583 575.583 0 003.769-3.731c1.915-1.923 4.214-3.996 5.759-6.325l.038-.038c1.395 1.546 2.895 2.955 4.493 4.312-3.46 3.083-6.8 6.287-10.026 9.604zm21.741-6.664a17.033 17.033 0 00-1.575-1.477 31.106 31.106 0 00-2.013-1.689c-.189-.143-.453-.015-.566.151-1.311 1.952-3.015 3.663-4.583 5.412-1.508 1.674-3.068 3.287-4.636 4.893-3.332 3.415-6.672 6.822-9.944 10.298-.286.301-.196.716.121.95a24.551 24.551 0 013.943 3.611c.165.188.527.188.693 0 3.098-3.513 6.385-6.876 9.469-10.411a688.934 688.934 0 009.159-10.69c.188-.226.181-.482.015-.686.045-.113.03-.241-.083-.362zm-14.874 16.766l-.022-.045c.324-.355.656-.701.995-1.048-.324.362-.648.731-.973 1.093zm11.029-18.839c.038-.053.076-.098.114-.143.015.015.03.03.052.045a.755.755 0 00-.166.098zm-128.178-61.424c-.046 0-.091.007-.144.007-1.206-.234-8.616-1.289-8.179.784a.83.83 0 00-.083.309 243.77 243.77 0 00-.384 10.26c-.392 5.586-.686 11.18-1.018 16.766-.015.302.279.596.58.581a67.219 67.219 0 018.896.203c.332.03.55-.294.58-.58.928-9.28.98-18.56.234-27.855-.03-.242-.211-.49-.482-.475zm-8.617 27.53c0-.03.008-.067.008-.098a.735.735 0 00.128.098c-.046-.007-.091 0-.136 0zm1.47-15.808c.008-1.379.015-2.751.03-4.131.023.716.038 1.425.061 2.141-.031.663-.053 1.327-.091 1.99zm3.219 13.464a.698.698 0 00.181.098c0 .023.007.045.007.068-.075.007-.15.022-.226.03.015-.068.03-.136.038-.196zm.158 2.352c.068-.008.144-.015.211-.015.046.007.098.023.144.03-.113-.007-.234-.015-.355-.015zm2.91.173c-.053-.007-.113-.007-.166-.015a.41.41 0 00.181-.143c-.007.053-.007.106-.015.158zm.566-7.742v-.052c.007.022 0 .037 0 .052zm9.303-21.16c-.181.075-.362.143-.543.211a.739.739 0 00-.188 0c-1.644.181-3.295.362-4.938.535a1.11 1.11 0 00-.347.098c-.407.098-.731.384-.739.852-.037 4.093-.068 8.262.196 12.401v1.387c-.015 4.576-.12 9.144-.316 13.713-.015.414.346.693.723.723 2.94.249 5.858.242 8.805.144.423-.016.807-.355.8-.8-.257-9.672-1.146-19.313-2.503-28.887-.053-.445-.611-.521-.95-.377zm-5.232 28.141c-.06.023-.113.06-.158.091 0-.076.007-.151.007-.226.061.045.128.082.196.113-.015.015-.03.015-.045.022zm7.086-.03c0 .128.008.256.008.385h-.196c.083-.114.143-.242.188-.385zm6.898-12.303c-.505 5.578-.912 11.165-1.364 16.743-.023.309.286.588.58.581 2.97-.068 5.933.06 8.888.384.339.038.543-.301.581-.58 1.123-9.258 1.364-18.53.799-27.84-.015-.249-.204-.49-.475-.475-.046 0-.083 0-.128.007-1.169-.249-8.587-1.477-8.195.618a.758.758 0 00-.09.317c-.264 3.407-.468 6.83-.596 10.245zm-.151 16.155c0-.038.008-.075.008-.105.045.037.09.075.136.105h-.144zm8.481-7.44c0 .045-.007.098-.007.15 0-.052 0-.098.007-.15zm-.708 7.606l-.023.173c-.06-.007-.121-.015-.181-.015a.581.581 0 00.204-.158zm-2.556-.038l-.362-.022c.068 0 .143-.008.211-.015.053.015.098.03.151.037zm-.482-2.374c.052.045.113.075.173.105 0 .023 0 .045.007.068l-.226.023a9.85 9.85 0 00.046-.196zm-2.827-17.663c.007.716.007 1.424.015 2.141-.038.663-.083 1.319-.128 1.982.03-1.372.067-2.751.113-4.123zm16.448-8.504c-.233.098-.467.181-.693.264a.917.917 0 00-.196 0c-1.651.143-3.295.294-4.946.437a1.197 1.197 0 00-.354.091c-.415.09-.716.392-.731.852-.121 4.078-.234 8.232-.053 12.363-.007.475-.015.95-.03 1.417a332.776 332.776 0 01-.596 13.705c-.03.415.355.686.724.724 2.933.309 5.85.362 8.805.324a.814.814 0 00.799-.799c-.06-9.611-.739-19.216-1.892-28.759-.06-.355-.407-.8-.837-.619zm-5.97 28.089a.992.992 0 00-.151.083c0-.075.007-.151.007-.219.061.046.129.083.196.121-.015 0-.03.007-.052.015zm7.093.09v.408h-.203a1.15 1.15 0 00.203-.408zm5.082 3.385c0 .121.03.227.068.325.015.082.06.15.113.211.286.384.859.467 1.259.248 2.156.151 4.319.264 6.468.106a98.384 98.384 0 006.988-.792c.302-.045.475-.377.498-.648.354-4.727.588-9.453.588-14.187 0-4.75-.34-9.461-.618-14.196-.016-.301-.219-.475-.513-.512-1.357-.181-2.721-.211-4.101-.151-.045-.008-.091-.008-.136-.008-1.779-.075-3.633.166-5.42.249-1.756.083-3.611.03-5.322.475a.368.368 0 00-.121.06c-.256-.067-.543.076-.543.392 0 4.546.513 9.084.573 13.63.076 4.93.098 9.868.219 14.798zm11.157-24.515v.136h-.007c-.046.007-.099.007-.144.015.053-.053.106-.098.151-.151zm-1.719-2.254v.007c-1.131.098-2.276.415-3.392.347 1.131-.12 2.261-.256 3.392-.354zm1.214 3.347a189.347 189.347 0 00-.385 13.871c-1.703 0-3.52.09-5.216.415-.106-.083-.211-.159-.317-.242-.007-.226-.007-.437-.007-.648.022-1.643.052-3.294.052-4.945.008-2.639.174-5.624-.339-8.293v-.083c2.073.129 4.124.076 6.212-.075zm6.015 8.858c.023 4.636.046 9.265.151 13.901.008.43.377.641.762.58a24.81 24.81 0 015.337-.196c.256.015.505-.241.49-.49-.286-4.681-.286-9.378-.573-14.067a727.856 727.856 0 00-.988-14.044c-.022-.294-.211-.467-.474-.49a.357.357 0 00-.317-.196 17.432 17.432 0 00-2.088.045c-.867.038-1.727.091-2.586.204-.279.037-.452.233-.4.52.46 2.465.453 5.051.558 7.546.098 2.231.113 4.455.128 6.687zm5.594 7.388c-.015-.008-.038-.016-.053-.023a59.514 59.514 0 01-.03-1.644c.023.558.053 1.116.083 1.667zm-5.345-21.35a.862.862 0 00-.045.204l-.023-.196c.023 0 .046 0 .068-.008zm27.297 4.855c-.075-.347-.248-.641-.58-.822-.626-.339-1.568-.173-2.239-.18-1.146-.008-2.284-.023-3.43-.023-2.284 0-4.576.03-6.86.09-.136 0-.287.008-.452.015-.483.016-.988.091-1.275.438a.467.467 0 00-.233.429c.181 4.441.859 8.858 1.349 13.268.287 2.616.551 5.24.792 7.863.007 2.473.007 4.945-.015 7.41-.008.438.414.958.897.898 4.5-.581 8.918-1.508 13.26-2.835.354-.106.671-.46.648-.859a893.34 893.34 0 00-1.786-25.375.833.833 0 00-.076-.317zm-9.792.927c-.06-.007-.113-.022-.174-.03.061.008.129.015.189.015l-.015.015zm8.149.264h.121c0 .046.007.083.007.128a.738.738 0 00-.128-.128zm10.674 21.418c-.143-1.29-.294-2.579-.437-3.875-.271-2.428-.55-4.855-.822-7.283-.241-2.133-.459-4.274-.723-6.407-.159-1.855-.392-3.709-.543-5.541-.038-.475.075-1.576-.445-1.9-.271-.166-.761-.045-1.168.098-.513.075-1.033.211-1.523.324-.648.151-1.372.294-1.953.626-.58.332-.723.814-.701 1.357v.045c0 .038 0 .083.015.121.008.075.016.15.031.226.188 4.063.655 8.111.972 12.167.158 2.081.302 4.161.46 6.242.166 2.149.475 4.357.422 6.513-.015.483.422.89.89.89 1.447 0 2.947-.098 4.387.143.694.113 1.485-.414 1.297-1.183.098-.852-.068-1.727-.159-2.563zm-4.809 1.53a1.164 1.164 0 01-.015-.166l.158.136c-.053.015-.098.022-.143.03zm1.99-25.292v-.008a.979.979 0 01.045.219l-.045-.211zm-6.663 44.214a.83.83 0 00-.083-.31c.437-2.08-6.996-1.01-8.18-.784-.045 0-.09-.007-.143-.007-.271-.015-.46.234-.475.475-.746 9.295-.701 18.575.234 27.855.03.294.241.61.58.58a67.394 67.394 0 018.896-.203c.301.015.595-.279.58-.581-.339-5.586-.626-11.179-1.018-16.765a273.19 273.19 0 00-.391-10.26zm-8.127 18.816v.052c.007-.015 0-.037 0-.052zm.573 7.795c-.008-.053-.008-.106-.015-.159a.472.472 0 00.181.144c-.053 0-.106.007-.166.015zm2.548-.159c.045-.007.098-.022.143-.03.068.008.143.015.211.015-.113 0-.233.008-.354.015zm.332-2.201c0-.023.007-.045.007-.068.06-.03.121-.06.181-.098l.045.196c-.083-.015-.158-.022-.233-.03zm3.317-15.627c.022-.717.037-1.425.06-2.141.015 1.379.022 2.751.03 4.131-.038-.664-.06-1.327-.09-1.99zm1.424 17.798a.735.735 0 00.128-.098c0 .03.008.068.008.098h-.136zm-10.939-14.609c.264-4.139.241-8.308.196-12.401-.007-.46-.324-.754-.739-.852a.97.97 0 00-.346-.098c-1.644-.181-3.295-.362-4.938-.535a.747.747 0 00-.189 0 15.155 15.155 0 01-.542-.212c-.332-.143-.89-.075-.958.392-1.357 9.582-2.246 19.216-2.503 28.888-.015.437.377.784.8.799 2.947.098 5.864.098 8.805-.143.376-.03.738-.301.723-.724a346.57 346.57 0 01-.316-13.712c0-.475.007-.943.007-1.402zm-8.405 14.383c0-.128 0-.256.007-.384.038.15.106.279.189.384h-.196zm7.093-.347l-.045-.022c.068-.03.136-.068.196-.113 0 .075.008.15.008.226-.053-.03-.106-.068-.159-.091zm-36.034-36.17a.202.202 0 00-.12-.06c-1.712-.445-3.559-.392-5.323-.475-1.779-.083-3.641-.324-5.42-.249-.045 0-.09.008-.128.008-1.372-.061-2.744-.03-4.101.151-.286.037-.49.203-.513.512-.278 4.734-.625 9.446-.618 14.195.008 4.742.234 9.469.588 14.188.023.264.196.603.498.648 2.322.347 4.644.618 6.988.792 2.149.158 4.32.045 6.476-.106.399.211.972.136 1.251-.249a.439.439 0 00.113-.211c.038-.098.061-.203.068-.324.121-4.93.151-9.868.219-14.798.067-4.553.58-9.092.573-13.63-.008-.309-.294-.46-.551-.392zm-11.398 4.448h-.008v-.136c.053.053.098.098.151.143-.038 0-.09 0-.143-.007zm1.719-2.39c1.025.091 2.043.204 3.06.317-.957 0-1.884-.196-2.894-.287-.053-.007-.113-.007-.174-.015.008-.007.008-.015.008-.015zm5.005 3.475c-.527 2.684-.354 5.685-.346 8.331 0 1.651.03 3.294.052 4.945.008.301-.007.618-.015.942-1.786-.377-3.724-.475-5.525-.475a193.95 193.95 0 00-.385-13.871c2.088.151 4.146.204 6.227.083-.008.015-.008.03-.008.045zm-11.956-6.023a32.795 32.795 0 00-2.586-.203 15.91 15.91 0 00-2.088-.046.357.357 0 00-.316.196c-.257.023-.445.196-.475.49a731.473 731.473 0 00-.988 14.045c-.286 4.681-.286 9.385-.573 14.067-.015.256.241.512.49.49a24.746 24.746 0 015.337.196c.385.06.754-.151.762-.581.105-4.636.128-9.265.151-13.901.007-2.224.03-4.455.12-6.679.098-2.495.091-5.089.558-7.546.06-.287-.113-.49-.392-.528zm-5.82 22.118a.378.378 0 00-.052.023c.03-.558.052-1.108.082-1.666 0 .55-.015 1.101-.03 1.643zm5.33-21.123a.883.883 0 00-.045-.203c.022 0 .045 0 .068.007l-.023.196zm43.355 15.492c.49-4.41 1.168-8.828 1.349-13.268a.476.476 0 00-.226-.429c-.203-.249-.513-.347-.844-.393-.309-.052-.634-.06-.882-.067a296.06 296.06 0 00-6.86-.091c-1.056 0-2.111.015-3.167.023-.723.007-1.816-.189-2.502.181-.325.181-.505.475-.573.814a.983.983 0 00-.083.332 893.275 893.275 0 00-1.787 25.374c-.022.392.294.747.648.86a81.252 81.252 0 0013.261 2.834c.482.061.904-.46.897-.897a590.42 590.42 0 01-.015-7.41c.233-2.624.497-5.247.784-7.863zm-12.198-11.911c0-.045.008-.083.008-.128h.121a1.042 1.042 0 00-.129.128zm8.27-.392l-.015-.015a1.38 1.38 0 01.181-.015 1.206 1.206 0 01-.166.03zm-11.497 11.632c.309-4.048.777-8.096.965-12.152.015-.083.023-.166.03-.249.008-.038.015-.068.008-.105v-.03c.023-.543-.113-1.041-.701-1.373-.573-.324-1.319-.474-1.953-.625-.49-.113-1.002-.242-1.515-.324-.415-.144-.897-.272-1.168-.106-.528.317-.423 1.463-.46 1.907-.159 1.84-.392 3.694-.543 5.549-.264 2.133-.482 4.274-.724 6.407-.271 2.428-.55 4.855-.821 7.283-.136 1.213-.279 2.427-.415 3.641-.098.904-.294 1.877-.166 2.782-.181.769.603 1.296 1.297 1.183 1.44-.234 2.932-.143 4.387-.143.475 0 .905-.407.89-.89-.053-2.065.241-4.191.399-6.249.174-2.171.324-4.335.49-6.506zm-4.5-13.69l-.068.347a1.52 1.52 0 01.068-.377v.03zm1.99 25.277c-.023-.008-.045-.008-.068-.015.023-.023.053-.045.075-.068 0 .03-.007.06-.007.083z" fill="#FAC150"/><path d="M1100.03 246.186l4.76-14.987 5.04 1.598c.89.279 1.47.717 1.77 1.297.29.581.28 1.372-.03 2.367l-.53 1.651c-.2.633-.51 1.093-.94 1.387-.43.294-.82.445-1.18.445 1 .701 1.29 1.734.86 3.091l-.7 2.216c-.73 2.307-2.01 3.181-3.82 2.601l-5.23-1.666zm5.97-5.383l-.55-.173-1.25 3.95.61.189c.2.06.36.052.49-.03.12-.083.23-.287.33-.596l.75-2.375c.09-.279.11-.497.06-.633-.06-.143-.2-.256-.44-.332zm1.78-5.842l-.48-.151-1.02 3.227.46.15c.39.129.68-.06.84-.55l.56-1.771c.08-.242.1-.43.05-.573-.05-.151-.18-.257-.41-.332zm6.36 6.875l.59-7.478 3.37 1.07-.69 4.614 2.08-4.176 3.17 1.002-3.74 6.483-.71 8.602-3.35-1.063.72-5.337-2.54 4.764-3.24-1.025 4.34-7.456zm17.45 2.299l-2.25 7.109c-.41 1.289-1.06 2.186-1.94 2.691-.88.506-1.9.573-3.06.204l-.64-.204c-1.21-.384-2.02-1.032-2.45-1.937-.42-.912-.42-2.013-.01-3.317l2.25-7.109c.9-2.819 2.59-3.837 5.07-3.045l.65.203c2.49.777 3.28 2.586 2.38 5.405zm-5.77 6.242l2.44-7.674c.18-.565.07-.912-.34-1.04-.4-.128-.69.09-.88.656l-2.43 7.674c-.16.497-.03.814.39.942.39.121.66-.06.82-.558zm9.98 9.484l.67-2.118-3.34-1.063-.67 2.118-2.85-.905 1.68-5.277.5.159c.19-.174.5-.822.92-1.923.42-1.108 1.5-4.365 3.27-9.762l7.32 2.322-3.76 11.828.77.241-1.67 5.277-2.84-.897zm-.06-8.225c-.37.935-.71 1.659-1.03 2.179l1.61.513 2.8-8.828-1.17-.369a1499.32 1499.32 0 01-2.21 6.505zM904.701 426.742a250.429 250.429 0 019.137 21.417l-9.137-21.417zm-4.183 2.345a364.172 364.172 0 009.634 20.844l-9.634-20.844zM683.956 545.211c-8.058 2.586-11.119 8.202-12.265 12.454-1.236 4.598-.588 8.526-.558 8.692l.023.12 4.033 2.443-.136-.603c-.007-.038-.844-3.943.068-8.315 1.214-5.82 4.802-9.665 10.66-11.414 6.928-2.065 11.383-5.307 13.252-9.627 1.501-3.46 1.214-7.44-.814-11.503-3.633-7.26 9.529-15.666 9.665-15.756.444-.302 10.916-7.426 12.069-13.615.234-1.259.068-2.404-.505-3.407l.942.92c.038.037.882.882.739 2.661-.204 2.45-2.329 6.671-11.278 12.838-12.024 8.292-12.861 12.748-10.215 18.062.769 1.553 1.734 6.174-.211 10.569-1.801 4.056-5.525 6.906-11.074 8.459-8.609 2.412-11.602 7.983-12.597 12.235-1.07 4.591-.128 8.541-.09 8.707l.022.105 4.026 2.443-.136-.603c-.007-.038-.844-3.928.061-8.3 1.213-5.835 4.802-9.68 10.667-11.429 6.928-2.065 11.383-5.307 13.253-9.626 1.5-3.461 1.213-7.441-.815-11.504-3.633-7.26 9.529-15.665 9.665-15.756.445-.301 10.916-7.425 12.069-13.615.234-1.243.068-2.367-.475-3.362l.92.875c.007.007.874.859.739 2.631-.196 2.457-2.307 6.679-11.278 12.868-12.024 8.292-12.861 12.748-10.215 18.062.769 1.553 1.734 6.175-.211 10.57-1.802 4.055-5.526 6.905-11.074 8.458-8.609 2.412-11.602 7.983-12.597 12.235-1.071 4.591-.128 8.541-.091 8.707l.023.106 4.026 2.434-.136-.603c-.008-.037-.844-3.942.068-8.315 1.214-5.819 4.802-9.664 10.659-11.413 6.928-2.066 11.384-5.307 13.253-9.627 1.5-3.46 1.214-7.44-.814-11.504-3.634-7.259 9.529-15.665 9.664-15.755.445-.302 10.916-7.426 12.07-13.615.256-1.349.037-2.563-.634-3.618l1.305 1.266c.037.038.882.882.738 2.661-.203 2.45-2.329 6.672-11.277 12.838-12.024 8.293-12.861 12.748-10.215 18.063.769 1.553 1.734 6.174-.211 10.569-1.802 4.056-5.526 6.905-11.074 8.458-8.609 2.412-11.602 7.983-12.597 12.235-1.071 4.591-.128 8.541-.091 8.707l.023.106 4.026 2.435-.136-.603c-.008-.038-.844-3.943.068-8.315 1.213-5.82 4.802-9.665 10.659-11.414 6.928-2.065 11.383-5.307 13.253-9.627 1.5-3.46 1.214-7.44-.814-11.503-3.634-7.26 9.529-15.666 9.664-15.756.445-.302 10.916-7.426 12.07-13.615.233-1.259.067-2.405-.505-3.407l.942.92c.038.037.882.882.739 2.661-.204 2.45-2.33 6.671-11.278 12.838-12.024 8.292-12.861 12.748-10.215 18.062.769 1.553 1.734 6.174-.211 10.569-1.802 4.056-5.526 6.906-11.074 8.459-8.609 2.412-11.602 7.983-12.597 12.235-1.071 4.591-.128 8.541-.091 8.707l.023.105 4.026 2.435-.136-.603c-.008-.037-.844-3.942.068-8.315 1.214-5.827 4.802-9.664 10.659-11.413 6.928-2.066 11.384-5.307 13.253-9.627 1.5-3.46 1.214-7.441-.814-11.504-3.634-7.259 9.529-15.665 9.664-15.755.445-.302 10.916-7.426 12.07-13.615.256-1.349.037-2.563-.634-3.619l1.305 1.267c.037.038.882.882.731 2.661-.204 2.45-2.33 6.672-11.278 12.838-12.024 8.293-12.861 12.748-10.215 18.063.769 1.553 1.734 6.174-.211 10.569-1.801 4.055-5.525 6.905-11.074 8.458-8.609 2.412-11.602 7.983-12.597 12.235-1.07 4.591-.128 8.541-.09 8.707l.022.106 4.026 2.435-.136-.603c-.007-.038-.844-3.943.068-8.316 1.214-5.819 4.802-9.664 10.66-11.413 6.928-2.066 11.383-5.307 13.252-9.627 1.501-3.46 1.214-7.44-.814-11.504-3.633-7.259 9.529-15.665 9.665-15.755.445-.302 10.916-7.426 12.069-13.615.234-1.259.068-2.405-.505-3.407l.942.919c.038.038.882.882.739 2.662-.204 2.45-2.329 6.671-11.278 12.838-12.024 8.292-12.86 12.748-10.214 18.062.768 1.553 1.733 6.174-.212 10.569-1.801 4.056-5.525 6.906-11.074 8.459-8.609 2.412-11.602 7.983-12.597 12.235-1.07 4.591-.128 8.541-.09 8.707l.023.105 4.025 2.443-.136-.603c-.007-.038-.844-3.928.061-8.3 1.213-5.835 4.802-9.68 10.667-11.429 6.928-2.065 11.383-5.307 13.253-9.627 1.5-3.46 1.213-7.44-.815-11.503-3.633-7.26 9.529-15.666 9.665-15.756.445-.302 10.916-7.426 12.069-13.615.256-1.349.038-2.563-.633-3.618l1.304 1.266c.038.038.882.882.731 2.661-.203 2.45-2.329 6.672-11.277 12.839-12.024 8.292-12.861 12.747-10.215 18.062.769 1.553 1.734 6.174-.211 10.569-1.802 4.056-5.526 6.905-11.074 8.458-8.609 2.413-11.602 7.984-12.597 12.235-1.071 4.591-.128 8.542-.091 8.708l.023.105 4.025 2.443-.135-.604c-.008-.037-.845-3.927.06-8.3 1.214-5.834 4.802-9.679 10.667-11.428 6.928-2.066 11.383-5.307 13.253-9.627 1.5-3.46 1.214-7.44-.814-11.504-3.634-7.259 9.529-15.665 9.664-15.755.445-.302 10.916-7.426 12.069-13.615.234-1.259.068-2.405-.505-3.407l.943.919c.037.038.882.882.731 2.661-.204 2.45-2.329 6.672-11.278 12.839-12.152 8.383-13.034 13.026-10.441 18.22.626 1.259 1.953 5.903-.12 10.57-1.757 3.965-5.436 6.754-10.939 8.299-8.609 2.413-11.602 7.984-12.597 12.236-1.07 4.591-.128 8.541-.09 8.707l.022.105 4.026 2.435-.136-.603c-.007-.038-.844-3.943.068-8.315 1.214-5.82 4.802-9.664 10.66-11.413 6.928-2.066 11.383-5.308 13.253-9.627 1.5-3.46 1.213-7.441-.815-11.504-3.633-7.26 9.529-15.665 9.665-15.756.445-.301 10.916-7.425 12.069-13.614.264-1.425.015-2.699-.746-3.792l-.03-.045-4.531-2.744-4.757-2.888-4.531-2.744-4.756-2.887-4.531-2.744-4.757-2.887-4.531-2.744-4.53-2.744-4.501-2.729 1.169 1.319c.007.015 1.115 1.289.829 3.641-.332 2.684-2.518 7.116-11.082 12.959-14.828 10.132-13.343 12.695-11.089 16.577.188.317.377.648.565.988 1.018 1.862 2.488 5.556.965 9.362-1.462 3.725-5.526 6.702-12.024 8.783z" fill="#375A44"/><path d="M1486.49 376.995c-1.7-.693 2.32.943-.28-.128-.56-.226-1.1-.467-1.66-.678-.87-.324-1.75-.626-2.63-.912a104.75 104.75 0 00-6.5-1.878c-5.94-1.485-11.98-2.638-17.98-3.867-16.38-3.355-32.87-6.046-49.2-9.664-17.61-3.898-35.18-8.428-52.08-14.768-13.5-5.066-27.84-11.647-37.9-21.727-5.84-5.849-8.79-13.358-12.06-21.492-5.74-14.255-10.08-29.039-15.92-43.249-9.65-23.52-25.82-44.138-46.88-58.469-24.47-16.653-54.65-24.432-82.6-33.132-14.8-4.606-29.84-8.504-44.6-13.208-12.03-3.829-24.73-8.375-34.12-17.142-12.92-12.062-20.28-27.064-32.13-40.852-14.26-16.585-32.47-27.26-54.455-29.234-3.957-.355-7.923-.55-11.873-.995a14.19 14.19 0 00-.912-.083c-.52-.09-1.04-.196-1.545-.264-1.697-.249-3.4-.475-5.112-.686-.196-.023-.361-.045-.489-.06-.016 0-.031-.008-.046-.008-7.576-1.161-15.077-2.661-22.51-4.576-7.938-2.043-15.763-4.478-23.49-7.192a360.922 360.922 0 01-17.912-6.86c-1.214-.505-3.317-1.417-.889-.362-1.063-.46-2.126-.912-3.182-1.372-35.408-15.393-68.932-35.16-101.069-56.464-16.954-11.24-33.547-23.015-49.83-35.205a1152.7 1152.7 0 01-11.949-9.061 134.56 134.56 0 00-1.455-1.116l-2.412-1.87c-2.02-1.575-4.041-3.15-6.054-4.741a1326.559 1326.559 0 01-22.706-18.311c-14.278-11.776-27.908-24.275-42.05-36.193-2.163-1.824-4.606-3.355-6.883-5.051a468.468 468.468 0 00-2.246-1.673c-.754-.566-.211-.151.219.18-1.056-.799-2.111-1.605-3.167-2.404a515.946 515.946 0 01-2.178-1.674c-.34-.256-1.071-.829-1.44-1.108-1.523-1.176-3.038-2.36-4.553-3.543-6.446-5.043-12.673-10.592-19.405-15.175a95.622 95.622 0 01-4.154-2.986c-1.093-.836-3.618-2.54-4.402-3.015-2.646-1.598-5.277-3.362-7.659-5.337-4.674-3.875-9.054-8.006-13.351-12.288-6.4-6.385-12.273-13.23-18.462-19.774-1.802-1.907-3.52-3.95-4.975-6.136-.498-.747-1.893-.302-1.546.648 2.299 6.234 6.001 11.67 9.959 16.947 6.686 8.903 13.999 17.308 20.904 26.038 4.877 6.167 7.252 10.84 11.444 16.479 4.93 6.634 10.441 12.816 15.944 19.035 2.721 3.076 5.458 6.129 8.217 9.175 1.364 1.507 2.729 3.008 4.086 4.523.633.708 1.274 1.409 1.907 2.111.55.61 2.02 1.929 1.885 1.756 1.748 1.787 3.324 3.732 5.224 5.435 1.711 1.53 3.422 3.061 5.141 4.584 3.513 3.113 7.041 6.204 10.584 9.272 30.381 26.348 61.937 51.413 94.647 74.806 32.363 23.135 65.993 44.779 101.544 62.698 31.037 15.635 64.191 29.604 98.741 34.926 8.202 1.266 16.291 1.975 24.591 1.78 2.239-.054 4.477-.152 6.724-.106a56 56 0 014.23.226 65.3 65.3 0 011.7.173c.08.015.18.038.33.068 2.37.46 4.72.942 7.05 1.628 1.19.355 2.38.77 3.55 1.184.46.166.92.34 1.38.52.1.045.22.106.34.158 16.28 7.848 27.23 21.44 39.43 35.884 5.5 6.513 11.47 12.717 18.33 17.821 10.64 7.923 23.7 11.911 36.46 14.896 21.45 5.028 43.1 10.381 64.33 16.743-15.78 8.904-30.32 19.917-42.97 32.906-3.86 3.966-7.64 7.969-11.25 12.16-.27.317-.46.671-.58 1.04-.16.144-.3.302-.45.46-.31.302-.6.618-.84.973-.47.686-.19 1.673.43 2.148.67.52 1.56.43 2.19-.128.05-.053.11-.098.17-.151.08.03.16.068.25.091l6.03 1.741c1.88.543 3.93 1.417 5.92 1.297l.25-.023c-.12.4-.24.792-.35 1.191.01 0 .01 0 .01.008-.42 1.681 2.12 2.97 2.94 1.244 1.48-3.129 2.92-6.272 4.38-9.401.13-.219.26-.437.39-.648 3.65-5.971 7.55-11.821 12.1-17.158 8.91-10.486 20.09-18.997 33.79-21.847 1.4-.294 2.82-.512 4.25-.656 2.94.973 5.88 1.968 8.79 2.986 26.68 9.355 50.92 23.354 67.69 46.671 17.18 23.875 21.61 53.803 32.17 80.746 5.44 13.893 16.28 23.573 28.99 30.953 15.1 8.767 31.88 14.723 48.54 19.736 30.92 9.302 62.69 14.934 94.32 21.206 3.65.724 7.58 1.206 11.05 2.616 3.57 1.455 7.83-1.576 8.77-4.976 1.13-4.108-1.4-7.335-4.97-8.79zm-470.9-281.927c-.75-.302-.49-.219 0 0zm164.07 88.503c.57-.302 1.14-.596 1.72-.89.3.091.58.181.88.271-.87.181-1.74.393-2.6.619zM895.715 431.635c2.955 6.023 5.91 12.039 8.865 18.062.422.86.837 1.727 1.274 2.586.173.332.641.43.95.249 4.206-2.443 8.669-4.403 12.778-7.004a1002.523 1002.523 0 008.028 16.442c2.382 4.772 4.787 9.536 7.192 14.301.46.904 1.689 1.342 2.639 1.07 8.149-2.314 16.132-5.216 24.055-8.194 9.589-3.604 19.103-7.426 28.579-11.323 17.185-7.064 34.085-14.444 51.205-21.44 2.88-1.183 5.77-2.359 8.7-3.452 1.55-.588 3.15-1.305 4.78-1.629 1.65-.331 2.17-2.314 1.48-3.633-3.7-7.154-7.15-14.414-10.27-21.84l-1.2-2.864c4.78-1.425 9.28-3.596 14-5.24.32-.113.63-.482.48-.851-2.53-6.242-5.3-12.401-7.95-18.591l-1.17-2.736c-.13-.324-.57-.422-.87-.354-2.99.655-5.89 1.583-8.77 2.578-1.33.46-2.66.935-3.99 1.379-.55.181-1.1.347-1.65.513-.92-2.073-1.87-4.131-2.98-6.069a61.537 61.537 0 00-2.81-4.447c-.85-1.229-1.9-2.315-3.3-2.903-3.47-1.462-7.57.626-10.85 1.734-3.62 1.221-7.24 2.458-10.85 3.717-22.707 7.938-44.984 16.833-66.974 26.573-10.169 4.508-20.271 9.175-30.456 13.66a.237.237 0 00-.143.173c-.618.408-1.01 1.116-.693 1.93a361.468 361.468 0 003.746 9.212c-.663.362-1.319.762-2.005 1.116-1.244.641-2.518 1.214-3.784 1.802-2.722 1.266-5.338 2.616-7.757 4.41-.355.264-.483.648-.279 1.063zm352.245-59.027c.61-1.169 1.49-2.608 1.4-3.965-.08-1.372-1.27-2.488-2.16-3.423-.9-.942-1.86-1.96-2.95-2.744a4.01 4.01 0 00-.88-.611c-.18-.09-.37-.165-.56-.226-.09-.053-.19-.098-.29-.143-1.46-.641-3.11-.196-4.32.754-1.55 1.214-2.57 3.015-3.66 4.621-.77 1.146-1.53 2.307-2.27 3.468a87.248 87.248 0 00-4.26 6.566c-.62.95-1.22 1.907-1.73 2.902-.87 1.689-1.01 3.521.32 5.021.77.867 1.8 1.583 2.86 2.231.54.483 1.11.912 1.71 1.282.52.316 1.1.565 1.68.724.89.429 1.71.497 2.48.158a4.987 4.987 0 001.77-.611c1.02-.588 1.78-1.5 2.44-2.487.61-.747 1.11-1.636 1.56-2.518 1.54-2.42 3.36-4.87 4.77-7.471a34.469 34.469 0 002.09-3.528zM864.49 261.761c1.116 2.254 3.392 3.656 5.714 4.402.867.279 1.757.445 2.639.505.038.008.068.015.105.015.852.196 1.734.332 2.669.438.686.082 1.372-.242 1.892-.724a9.779 9.779 0 002.224-.988 11.632 11.632 0 002.066-.95c3.369-1.99 5.36-5.495 5.352-9.234.151-1.553-.007-3.129-.55-4.614-1.063-2.895-3.28-5.156-5.956-6.604a12.007 12.007 0 00-1.696-.889c-4.071-1.712-9.506-1.033-12.341 2.578-1.485 1.885-2.374 4.237-2.608 6.649-.52 2.065-.648 4.222-.166 6.136a6.553 6.553 0 00.656 3.28zm53.223-24.101c-4.569-3.03-11.09-2.669-15.485.52-3.339 2.428-5.503 6.152-5.616 10.162-.716 2.39-.626 4.915.927 7.305 1.372 2.111 3.446 3.634 5.722 4.636 2.511 1.108 5.534 2.179 8.308 2.186 5.737.023 9.74-5.48 11.338-10.433 1.764-5.42-.505-11.263-5.194-14.376zm14.3-25.367c-1.99.52-3.792 1.575-5.322 2.932-2.902 2.586-4.749 6.717-4.35 10.629.468 4.607 3.928 8.692 7.976 10.803.822.43 1.674.762 2.541 1.003 2.352 1.116 5.118 1.236 7.84.837 2.058-.302 3.995-1.003 5.443-2.571 1.402-1.523 2.329-3.483 2.811-5.481.935-3.852.4-8.103-1.673-11.511-2.02-3.324-5.526-5.744-9.348-6.491-1.945-.384-3.98-.655-5.918-.15zm12.643-1.878c1.123.664 2.374 1.094 3.656 1.161 2.307.279 4.297-.429 5.88-1.764a15.012 15.012 0 001.817-1.349c3.95-3.468 5.458-9.551 1.696-13.75-3.302-3.679-9.868-4.712-14.331-2.729-3.928 1.741-5.835 6.468-5.058 10.554.64 3.422 3.219 6.309 6.34 7.877zm-394.63 401.346c0 .136.053.264.136.362-.038.144.023.309.203.355 1.199.286 2.639-.121 3.853-.317 1.553-.256 3.098-.505 4.651-.754.776-.128 1.553-.249 2.329-.377.543-.045 1.086-.098 1.629-.143 1.372-.121 2.751-.181 4.131-.309-1.41.332-2.82.648-4.237.965-2.028.445-4.056.874-6.091 1.281-1.937.385-4.071.566-5.895 1.342-.166.068-.204.211-.174.347v.008c-.233 1.025.219 1.945.694 2.834.588 1.757 1.312 3.566 2.495 4.9a.54.54 0 00.49.189c-.022.12.121.256.234.173 1.086-.822 2.066-1.779 3.211-2.525a89.103 89.103 0 013.89-2.353 110.614 110.614 0 014.139-2.261c.098-.053.204-.106.309-.151-.558.407-1.116.822-1.673 1.229-1.78 1.297-3.551 2.601-5.33 3.897-.852.626-1.712 1.244-2.556 1.87-.603.445-1.085.769-1.116 1.553a.19.19 0 00.114.173c.082 2.096 2.201 4.297 3.663 5.624.159.143.385.226.618.241a.453.453 0 00.46.219c1.402-.196 2.548-2.405 3.295-3.46 1.183-1.659 2.269-3.385 3.392-5.081 1.138-1.727 2.314-3.4 3.528-5.051-.399.716-.791 1.425-1.168 2.141-2.224 4.252-4.35 8.541-6.446 12.853-.09.181-.121.4-.105.611-.083.173-.061.384.128.558.836.753 1.507 1.507 2.487 2.095a14.419 14.419 0 003.219 1.455c.92.279 1.87.468 2.827.588 1.327.347 2.699.513 4.094.52.52 0 1.078-.475 1.025-1.025-.58-6.393-.505-12.838-.211-19.268.06 1.078.151 2.156.302 3.226a30.208 30.208 0 00.113 3.091c.263 2.97.633 5.918.746 8.903.045 1.191-.241 2.94.196 4.101a1.09 1.09 0 00.007.558c.023.083.061.166.098.233a.326.326 0 00.159.212c.369.384 1.01.467 1.53.527.656.076 1.99.257 2.164-.633a1.27 1.27 0 00.181-.897c-.792-5.224-1.923-10.351-2.978-15.522-.249-1.214-.392-2.45-.49-3.694.015-.415.022-.829.03-1.244.52 2.058 1.161 4.094 1.681 6.159 1.236 4.863 2.33 9.763 3.747 14.572.309 1.041 1.319 1.259 2.08.92.852-.045 1.757-.309 2.511-.543.58-.181 1.394-.392 1.741-.912.249-.053.498-.354.468-.618a4.996 4.996 0 00-.166-.799 1.514 1.514 0 00-.106-.49 859.83 859.83 0 00-5.94-13.464c-.784-1.741-1.568-3.49-2.39-5.217.4.656.799 1.304 1.199 1.96 1.108 1.817 2.201 3.641 3.219 5.511 1.017 1.877 1.952 3.792 2.94 5.677 1.04 1.99 1.854 4.289 3.128 6.128.633.92 1.546.679 2.028.098l.807-.648c.316-.256.324-.776.143-1.101a181.213 181.213 0 00-3.792-6.551 58.674 58.674 0 00-2.752-4.613 124.71 124.71 0 00-2.713-3.943c.452.437.912.875 1.364 1.312 1.998 1.93 3.996 3.86 6.001 5.79.889.859 1.771 1.726 2.706 2.532.769.671 1.757 1.176 2.473 1.885.339.332.746.437 1.123.369a.626.626 0 00.483.023c1.093-.377 3.565-3.679 3.61-5.594.212-.55.144-1.153-.324-1.628-1.786-1.787-4.229-3.098-6.325-4.493-2.035-1.357-4.063-2.729-6.113-4.071-2.043-1.334-4.109-2.661-6.235-3.867-.686-.392-1.379-.761-2.08-1.138.414.12.829.241 1.243.369.604.309 1.229.588 1.764.89 1.976 1.108 3.988 2.141 5.979 3.211 1.997 1.078 4.018 2.096 6.03 3.151 1.764.927 3.551 2.186 5.451 2.812.332.241.799.279 1.123-.083a.803.803 0 01.075-.083c.671-.218.958-.874 1.011-1.658.12-1.727-.038-3.536-.113-5.262-.031-.679.052-5.021-1.169-5.353a.545.545 0 00-.09-.09c-1.056-.859-2.956-.317-4.199-.204-1.975.174-3.958.257-5.941.347-1.915.083-3.829.068-5.744.076-1.334.007-2.729-.113-4.079-.038l-.165-.023c1.884-.301 3.776-.52 5.676-.731 4.199-.482 8.421-.716 12.635-.942.678-.038 1.183-.588 1.176-1.206a.752.752 0 00.098-.543c-.294-1.455-.754-3.136-1.591-4.388-.301-.444-.799-1.153-1.372-1.485a1.406 1.406 0 00-.437-.324c-.867-.415-1.975.068-2.827.294-1.38.362-2.737.792-4.086 1.252a138.178 138.178 0 00-7.923 2.97c.596-.415 1.191-.822 1.794-1.229 1.538-1.033 3.083-2.103 4.689-3.031 1.636-.942 3.611-1.937 4.915-3.317.423-.452.475-1.055.204-1.59 0-.008-.008-.008-.008-.015-.271-1.237-1.462-2.254-2.502-2.85-.611-.354-1.078-.166-1.433.234-1.025.211-1.877 1.462-2.578 2.148-1.168 1.139-2.329 2.285-3.422 3.483a87.426 87.426 0 00-1.591 1.794c-1.063.958-2.111 1.93-3.151 2.918-.211.158-.422.324-.626.482a60.876 60.876 0 002.254-2.759c2.428-3.151 4.38-6.619 7.094-9.536.445-.475.415-1.274-.06-1.681-.189-.362-.588-.694-.913-.89a12.437 12.437 0 00-.693-.392c-1.334-1.048-3.129-1.756-4.576-2.254-2.066-.709-4.192-.867-6.31-1.183a.577.577 0 00-.558-.091 8.024 8.024 0 01-.429-.075.468.468 0 00-.573.505.36.36 0 00-.046.181 30.939 30.939 0 00-.037 2.359c-.076.83-.068 1.674-.106 2.398-.113 2.02-.105 4.04-.068 6.061.031 1.929.091 3.859.181 5.789.015.272.023.543.038.814a35.92 35.92 0 01-.196-1.447c-.196-1.885-.4-3.769-.52-5.661-.226-3.619.06-7.351-.528-10.931-.053-.332-.573-.31-.648 0a.824.824 0 00-.573-.242c-.49-.022-.95.113-1.432.136-.581.023-1.116-.075-1.704.008-1.018.15-2.194.467-3.099.972-.233.136-.339.475-.188.709-.008.007-.015.015-.015.03-.151.829.392 1.508.716 2.277.43 1.025.867 2.042 1.267 3.075.753 1.953 1.402 3.95 2.065 5.933.505 1.5 1.003 3.015 1.553 4.508.181.671.362 1.342.535 2.013-1.002-1.689-1.967-3.4-2.955-5.096a758.813 758.813 0 00-3.189-5.413c-1.055-1.779-2.058-3.867-3.497-5.352-.204-.211-.528-.121-.664.09a.715.715 0 00-.324.181c-1.003.973-1.937 1.968-2.797 3.068-.324.415-.279.897.158 1.214 3.295 2.375 5.677 5.76 8.037 9.009.52.723 1.047 1.439 1.575 2.156a165.83 165.83 0 01-2.834-3.227c-2.202-2.548-4.493-5.382-7.396-7.184-.942-.814-1.854-.535-2.834.324-1.312 1.153-2.284 2.654-3.053 4.214-.52 1.056-1.35 2.495-1.546 3.792-.158.339-.264.679-.264 1.003-.128.377.129.844.513.934 1.809.445 3.596 1.139 5.39 1.674 1.719.513 3.438 1.025 5.156 1.553 2.141.656 4.237 1.462 6.34 2.246-.113-.022-.218-.045-.324-.067a582.618 582.618 0 00-6.332-1.327 873.418 873.418 0 00-6.084-1.229c-1.017-.203-2.035-.384-3.053-.565-.889-.159-1.824-.49-2.684-.144-.037.015-.06.046-.06.083a.255.255 0 00-.128.03c-.204.098-.204.114-.249.34-.007.022 0 .045.008.068-1.214 1.04-1.485 5.51-.943 7.214-.03.143-.037.264-.03.384zm5.232 8.579c.023-.052.045-.113.06-.165.03-.016.068-.031.098-.046-.052.068-.105.136-.158.211zm3.407-6.528l-.09-.045c.105-.023.219-.038.324-.061-.083.038-.158.068-.234.106zm-1.809 10.147c-.038-.03-.068-.06-.105-.091.045-.03.09-.052.135-.083-.015.053-.022.113-.03.174zm2.571 3.535l-.106-.105a.654.654 0 00.128.06l-.022.045zm21.967-37.934c.015.008.023.023.038.03a4.647 4.647 0 01-.083.295l.045-.325zm-17.376-1.96l.105-.128c.031.061.053.128.083.189-.06-.023-.12-.046-.188-.061zm-5.194 18.251l-.799-.113a5.777 5.777 0 00-.211-.113c.339.075.67.151 1.01.226zm-4.478-1.01h-.196c-.083-.03-.166-.053-.241-.083-.016-.015-.023-.022-.038-.03.151.038.317.075.475.113zm54.308 40.723c-.611-.701-1.327-1.884-2.254-2.201a1.563 1.563 0 00-.829-.045c-.724-.083-1.621.279-2.164.52-1.334.603-2.623 1.704-3.656 2.722a.675.675 0 00-.211.452c-.37.528-.121 1.319.399 1.704 3.445 2.585 6.876 5.179 10.132 7.99 1.365 1.176 2.729 2.33 4.048 3.551-.06-.03-.12-.06-.173-.083-.988-.731-2.088-1.342-3.091-2.028-1.545-1.063-3.121-2.08-4.636-3.181-1.53-1.116-3.061-2.231-4.546-3.415-.799-.633-1.59-1.274-2.39-1.907-.467-.37-.98-.784-1.62-.731a.802.802 0 00-.264.067 1.166 1.166 0 00-.792.061c-1.161.497-2.156 2.359-2.887 3.339-1.101 1.478-2.299 2.978-3.242 4.569-.429.723-.603 1.455-.143 2.05 0 .023 0 .045.008.068.007.038.007.068.015.106.06.422.543.686.957.655 1.953.536 4.199.475 6.197.701 2.216.242 4.433.521 6.657.739 2.208.211 4.417.475 6.633.656.611.045 1.297.166 1.976.249.414.128.836.264 1.251.392-.633-.06-1.274-.121-1.907-.173-2.526-.212-5.074-.272-7.614-.31-2.533-.037-5.074-.022-7.614-.03-2.541-.007-5.255-.264-7.757.234-.528.106-1.033.671-1.124 1.236-.98 1.659-.776 5.601-.135 6.461a.75.75 0 00.444.301c.317.294.777.445 1.282.347 1.048-.196 2.254-.068 3.34-.218 1.319-.181 2.631-.423 3.942-.656 2.654-.475 5.3-.943 7.953-1.418l1.546-.271a137.167 137.167 0 00-4.667 1.855 56.95 56.95 0 00-4.636 2.201 188.97 188.97 0 00-6.913 3.377c-.346.174-.535.664-.414 1.025.098.309.188.611.286.92.068.754.641 1.485 1.531 1.131 2.042-.814 3.942-2.179 5.88-3.234 1.937-1.056 3.852-2.149 5.804-3.181 1.945-1.033 3.943-1.968 5.948-2.888.694-.316 1.387-.633 2.073-.95-1.598.95-3.181 1.923-4.764 2.91a918.458 918.458 0 00-12.665 8.014 1.145 1.145 0 00-.316.316 3.84 3.84 0 00-.573.596c-.166.211-.091.55.075.739 0 .633.558 1.266.972 1.764.468.565 1.071 1.349 1.757 1.854.505.633 1.5.943 2.314.272 3.853-3.204 7.494-6.657 11.233-10.004 1.56-1.402 3.211-2.714 4.772-4.116l-.634.995c-.806 1.018-1.65 2.005-2.578 2.91-3.769 3.701-7.561 7.327-11.134 11.225-.189.203-.279.49-.287.784-.339.754.732 1.357 1.297 1.666.49.264 1.123.61 1.696.497a.298.298 0 00.272-.098c.075-.037.15-.09.218-.15.136-.129.226-.264.287-.407.987-.671 1.696-2.27 2.352-3.174 1.892-2.616 4.04-5.021 6.031-7.554a31.481 31.481 0 001.507-2.103c.46-.513.897-1.04 1.319-1.583-3.113 5.103-6.287 10.139-10.086 14.821-.43.527-.385 1.221.211 1.613a15.946 15.946 0 003.634 1.824c.874.437 1.786.814 2.721 1.093 1.063.324 2.164.49 3.272.558 1.221.076 2.246-.181 3.445-.354.226-.03.339-.158.377-.309a.694.694 0 00.218-.438c.686-4.869 1.327-9.747 1.862-14.639.083-.732.144-1.478.211-2.224.098 2.261.129 4.53.114 6.815-.016 2.216-.083 4.447.045 6.664.053.987-.204 3.166 1.025 3.588.083.03.173.008.256-.03.189.105.43.151.686.113 1.998-.294 4.787-.942 6.107-2.608a.204.204 0 00.203-.091c.43-.701.166-1.259-.113-2.02-.392-1.071-.776-2.149-1.168-3.219-.747-2.066-1.501-4.131-2.247-6.197-.188-.528-.377-1.055-.573-1.583a127.652 127.652 0 011.93 3.641 107.204 107.204 0 011.892 4.011c.716 1.568 1.093 3.189 1.681 4.794.053.143.242.151.302.015a.6.6 0 00.565.098c1.712-.444 3.295-1.538 4.75-2.661.912-.482 1.771-.98 2.163-1.982a.327.327 0 00.03-.408c-1.055-1.635-2.714-2.947-4.078-4.319a312.513 312.513 0 01-7.328-7.614c1.086.874 2.209 1.696 3.287 2.571.385.309.762.618 1.146.927.603.565 1.206 1.123 1.809 1.688 1.086 1.011 2.171 2.021 3.249 3.031.95.897 1.953 2.096 3.189 2.556.151.052.317-.061.37-.204a.73.73 0 00.316-.241l.159-.226c1.417-1.041 3.701-4.983 3.264-6.551a.137.137 0 00.06-.068c.091-.211.083-.234-.03-.43a.266.266 0 00-.083-.075c.015-.031.023-.068.008-.091-.475-.708-1.222-.904-1.991-1.244-.904-.399-1.809-.806-2.729-1.191a824.482 824.482 0 00-11.978-4.9 8.23 8.23 0 01-.483-.203c2.186.52 4.388 1.017 6.536 1.673 1.711.52 3.43 1.048 5.141 1.583 1.78.558 3.649.98 5.391 1.614.361.135.746-.121.882-.453.203-.286.309-.663.369-1.063.58-1.251.701-2.932.859-4.191.226-1.817.279-3.883-.407-5.616-.399-1.011-1.055-1.312-1.937-1.207-3.362-.12-6.785.905-9.989 1.78-1.44.392-2.88.791-4.327 1.153.973-.347 1.937-.709 2.902-1.063 3.664-1.334 7.403-2.714 11.338-2.85.392-.015.807-.346.769-.769-.105-1.462-.331-2.872-.633-4.304a.573.573 0 00-.136-.264c.008-.256-.271-.505-.55-.452-1.945.414-3.882 1.545-5.676 2.397-1.968.942-3.943 1.877-5.903 2.835-1.757.851-3.498 1.733-5.255 2.57.536-.467 1.071-.935 1.614-1.402 1.296-.95 2.57-1.937 3.844-2.917 1.659-1.282 3.317-2.571 5.036-3.77.852-.588 1.727-1.146 2.586-1.718.671-.445 1.606-.769 1.937-1.531.008-.022.015-.037.015-.06.008-.008.023-.008.031-.015.271-.121.301-.49.188-.716-.46-.905-1.266-1.847-2.02-2.518-.415-.377-.89-.581-1.342-.897-.468-.324-.784-.769-1.312-1.003-.158-.075-.317-.09-.467-.075.113-.317-.34-.551-.558-.324-2.435 2.585-4.244 5.782-6.393 8.609-1.123 1.477-2.322 2.902-3.513 4.327-.309.369-.663.746-1.025 1.13.03-.045.068-.09.098-.135a185.064 185.064 0 003.513-4.885c1.146-1.644 2.284-3.295 3.309-5.021.43-.716.988-1.508 1.425-2.344a38.81 38.81 0 001.236-1.908.391.391 0 00.061-.188c.158-.211.166-.543-.128-.664-.159-.067-.317-.143-.483-.218a.585.585 0 00-.505-.234c-1.817-.859-3.566-1.839-5.526-2.427-1.583-.475-3.633-.935-5.45-.792a15.03 15.03 0 00-.558-.053c-.369-.022-1.003-.007-1.432.196-.679.023-1.116.83-1.01 1.47.648 3.921.294 7.893.55 11.844.075 1.183.196 2.359.347 3.535-.083-.271-.174-.535-.257-.799-.316-1.41-.648-2.812-.995-4.206a80.017 80.017 0 00-.316-2.322c-.242-1.591-.558-3.167-.882-4.735-.212-1.017-.227-2.502-.973-3.294-.083-.573-.437-.98-1.296-1.003-1.146-.03-2.526.159-3.4.965a2.488 2.488 0 00-.129.068c-.55.309-.701.912-.603 1.485.294 1.764 1.35 3.672 2.134 5.262.889 1.81 1.643 3.687 2.397 5.556.234.573.46 1.146.686 1.719a131.112 131.112 0 00-4.885-6.815c-.799-1.04-1.553-2.028-2.367-2.963zm18.786 43.558c.023.046.038.083.06.128-.045.008-.083.008-.128.015.023-.052.045-.097.068-.143zm4.139-9.302c-.023 0-.038-.008-.061-.008-.03-.045-.06-.098-.09-.143l.151.151zm-.837 7.169l-.023.098c0-.053-.007-.098-.007-.151.007.015.015.03.03.053zm9.845-12.009c-.022 0-.037.007-.06.007l-.249-.067c-.06-.046-.128-.091-.188-.136.158.068.331.136.497.196zm-3.792-1.463l-.241-.022c-.249-.121-.49-.234-.739-.354.325.12.656.248.98.376zm4.863-18.605c.007.061.015.121.015.181a.8.8 0 00-.204-.06c.068-.038.128-.076.189-.121zm-15.484-7.915c0 .015-.008.03-.015.045a.1.1 0 01.015-.045zm-2.903 43.693c.061.023.128.03.196.038l-.211.045c0-.03.008-.053.015-.083zm26.762 56.811c-1.025-.648-2.533-1.214-3.769-.852h-.053c-.603.023-1.085.4-1.266.965-.558 1.726-.498 3.867-.528 5.669-.03 1.945-.211 3.882-.377 5.82-.06.716-.128 1.44-.203 2.156-.34-2.857-.754-5.707-1.267-8.541-.249-1.35-.512-2.691-.852-4.026-.218-.852-.324-2.073-1.115-2.623a1.582 1.582 0 00-.543-.234c-.55-.332-1.35-.422-1.93-.467-1.493-.121-3.196.286-4.614.738a.66.66 0 00-.414.34c-.551.301-.754 1.032-.46 1.643 1.885 3.867 3.762 7.735 5.382 11.723.686 1.688 1.388 3.362 2.006 5.073-.03-.045-.068-.09-.098-.136-.573-1.183-1.327-2.306-1.953-3.445-.897-1.643-1.824-3.272-2.661-4.945-.852-1.704-1.704-3.4-2.488-5.134-.565-1.251-1.025-3.46-2.412-4.018a.59.59 0 00-.113-.03c-.882-.912-4.666 1.281-5.262 1.575-1.508.747-3.076 1.478-4.508 2.36-.716.437-1.236 1.018-1.093 1.764 0 0 0 .008-.008.008-.015.037-.022.067-.037.105-.166.475.098.837.475 1.01 1.462 1.365 3.445 2.322 5.103 3.423 1.892 1.251 3.762 2.525 5.677 3.754 1.907 1.221 3.784 2.48 5.706 3.671.521.324 1.063.732 1.614 1.109.301.294.603.595.904.889a79.33 79.33 0 00-1.982-1.259c-2.089-1.266-4.245-2.435-6.408-3.581-2.164-1.146-4.35-2.254-6.521-3.377-2.239-1.161-4.568-2.661-6.996-3.355-.603-.173-1.138.046-1.515.46-1.689.897-3.385 4.787-3.189 5.941.03.188.128.316.256.407.136.354.423.655.875.791 1.033.309 2.028.958 3.061 1.327 1.251.445 2.533.822 3.807 1.214 2.57.791 5.148 1.575 7.719 2.367.52.158 1.033.316 1.553.482a115.727 115.727 0 00-4.561-.444 56.274 56.274 0 00-5.526-.181 184.628 184.628 0 00-7.644-.151c-.369 0-.806.279-.874.671-.061.339-.121.678-.174 1.017-.271.702-.037 1.614 1.101 1.712 2.201.196 4.553-.181 6.77-.234 2.171-.053 4.334-.158 6.505-.181 2.164-.015 4.335.053 6.499.151.723.03 1.44.068 2.163.098-1.832.113-3.663.256-5.503.407-4.975.407-9.951.852-14.919 1.349a1.25 1.25 0 00-.475.151 2.925 2.925 0 00-.618.181c-.316.128-.558.422-.445.784 0 .008.008.015.008.023-.234.452-.136 1.04-.015 1.651.166.852.369 1.869.784 2.714.09.821.807 1.605 1.869 1.371 4.893-1.093 9.71-2.502 14.565-3.776 2.043-.535 4.116-.95 6.159-1.493-.339.196-.678.4-1.018.596-1.161.527-2.344 1.017-3.558 1.394-5.036 1.576-10.071 3.076-15.024 4.908-.324.12-.551.339-.679.603-.633.543.113 1.613.483 2.141.301.43.678.965 1.198 1.116.091.067.204.098.325.037.06 0 .12-.007.18-.022.219-.046.385-.136.521-.257 1.13-.158 2.382-1.145 3.264-1.605 2.804-1.44 5.722-2.616 8.601-3.89.935-.415 1.832-.89 2.722-1.38a34.622 34.622 0 002.495-1.078c-5.33 3.264-10.742 6.393-16.479 8.926-.513.226-.611.965-.37 1.402a16.022 16.022 0 002.405 3.287c.581.799 1.229 1.56 1.938 2.254.768.746 1.635 1.379 2.555 1.93 1.071.641 2.126.889 3.287 1.304.249.09.437 0 .55-.166.196-.09.37-.226.483-.392 2.857-4.063 5.676-8.149 8.405-12.295.324-.49.641-.995.958-1.5a135.005 135.005 0 01-2.993 6.076c-.965 1.839-1.975 3.671-2.827 5.563-.422.935-1.817 3.008-.89 3.973a.308.308 0 00.249.098.933.933 0 00.513.399c1.96.664 4.696 1.342 6.679.475.06.046.143.053.211.015.603-.369.656-.784.776-1.477.196-1.123.287-2.277.43-3.408.279-2.186.558-4.372.829-6.551.091-.686.174-1.372.264-2.058.038 1.583.068 3.167.045 4.757-.022 1.463-.09 2.918-.158 4.373-.068 1.53-.467 2.977-.671 4.485-.022.143.136.271.264.158a.558.558 0 00.407.34c1.742.392 3.679.143 5.511-.196 1.025-.023 1.997-.053 2.797-.769.128-.046.233-.151.218-.332-.196-1.937-1.063-3.86-1.651-5.707-.648-2.02-1.266-4.04-1.869-6.076a286.35 286.35 0 01-1.184-4.093c.52 1.176 1.093 2.329 1.621 3.49.249.55.49 1.101.731 1.644.279.768.558 1.537.829 2.306.506 1.395 1.011 2.79 1.508 4.184.437 1.229.777 2.774 1.674 3.754.128.136.294.106.407 0 .135.023.271 0 .392-.06.068-.038.128-.068.196-.105 1.394-.023 2.819-1.139 3.852-1.923.844-.641 1.983-1.379 2.096-2.465a.12.12 0 00.098-.022c.173-.144.188-.166.173-.385a.248.248 0 00-.038-.121c.031-.015.053-.037.046-.075-.091-.739-.475-1.123-.943-1.696a172.571 172.571 0 00-2.126-2.609c-1.387-1.65-2.789-3.286-4.191-4.93a658.814 658.814 0 00-4.229-4.892c-.121-.136-.241-.279-.362-.422 1.696 1.455 3.415 2.887 5.013 4.44a896.932 896.932 0 013.95 3.852c1.305 1.282 2.744 2.48 3.981 3.815.264.286.776.278 1.048 0 .286-.159.535-.423.753-.724 1.094-.829 1.991-2.33 2.692-3.362.98-1.433 1.801-3.023 2.133-4.742.234-1.229-.053-2.043-1.138-2.435-2.985-1.659-6.551-2.292-9.846-2.985a158.925 158.925 0 01-4.191-.92c.92.121 1.847.234 2.767.347 3.942.49 8.013.95 11.647 2.661.339.158.882.136 1.055-.279a31.604 31.604 0 001.41-4.116.653.653 0 000-.362c.113-.219.023-.543-.249-.618-1.922-.52-4.146-.407-6.129-.46-2.178-.06-4.365-.128-6.543-.173-1.96-.046-3.92-.053-5.88-.113.693-.174 1.394-.347 2.095-.521a159.83 159.83 0 004.652-.814c1.96-.362 3.92-.739 5.887-1.018 1.101-.158 2.209-.263 3.31-.384.859-.098 1.869.045 2.578-.49l.045-.045h.008c.286.022.52-.257.52-.52.022-1.011-.279-2.202-.626-3.144-.181-.498-.482-.897-.739-1.357-.279-.505-.384-1.063-.723-1.538a.888.888 0 00-.43-.331c.234-.219-.023-.664-.332-.551-3.415 1.214-6.551 3.279-9.822 4.832-1.636.777-3.31 1.478-4.976 2.187-.46.196-.957.377-1.455.565.076-.038.143-.075.211-.113 1.802-.89 3.589-1.802 5.36-2.744 1.772-.942 3.543-1.892 5.239-2.963.724-.452 1.614-.92 2.398-1.47a34.779 34.779 0 001.922-1.1.556.556 0 00.136-.129c.256-.113.384-.467.151-.753a4.94 4.94 0 01-.242-.31c-.007-.196-.128-.376-.369-.474-1.312-1.704-2.473-3.483-4.101-4.953-1.138-1.026-2.608-2.232-4.161-2.895-.113-.075-.227-.151-.347-.226-.347-.211-1.048-.588-1.591-.588-.58-.196-1.281.181-1.477.791-1.237 3.785-3.332 7.169-4.908 10.826a72.68 72.68 0 00-1.319 3.294c.037-.264.083-.528.12-.784.362-1.387.701-2.774 1.026-4.169.271-.731.535-1.47.784-2.209.512-1.522.95-3.068 1.372-4.613.271-1.003.95-2.352.656-3.4.18-.483.143-.973-.423-1.327zm-15.808 48.677c.015-.015.023-.031.038-.046l.113.091a3.618 3.618 0 01-.151-.045zm4.463.58l-.121-.045a.59.59 0 00.128-.113c-.007.053-.007.105-.007.158zm3.829-.415c.031-.067.061-.143.091-.211 0 .031.007.061.007.098-.03.031-.067.068-.098.113zm4.124-6.091l-.068-.045-.022-.219c.03.091.06.181.09.264zm10.2-.233a.104.104 0 00-.053-.016 4.187 4.187 0 01-.189-.173c-.03-.06-.067-.12-.098-.188.114.128.227.256.34.377zm-2.707-3.031c-.06-.045-.128-.083-.188-.12-.166-.212-.324-.423-.483-.634.219.249.445.505.671.754zm12.831-14.301c-.023.053-.038.098-.06.151-.046-.045-.091-.09-.144-.135.068-.008.136-.016.204-.016zm-10.2-14.119c.008 0 .015.007.015.007-.037.023-.067.053-.105.076a.971.971 0 00.09-.083zm600.145-357.427c1.54-2.42 3.36-4.87 4.77-7.47.77-1.124 1.48-2.3 2.11-3.513.6-1.169 1.48-2.609 1.4-3.966-.08-1.372-1.28-2.487-2.17-3.422-.9-.942-1.86-1.96-2.94-2.744a4.262 4.262 0 00-.88-.611c-.19-.09-.37-.166-.56-.226a5.1 5.1 0 00-.3-.143c-1.46-.641-3.11-.196-4.32.754-1.54 1.213-2.57 3.015-3.65 4.621-.78 1.146-1.53 2.307-2.27 3.468-1.74 2.435-3.3 4.892-4.27 6.566-.62.95-1.21 1.907-1.72 2.902-.88 1.689-1.02 3.521.31 5.021.77.867 1.8 1.583 2.87 2.231.53.483 1.1.912 1.71 1.282.52.316 1.09.565 1.68.723.89.43 1.7.498 2.47.159a4.987 4.987 0 001.77-.611c1.02-.588 1.78-1.5 2.45-2.488.58-.761 1.09-1.643 1.54-2.533zm20.18-.648c.6-1.168 1.49-2.608 1.4-3.965-.08-1.372-1.27-2.488-2.16-3.423-.91-.942-1.86-1.96-2.95-2.744a4.257 4.257 0 00-.88-.61 3.748 3.748 0 00-.56-.226c-.1-.053-.19-.098-.29-.144-1.46-.641-3.12-.196-4.32.754-1.55 1.214-2.57 3.016-3.66 4.621-.77 1.146-1.53 2.307-2.27 3.468a87.451 87.451 0 00-4.26 6.566c-.62.95-1.22 1.907-1.73 2.902-.87 1.689-1.01 3.521.32 5.021.77.867 1.8 1.583 2.86 2.232.54.482 1.11.912 1.71 1.281.52.317 1.1.565 1.68.724.89.429 1.71.497 2.48.158.61-.09 1.22-.294 1.77-.611 1.02-.588 1.78-1.5 2.44-2.487.6-.747 1.11-1.636 1.56-2.518 1.54-2.42 3.36-4.87 4.76-7.471a33.524 33.524 0 002.1-3.528zm13.13 22.096c.93-2.707 2.08-5.511 2.81-8.353.5-1.334.92-2.699 1.24-4.086.3-1.304.82-2.932.3-4.229-.49-1.184-1.84-1.937-2.87-2.586-1.1-.693-2.26-1.44-3.48-1.937a5.019 5.019 0 00-.64-.279 3.767 3.767 0 00-.95-.189 3.44 3.44 0 00-.42-.09c-1.54-.234-3.01.565-3.93 1.764-1.22 1.568-1.78 3.558-2.46 5.398-.81 2.208-1.55 4.44-2.3 6.671-.07.189-.13.37-.2.558-.57 1.561-1.25 3.189-1.68 4.832-.25.754-.48 1.516-.68 2.277-.48 1.854-.28 3.716 1.36 4.908.99.716 2.23 1.168 3.46 1.553.59.316 1.19.58 1.8.791.58.204 1.2.324 1.81.354.53.159 1.07.257 1.62.129.45-.106.82-.347 1.13-.664.4-.188.77-.422 1.12-.708.92-.777 1.48-1.817 1.9-2.918.51-.972.81-2.096 1.06-3.196zm17.09-1.312c.3-1.304.82-2.933.29-4.229-.48-1.184-1.83-1.938-2.87-2.586-1.1-.694-2.26-1.44-3.48-1.937a5.019 5.019 0 00-.64-.279 3.692 3.692 0 00-.94-.189 3.934 3.934 0 00-.42-.09c-1.55-.234-3.02.565-3.94 1.764-1.21 1.568-1.78 3.558-2.46 5.397-.81 2.209-1.54 4.44-2.3 6.672-.06.188-.13.369-.2.558-.56 1.56-1.24 3.189-1.67 4.832-.25.754-.48 1.515-.69 2.277-.48 1.854-.28 3.716 1.37 4.907.98.716 2.22 1.169 3.46 1.553.58.317 1.19.581 1.79.792.58.203 1.2.324 1.82.354.53.158 1.07.256 1.61.128.45-.105.82-.347 1.13-.663.4-.189.78-.422 1.12-.709.92-.776 1.48-1.817 1.9-2.917.51-.965.82-2.088 1.07-3.189.92-2.706 2.07-5.511 2.8-8.353.51-1.342.93-2.706 1.25-4.093zm17.68-2.345c-.98-.889-2.04-1.884-3.2-2.593a3.917 3.917 0 00-.67-.43 3.657 3.657 0 00-.82-.301 3.498 3.498 0 00-.57-.204c-1.6-.429-3.19.294-4.29 1.433-1.49 1.53-2.46 3.581-3.51 5.412-.67 1.191-1.34 2.405-1.99 3.611-1.25 2.006-2.45 4.071-3.43 6.182-.61 1.063-1.17 2.149-1.59 3.257-.69 1.824-.37 3.618 1.18 4.87.79.633 1.7 1.198 2.63 1.711.53.414 1.1.791 1.69 1.1.54.287 1.13.506 1.73.641 1.01.468 1.83.422 2.55.038a4.94 4.94 0 001.66-.671c1.02-.648 1.74-1.621 2.34-2.669.58-.806 1.04-1.749 1.43-2.691 1.37-2.525 3.02-5.111 4.24-7.825a32.026 32.026 0 001.8-3.543c.53-1.214 1.29-2.646 1.19-4.011-.12-1.387-1.41-2.442-2.37-3.317z" fill="#375A44"/><path d="M829.519 663.34c-.286-1.492-.527-3.038-.965-4.5-.422-1.402-1.289-1.922-2.608-2.314-3.498-1.041-7.124-1.742-10.705-2.45-2.043-.408-4.093-.807-6.166-1.033-1.727-.189-2.707.399-4.011 1.538-1.915 1.666-3.716 3.46-5.48 5.277-1.131 1.161-3.167 2.766-3.559 4.417-.037.174-.06.332-.067.49-.008.038-.008.068-.015.098-.242 3.317.196 6.845.482 10.147.136 1.538.09 3.468.852 4.855.633 1.153 2.028 1.485 3.196 1.885 3.913 1.326 7.923 2.45 11.941 3.407 1.553.369 3.182.792 4.78.859 1.636.068 3.038-.912 4.304-1.831a53.945 53.945 0 005.699-4.803c1.237-1.191 2.888-2.608 3.43-4.304.475-1.493.166-3.317-.015-4.832a100.175 100.175 0 00-1.093-6.906zm92.755-267.438c-.257-1.5-.468-3.045-.875-4.515-.399-1.41-1.296-1.923-2.593-2.337-3.475-1.109-7.094-1.885-10.652-2.669-2.035-.445-4.078-.89-6.144-1.146-1.719-.219-2.706.385-4.026 1.485-1.945 1.621-3.784 3.385-5.586 5.164-1.161 1.146-3.196 2.699-3.626 4.357a2.312 2.312 0 00-.075.581v.015c-.309 3.309.06 6.853.279 10.154.098 1.493.06 3.25.678 4.637.603 1.334 2.006 1.688 3.272 2.148 3.882 1.41 7.87 2.608 11.866 3.641 1.53.392 3.173.89 4.764.943 1.644.052 3.031-.86 4.335-1.764 2.035-1.418 3.965-3.008 5.789-4.697 1.267-1.168 2.933-2.556 3.491-4.252.49-1.485.226-3.317.068-4.832-.226-2.299-.573-4.614-.965-6.913zm-197.217 93.365c-.256-1.5-.467-3.045-.875-4.515-.399-1.41-1.296-1.923-2.593-2.337-3.475-1.109-7.094-1.885-10.652-2.669-2.035-.445-4.078-.89-6.144-1.146-1.719-.219-2.706.385-4.025 1.485-1.945 1.621-3.785 3.385-5.586 5.164-1.161 1.146-3.197 2.699-3.626 4.357a2.27 2.27 0 00-.076.581v.015c-.309 3.309.06 6.852.279 10.154.098 1.493.06 3.25.679 4.637.603 1.334 2.005 1.688 3.271 2.148 3.883 1.41 7.871 2.609 11.866 3.641 1.53.392 3.174.89 4.764.943 1.644.052 3.031-.86 4.335-1.764 2.035-1.418 3.965-3.008 5.79-4.697 1.266-1.168 2.932-2.556 3.49-4.252.49-1.485.226-3.317.068-4.832-.226-2.307-.573-4.621-.965-6.913zm-135.385 79.457c-.286-1.493-.528-3.038-.965-4.501-.422-1.402-1.289-1.922-2.608-2.314-3.498-1.04-7.124-1.742-10.705-2.45-2.043-.407-4.093-.807-6.166-1.033-1.727-.188-2.707.4-4.011 1.538-1.915 1.666-3.716 3.46-5.48 5.277-1.131 1.161-3.167 2.767-3.559 4.418-.037.173-.06.331-.068.49-.007.037-.007.067-.015.098-.241 3.316.196 6.845.483 10.146.136 1.538.09 3.468.852 4.855.633 1.154 2.028 1.485 3.196 1.885 3.913 1.327 7.923 2.45 11.941 3.407 1.553.37 3.181.792 4.78.86 1.635.068 3.038-.912 4.304-1.832a54.157 54.157 0 005.699-4.802c1.237-1.191 2.888-2.609 3.43-4.305.475-1.492.166-3.317-.015-4.832-.271-2.314-.656-4.613-1.093-6.905zm285.381-330.943c-.257-1.501-.468-3.046-.875-4.516-.399-1.41-1.297-1.922-2.593-2.337-3.475-1.108-7.094-1.885-10.652-2.669-2.036-.444-4.079-.889-6.144-1.145-1.719-.219-2.706.384-4.026 1.485-1.945 1.62-3.784 3.384-5.586 5.164-1.161 1.145-3.196 2.698-3.626 4.357a2.26 2.26 0 00-.075.58v.015c-.309 3.31.06 6.853.279 10.155.098 1.492.06 3.249.678 4.636.603 1.334 2.005 1.689 3.272 2.149 3.882 1.409 7.87 2.608 11.866 3.641 1.53.392 3.173.889 4.764.942 1.643.053 3.03-.859 4.335-1.764 2.035-1.417 3.965-3.008 5.789-4.697 1.267-1.168 2.933-2.555 3.491-4.251.49-1.485.226-3.317.067-4.833-.226-2.306-.572-4.621-.964-6.912zm369.507 109.678a107.63 107.63 0 00-.97-6.928c-.26-1.5-.47-3.045-.87-4.515-.4-1.41-1.3-1.923-2.6-2.337-3.47-1.108-7.09-1.885-10.65-2.669-2.03-.445-4.08-.889-6.14-1.146-1.72-.218-2.71.385-4.03 1.485-1.94 1.621-3.78 3.385-5.58 5.164-1.17 1.146-3.2 2.699-3.63 4.358-.05.203-.08.392-.08.58v.015c-.31 3.31.06 6.853.28 10.155.1 1.492.06 3.249.68 4.636.6 1.334 2.01 1.688 3.27 2.148 3.89 1.41 7.87 2.609 11.87 3.641 1.53.392 3.17.89 4.76.943 1.65.052 3.03-.86 4.34-1.764 2.03-1.418 3.96-3.008 5.79-4.697 1.26-1.168 2.93-2.555 3.49-4.252.48-1.47.22-3.294.07-4.817z" fill="#fff"/><path d="M814.66 664.479h-.354c-1.214 0-2.103 1.04-2.699 2.073v-4.357h5.247v-3.83h-9.046v12.25h3.882v-1.334c0-.475.03-1.071.626-1.071.678 0 .678.536.678 1.101v6.672c0 .595-.18 1.04-.738 1.04-.596 0-.739-.415-.739-1.04v-3.649h-3.943v4.508c0 1.689.89 3.913 4.184 3.913h1.184c2.91 0 4.184-2.074 4.184-4.297v-9.107c-.008-1.357-.656-2.872-2.466-2.872zm86.784-272.497l-.068 3.377 2.315.045-.324 16.223 3.942.076.438-22.058-3.295-.068c-.173 1.365-.731 2.45-3.008 2.405zM712.023 493.828c.716-.369 1.447-1.191 1.492-3.324l.046-2.465c.052-2.518-1.252-4.267-4.245-4.328l-.829-.015c-2.963-.06-3.958 2.119-3.995 4.131l-.061 2.85 3.619.075.045-2.457c.015-.799.256-1.003.761-.995.566.007.769.226.754 1.025l-.06 3.023c-.015.709-.166.972-.852.965l-1.839-.038-.076 3.943 2.043.038c.679.015.739.278.724.904l-.083 4.297c-.015.686-.286 1.033-.822 1.025-.565-.015-.821-.369-.806-1.055l.068-3.498-3.853-.075-.09 4.448c-.038 2.012.957 3.995 4.221 4.055l.83.015c2.729.053 4.425-1.636 4.478-4.478l.113-5.518c.022-1.327-.498-2.171-1.583-2.548zm149.776-250.19c1.915-2.397 1.998-3.581 2.043-5.948l.023-1.244c.06-2.849-1.546-4.274-4.395-4.327l-.799-.015c-2.993-.06-4.071 1.998-4.116 4.041l-.076 3.882 3.709.075.068-3.407c.015-.709.196-1.003.761-.995.505.007.732.339.724 1.025l-.03 1.335c-.015.799-.091 1.454-1.161 3.181l-1.96 3.106c-2.45 3.897-2.767 5.051-2.827 7.742l-.045 2.254 9.996.196.151-7.591-3.852-.076-.076 3.769-2.759-.052c.008-.475-.188-.897 2.397-4.162.731-.919 1.523-1.884 2.224-2.789zm367.711 99.034l-.24-.007c-1.51-.03-2.48 1.259-3.06 1.9l.12-5.602c0-.444.19-.859.76-.844.59.015.71.309.69.875l-.04 2.457 4.06.083.07-3.324c.04-1.9-1.32-3.679-4.14-3.732l-.83-.015c-3.17-.06-4.61 1.839-4.66 4.591l-.27 13.667c-.05 2.315 1.36 4.327 4.54 4.395l.89.015c2.96.061 4.55-2.133 4.6-4.327l.14-7.297c.01-1.206-.7-2.797-2.63-2.835zm-1.65 9.582c-.01.565-.11 1.153-.91 1.138-.8-.015-.9-.58-.89-1.176l.09-5.103c.02-.709.32-1.063.95-1.048.62.015.88.316.86 1.115l-.1 5.074zM576.487 563.846h-3.468c-1.1 3.234-3.769 10.705-4.953 13.939v3.355h4.569v4.923h3.852v-4.923h2.043v-3.769h-2.043v-13.525zm-3.852 13.525h-1.809c.625-1.659 1.334-3.913 1.809-5.368v5.368z" fill="#111"/><path d="M915.798 418.789l45.654-15.936 2.925 7.425-36.555 11.142 4.991 12.039 7.297-3.844 2.141 6.046-7.418 2.925 10.939 26.844-7.938 1.32-22.036-47.961z" fill="#fff"/><path d="M961.844 449.848l-2.36-5.985 20.664-9.077-8.836-20.64-27.968 13.132 13.366 32.446 31.836-12.545-1.297-8.036-25.405 10.705zm-8.496-20.663l14.293-5.631 3.023 6.189-14.798 5.835-2.518-6.393zm52.402-24.071l-3.31-6.098-22.564 10.968 7.742 21.621 19.272-9.408 3.62 8.179-16.077 6.332.995 7.139 26.532-10.448-12.06-21.349-18.053 8.526-2.985-8.549 16.888-6.913z" fill="#fff"/><path d="M970.113 409.389l-3.045-8.888 59.852-24.41 2.98 4.975-15.44 5.971 19.86 41.492-4.51 1.772-22.86-40.158-36.837 19.246z" fill="#fff"/></svg>