<svg width="917" height="835" fill="none" xmlns="http://www.w3.org/2000/svg"><path fill="#fff" d="M-523 0H917v835H-523z"/><mask id="a" style="mask-type:alpha" maskUnits="userSpaceOnUse" x="-523" y="0" width="1440" height="835"><path fill="#FEF2D9" d="M-523 0H917v835H-523z"/></mask><g mask="url(#a)"><path fill="#FEF2D9" d="M-523 0H917v835H-523z"/><path opacity=".35" d="M764.193 422.204C751.83 380.546 811 113.236 785.874 77.322 736.828 7.221 675.163-46.295 589.434-65.587c-40.768-9.174-299.417-197.782-351.742-205.282-46.166-6.612-535.864-107.289-539.588-108.126-7.878-1.794 435.164 491.349 382.424 631.008-27.802 73.63-54.564 117.293-74.345 193.681-20.535 79.291 37.527 137.082 32.74 198.551-8.217 105.48 41.236 158.476 174.118 208.306 114.488 42.932 132.513 33.396 200.888 19.344 136.063-27.953 136.591 94.601 182.335 91.963 105.744-6.099 142.426 125.682 170.146 77.652 27.779-48.124-13.999-373.616-.151-427.6 16.155-62.985 16.419-129.369-2.066-191.706z" fill="#008C4C"/><path opacity=".7" d="M814.28 394.643c-12.363-41.658 46.807-308.968 21.681-344.882C786.915-20.34 725.249-73.856 639.521-93.148c-40.769-9.174-406.48-70.576-458.805-78.069-46.166-6.619-426.156-197.247-429.872-198.091-7.878-1.794-13.75 7.267-8.813 13.66.038.053.083.113.129.166 10.177 13.147 426.886 440.539 388.462 579.942-20.912 75.876-54.564 117.293-74.345 193.681-20.535 79.291 37.527 137.081 32.74 198.551-8.217 105.479 41.236 158.476 174.118 208.305 114.488 42.933 132.513 33.396 200.888 19.344 136.064-27.953 136.591 94.602 182.335 91.963 105.744-6.098 142.426 125.686 170.146 77.656 27.779-48.127-13.999-373.62-.151-427.603 16.155-62.993 16.419-129.377-2.073-191.714z" fill="#008C4C"/><path d="M1026.66 398.043c-12.37-41.658-80.501-647.465-75.005-603.983-9.273-73.41 148.565-131.977-747.887-56.185-90.907 7.69-446.532-120.85-441.594-114.465.038.052 422.778 431.96 388.591 580.108-17.701 76.69-54.564 117.292-74.346 193.681-20.535 79.29 37.527 137.081 32.74 198.551-8.217 105.479 41.236 158.475 174.119 208.305 114.488 42.932 132.513 33.396 200.888 19.344 136.063-27.953 379.876 134.353 425.62 131.714 105.744-6.099 46.49-6.031 74.202-54.066 27.782-48.127 59.022-191.163 72.882-245.147 16.16-62.985-32.13-141.725-50.62-204.069" fill="#008C4C"/><path d="M450.092 433.844c7.893-18.153 9.717-29.981 17.617-48.134.317-.731.679-1.47 1.259-.875.626.641-.263 3.634.355 5.473 5.91 17.55 12.235 37.882 32.619 85.752-1.425 1.809-29.551 13.177-31.142 13.147-6.656-15.236-15.182-33.087-20.324-54.089" fill="#193222"/><path d="M625.793 158.467l.679-2.118-3.355-1.071-.679 2.119-2.849-.905 1.681-5.292.505.158c.189-.173.498-.821.927-1.93.415-1.115 1.508-4.379 3.295-9.785l7.335 2.337-3.777 11.859.769.241-1.681 5.292-2.85-.905zm-.068-8.247c-.369.935-.716 1.666-1.033 2.186l1.614.513 2.819-8.85-1.168-.37c-1.403 4.116-2.141 6.295-2.232 6.521zm6.28 4.184l1.349-4.131c.385-1.169.965-1.96 1.742-2.375.784-.414 1.726-.445 2.827-.083l.625.204c1.116.362 1.87.942 2.262 1.726.392.792.392 1.764.015 2.94l-1.35 4.131c-.369 1.131-.964 1.915-1.779 2.352-.821.438-1.756.483-2.819.144l-.648-.212c-2.269-.738-3.008-2.306-2.224-4.696zm4.711-3.438l-1.56 4.795c-.151.46-.068.739.241.837.324.105.558-.068.709-.528l1.56-4.795c.151-.459.061-.738-.264-.844-.309-.105-.542.075-.686.535zm6.973-1.025l3.197 1.063-.445 1.327c.513-.377.973-.633 1.387-.769.407-.136.845-.121 1.297.03l.06.023c.641.211 1.048.61 1.206 1.183.159.573.106 1.267-.166 2.066l-1.997 5.993c-.249.754-.656 1.304-1.206 1.651-.551.347-1.124.43-1.697.241l-.06-.022c-.776-.257-1.319-.898-1.621-1.923l-1.598 4.81-3.219-1.071 4.862-14.602zm2.262 3.95l-1.726 5.194c-.143.43-.076.694.211.784.294.098.512-.06.648-.475l1.734-5.209c.136-.399.053-.656-.241-.754-.287-.098-.49.061-.626.46zm4.35 6.544l1.395-4.116c.392-1.161.987-1.953 1.771-2.352.784-.407 1.727-.422 2.827-.046l.626.212c1.108.376 1.854.964 2.239 1.756.377.792.369 1.772-.023 2.94l-1.394 4.116c-.385 1.123-.988 1.9-1.81 2.33-.821.429-1.764.459-2.827.105l-.64-.219c-2.255-.768-2.978-2.344-2.164-4.726zm4.749-3.377l-1.621 4.779c-.158.452-.075.731.227.837.324.105.557-.061.716-.52l1.621-4.78c.15-.452.067-.739-.249-.844-.309-.098-.535.075-.694.528zm6.431 10.945l-3.204-1.108 3.732-10.78 5.269 1.825-.934 2.706-2.066-.716-2.797 8.073zm4.281-.67l.747-2.119c.369-1.055 1.093-1.658 2.171-1.824.219-.03.678-.068 1.364-.113a29.602 29.602 0 001.229-.098c.174-.015.287-.121.362-.324l.196-.558c.113-.317.045-.528-.211-.611l-.06-.022c-.264-.091-.46.022-.566.339l-.354 1.002-2.842-1.002.43-1.221c.263-.747.723-1.252 1.372-1.508.655-.256 1.492-.204 2.518.158l.437.158c1.131.4 1.892.905 2.269 1.508.377.603.415 1.334.12 2.186l-1.952 5.541c-.053.159.015.279.219.347l.279.098-.92 2.623-2.82-.995c-.55-.196-.678-.693-.392-1.507-.859.701-1.703.904-2.533.618l-.082-.03c-.536-.189-.882-.536-1.041-1.041-.158-.512-.136-1.04.06-1.605zm4.102.55l.866-2.458c-.309.061-.542.136-.708.226-.219.151-.385.385-.498.702l-.445 1.259c-.12.346-.06.565.196.655.272.083.468-.037.589-.384zm8.745 2.405l1.492-4.086c.423-1.154 1.033-1.923 1.825-2.315.799-.384 1.734-.384 2.827.016l.618.226c1.1.399 1.832 1.002 2.194 1.809.361.799.331 1.779-.091 2.932l-1.493 4.086c-.407 1.116-1.025 1.877-1.862 2.292-.836.407-1.779.422-2.827.038l-.64-.234c-2.217-.814-2.903-2.405-2.043-4.764zm4.832-3.272l-1.734 4.742c-.166.452-.098.731.211.844.317.113.558-.053.724-.505l1.734-4.742c.166-.452.09-.739-.234-.852-.301-.113-.535.061-.701.513zm4.334 10.426l3.076-7.968-1.56-.604 1.032-2.668 6.31 2.435-1.033 2.668-1.56-.603-3.076 7.969-3.189-1.229zm13.908 5.669l2.548-5.828-1.108-.482-2.548 5.827-3.204-1.402 6.317-14.459 3.204 1.402-2.291 5.247 1.108.483 2.291-5.247 3.204 1.402-6.317 14.459-3.204-1.402zm6.386-1.025l1.929-3.898c.543-1.1 1.237-1.802 2.066-2.103.837-.294 1.772-.189 2.804.324l.588.294c1.048.52 1.712 1.199 1.983 2.035.271.837.136 1.802-.407 2.91l-1.93 3.898c-.528 1.063-1.229 1.756-2.103 2.073-.875.317-1.809.226-2.812-.264l-.611-.302c-2.118-1.062-2.623-2.713-1.507-4.967zm5.156-2.729l-2.239 4.523c-.211.429-.173.716.121.859.301.151.565.008.776-.422l2.239-4.523c.211-.43.166-.724-.136-.875-.301-.135-.55.008-.761.438zm5.918 12.506l-4.206-2.39 5.631-9.92 4.056 2.306c.942.536 1.515 1.056 1.703 1.553.189.498.076 1.116-.346 1.855l-.483.844c-.52.912-1.176 1.289-1.967 1.146.286.354.452.716.505 1.063.052.354-.091.822-.415 1.395l-.679 1.198c-.474.837-.987 1.335-1.545 1.5-.558.166-1.312-.007-2.254-.55zm-.121-2.699l.257.144c.347.196.633.082.874-.332l.588-1.033c.234-.407.174-.709-.173-.905l-.256-.143-1.29 2.269zm2.368-4.169l.256.144c.279.158.535.045.761-.347l.377-.663c.196-.347.151-.596-.128-.754l-.256-.144-1.01 1.764zm3.58 6.167l2.405-3.626c.679-1.025 1.448-1.636 2.314-1.824.867-.189 1.78.037 2.745.678l.55.362c.98.648 1.545 1.402 1.711 2.269.166.867-.09 1.809-.769 2.835l-2.405 3.626c-.656.987-1.44 1.583-2.344 1.794-.905.203-1.825 0-2.759-.618l-.566-.377c-1.982-1.312-2.276-3.016-.882-5.119zm5.458-2.05l-2.789 4.206c-.264.4-.264.694.007.867.287.188.558.083.822-.317l2.789-4.206c.264-.4.257-.694-.022-.882-.279-.181-.543-.068-.807.332zm7.411 1.266l2.654 2.073-.86 1.101c.611-.189 1.131-.272 1.561-.257.43.015.837.166 1.214.46l.052.038c.536.415.777.927.739 1.515-.045.596-.324 1.229-.852 1.892l-3.89 4.976c-.49.626-1.055 1.01-1.696 1.153-.641.143-1.198.03-1.681-.346l-.053-.038c-.648-.505-.942-1.289-.874-2.352l-3.121 3.988-2.669-2.089 9.476-12.114zm.807 4.478l-3.37 4.312c-.279.354-.301.626-.068.807.242.188.505.113.769-.234l3.385-4.327c.264-.332.271-.596.023-.792-.234-.173-.483-.098-.739.234zm1.839 7.674l2.94-3.204c.829-.904 1.689-1.387 2.571-1.44.882-.052 1.749.31 2.608 1.094l.483.444c.867.792 1.311 1.629 1.341 2.511.031.882-.369 1.771-1.206 2.676l-2.94 3.204c-.799.874-1.666 1.342-2.593 1.402-.927.06-1.802-.287-2.623-1.04l-.498-.46c-1.757-1.606-1.779-3.332-.083-5.187zm5.714-1.183l-3.407 3.716c-.324.354-.37.641-.128.86.248.226.535.165.859-.189l3.408-3.716c.324-.355.361-.649.113-.875-.242-.219-.521-.151-.845.204zm5.352 9.732l2.104 2.239-1.666 1.568c-.671.626-1.403.935-2.194.912-.792-.023-1.545-.407-2.254-1.161l-.437-.46c-.754-.806-1.124-1.621-1.108-2.45.015-.829.407-1.605 1.183-2.329l3.709-3.483c.769-.724 1.576-1.101 2.412-1.131.837-.03 1.659.385 2.458 1.237l.482.512c1.455 1.546 1.44 3.008-.03 4.395l-1.251 1.176-2.088-2.224 1.206-1.131c.301-.278.347-.527.143-.746-.173-.188-.407-.143-.693.128l-4.094 3.845c-.279.264-.332.483-.158.671.196.204.422.181.693-.068l1.583-1.5zm5.987 6.92l1.937 2.383-1.779 1.447c-.716.58-1.463.829-2.254.754-.792-.076-1.515-.513-2.164-1.319l-.399-.498c-.694-.852-1.003-1.696-.927-2.525.075-.83.527-1.576 1.349-2.239l3.95-3.212c.822-.671 1.651-.987 2.488-.957.837.03 1.621.505 2.367 1.409l.445.543c1.334 1.644 1.221 3.106-.347 4.38l-1.334 1.086-1.923-2.367 1.282-1.041c.317-.256.384-.505.196-.731-.158-.196-.392-.173-.701.075l-4.357 3.544c-.294.241-.362.459-.204.655.181.219.407.211.694-.022l1.681-1.365zm3.406 13.298l-1.892-2.714 4.402-3.068-5.141 2.006-1.892-2.714 9.363-6.521 1.892 2.714-4.418 3.075 5.157-2.012 1.892 2.713-9.363 6.521zm4.871 8.172l-1.674-2.849 4.629-2.714-5.277 1.598-1.674-2.85 9.838-5.774 1.674 2.849-4.644 2.729 5.3-1.613 1.673 2.85-9.845 5.774zm8.255-9.348l-.046-.075c-.407-.694-.543-1.349-.392-1.968.143-.618.566-1.13 1.259-1.537l.219-.129 1.063 1.81-.128.075c-.43.249-.551.52-.385.814l.008.015c.181.302.482.332.904.083l.128-.075 1.041 1.771-.219.128c-.686.4-1.334.513-1.952.332-.611-.166-1.108-.58-1.5-1.244zm-1.071 12.296l1.349 2.759-2.058 1.01c-.829.407-1.613.483-2.367.226-.754-.256-1.357-.844-1.809-1.771l-.279-.573c-.483-.988-.596-1.877-.339-2.669.256-.792.867-1.417 1.816-1.885l4.569-2.239c.95-.467 1.832-.588 2.638-.369.807.219 1.47.852 1.983 1.907l.309.626c.935 1.907.49 3.302-1.319 4.191l-1.546.754-1.341-2.744 1.485-.731c.369-.181.49-.407.354-.671-.113-.226-.347-.256-.701-.083l-5.043 2.473c-.34.166-.46.369-.347.595.12.257.354.302.678.136l1.968-.942zm-.86 10.772l3.46-2.827-3.957 1.584-1.259-3.152 10.591-4.236 1.259 3.151-3.874 1.553 4.349-.37 1.191 2.971-5.593.346-4.93 4.056-1.237-3.076zm3.46 3.317l2.141-.671c1.063-.331 1.983-.12 2.759.641.151.158.46.498.913 1.025.452.528.723.83.814.92.113.128.271.158.475.098l.565-.181c.324-.098.445-.279.362-.535l-.023-.06c-.083-.272-.286-.355-.61-.249l-1.011.316-.904-2.872 1.236-.384c.754-.241 1.432-.174 2.028.196.596.369 1.055 1.07 1.387 2.111l.143.444c.362 1.146.415 2.051.159 2.722-.257.663-.814 1.138-1.681 1.41l-5.602 1.764c-.158.052-.211.181-.15.377l.09.286-2.646.837-.897-2.85c-.173-.55.151-.957.972-1.214-1.078-.271-1.749-.821-2.012-1.658l-.023-.083c-.166-.543-.098-1.025.211-1.455.302-.445.739-.754 1.304-.935zm2.028 3.611l2.488-.784c-.226-.211-.43-.354-.603-.429-.249-.083-.535-.076-.86.022l-1.274.4c-.354.113-.482.294-.407.55.083.271.302.354.656.241z" fill="#fff"/><path d="M819.572 483.538c-.06-9.431-.188-18.854-.309-28.277-.06-4.667-.121-9.341-.188-14.007-.061-4.35.052-8.737-.317-13.072-.385-4.523-1.259-9.219-3.837-13.057-2.397-3.573-5.775-6.347-9.68-8.134-3.656-1.673-7.395-2.729-11.27-3.716a128.532 128.532 0 01-12.129-3.732c-.98-.354-1.96-.724-2.933-1.1a107.08 107.08 0 01-1.342-.536c-.294-.12-.595-.241-.889-.362-.076-.03-.136-.052-.189-.075a130.146 130.146 0 01-5.782-2.638c-3.724-1.81-7.312-3.868-10.901-5.933-1.779-1.026-3.611-2.088-5.48-3.099a130.135 130.135 0 01-8.828-8.616c-1.515-1.621-2.902-3.385-4.448-4.968-1.485-1.531-2.849-3.038-4.116-4.757-2.661-3.611-4.734-7.629-6.724-11.64-.52-1.055-1.9-1.605-3.008-1.439-1.266.188-2.05.995-2.51 2.156-9.152 23.294-21.184 47.432-41.787 62.66-9.777 7.23-20.912 12.575-32.988 14.452-6.144.949-12.695.655-18.719-.845-6.355-1.583-11.85-4.794-16.539-9.34a43.6 43.6 0 01-3.099-3.362c-5.307-8.278-9.212-17.603-11.549-27.358-3.158-13.207-4.093-26.618-3.98-40.339.121-14.33 1.749-28.586 3.731-42.766 1.825-13.064 3.28-26.181 5.526-39.178.453-2.307.935-4.606 1.538-6.875.098-.369.113-.754.053-1.116a429.51 429.51 0 0118.688 7.2c2.269.934 4.553 1.869 6.973 2.337 1.666.316 3.445.61 4.938-.219 2.405-.784 3.174-4.191 3.144-6.551-.031-2.247-.287-4.501-.453-6.739-.143-1.93-.301-3.868-.648-5.775-.663-3.649-2.164-7.109-5.081-9.506a15.32 15.32 0 00-4.094-2.397c-2.088-1.501-4.983-2.224-7.176-3.039-7.825-2.917-15.658-5.849-23.513-8.699-3.95-1.432-7.931-2.782-12.009-3.784-3.837-.943-7.742-1.561-11.647-.649-6.687 1.561-12.054 6.702-16.494 11.662-.408.46-.822.935-1.199 1.44-.927.95-1.779 1.975-2.277 3.219-1.477 3.679 2.171 6.167 5.096 7.456 3.875 1.704 8.195 2.45 12.266 3.543a435.11 435.11 0 019.106 2.563c-.083 1.289-.105 2.586-.136 3.883-.082 3.083-.173 6.159-.188 9.249-.03 6.167-.075 12.326-.015 18.493.121 12.242.369 24.477.58 36.72.211 12.084.551 24.176.385 36.26-.083 6.039-.309 12.07-.799 18.085-.309 3.815-.671 7.23-1.176 10.705a98.46 98.46 0 01-.279 1.417c-1.334 6.446-3.083 12.869-5.677 18.922-2.322 5.413-5.307 10.615-9.106 15.123-1.877 2.231-3.943 4.319-6.189 6.181-2.081 1.727-4.35 2.993-7.049 1.998a14.521 14.521 0 01-2.427-1.191 14.134 14.134 0 00-.807-.656c-.06-.053-.121-.113-.181-.166-9.514-13.124-21.327-24.5-34.858-33.471a124.062 124.062 0 00-5.647-3.528c-2.902-1.711-7.191-.754-8.812 2.314-1.636 3.099-.792 6.988 2.314 8.813a127.602 127.602 0 0110.758 7.101c.392.287.776.581 1.168.875.091.067.189.143.279.211.814.686 1.681 1.319 2.503 1.997a130.252 130.252 0 014.877 4.222 134.58 134.58 0 014.486 4.289 61.085 61.085 0 00-7.426-4.063 77.473 77.473 0 00-6.498-2.646 5.286 5.286 0 00-2.352-.241c-6.114-3.091-12.793-5.013-19.683-5.232-11.956-.377-23.136 5.172-30.908 14.12-2.986 3.437-5.519 7.229-7.629 11.24-3.415 2.488-6.288 5.729-8.662 9.34a57.25 57.25 0 01.761-15.514 53.025 53.025 0 015.564-15.605c.075-.136-.129-.264-.212-.128-6.008 9.928-8.45 21.62-7.644 33.109-.173-.173-.346-.347-.52-.512-1.093-1.063-2.759-.762-3.565.459a35.614 35.614 0 00-1.568 2.624c-.596-2.096-2.141-3.898-4.396-4.41a7.135 7.135 0 00-4.786.603c-.008-.038-.008-.076-.016-.121-.226-2.322-3.889-2.344-3.656 0 .196 1.99.053 4.086.083 6.099v.106a48.68 48.68 0 00-.61 4.651 88.202 88.202 0 01-1.146-6.099c-.166-1.093-1.553-.912-1.968-.113-.49-.173-1.138.098-1.116.746.061 1.727.091 3.453.181 5.179.083 1.712.422 3.408.679 5.096v.023c.151 2.744.437 5.481.874 8.217.098.596.226 1.282.226 1.832 0 .935-.022 1.756.174 2.691.332 1.606.761 3.204 1.168 4.795.159.61.324 1.213.483 1.817a685.728 685.728 0 001.741 11.006c.573 3.43 1.38 6.996 1.862 10.576a24.256 24.256 0 01-.535 3.981c-.724 3.189-2.541 6.204-5.729 6.905-2.315.505-4.848-.234-7.072-.837-2.6-.701-5.171-1.56-7.704-2.495-4.998-1.847-9.891-3.965-14.904-5.789-5.051-1.84-10.177-3.197-15.326-4.712-10.365-3.061-20.912-5.481-31.579-7.177-2.902-.46-5.819-.867-8.752-1.214a216.039 216.039 0 00-38.515-4.975c-7.772-.294-15.582-.143-23.309.829-7.802.98-15.167 2.85-22.623 5.277a99.29 99.29 0 00-3.988 1.395c7.147-6.265 13.931-12.951 20.256-20.045 17.49-19.623 31.956-41.975 42.51-66.053 5.285-12.047 9.74-24.448 13.095-37.173 3.46-13.155 5.043-26.603 7.207-39.999 1.884-11.67 4.44-23.574 10.222-33.962a70.857 70.857 0 003.822 4.463c11.391 12.228 25.721 18.779 41.914 21.96 32.688 6.423 68.368-6.084 89.114-31.398 5.94-7.252 10.569-15.296 13.991-23.995 2.39-6.077 1.38-12.017-1.673-17.611-2.631-4.817-3.272-9.762-2.179-15.167.626-3.083 1.892-5.729 3.445-8.338 1.561-2.616-.279-7.516-3.287-8.601-2.48-.897-4.93-.603-7.237.58-1.417.724-2.156 1.938-2.367 3.604-.867 6.845-1.432 13.757-4.176 20.226-1.055 2.487-2.028 4.915-4.817 6.106-.935.399-1.696 1.432-2.315 2.329-6.03 8.722-13.463 15.944-22.344 21.794-18.741 12.341-39.042 14.904-63.414 9.559-4.297-1.492-11.233-4.078-18.289-6.287-5.616-1.757-11.345-3.174-17.082-4.501-1.93-.444-4.056-.331-6.054-.135-4.41.437-7.44 5.45-5.902 9.709 1.341 3.702 3.068 7.162 5.111 10.426-.181.294-.362.581-.543.867-3.543 5.699-6.136 11.987-8.104 18.387-4.026 13.109-5.511 26.799-7.893 40.256-2.239 12.672-5.413 25.209-9.574 37.384-8.255 24.153-20.784 46.972-36.26 67.334-7.705 10.132-16.269 19.653-25.405 28.511-7.727 7.486-15.982 14.316-24.554 20.776-3.837 2.141-7.651 4.342-11.481 6.491-6.053 3.4-12.175 6.694-18.515 9.521-.414.189-.836.369-1.251.55-.105.046-.392.166-.58.249-.686.279-1.372.558-2.058.829a110.752 110.752 0 01-4.81 1.757c-3.302 1.123-6.641 2.126-9.981 3.128-13.2 3.966-27.365 7.976-36.992 18.508-9.204 10.064-13.765 24.312-10.516 37.753a32.284 32.284 0 001.251 3.98c.505 1.938 1.282 3.807 2.254 5.556 1.402 2.533 3.219 4.877 5.262 6.928 7.524 7.546 18.153 11.692 28.76 11.609 4.779-.037 10.102-.61 14.647-2.329a22.474 22.474 0 009.454-6.853c3.814-4.734 5.103-10.282 5.774-16.215.814-7.124.95-14.301 1.742-21.432.361-3.234 1.002-6.385 1.847-9.491.022-.053.037-.098.06-.151-.008.015.136-.324.249-.603.113-.256.377-.882.369-.859.279-.641.565-1.282.859-1.923a124.943 124.943 0 012.292-4.734 108.36 108.36 0 014.93-8.632 93.439 93.439 0 012.76-4.116 83.68 83.68 0 011.907-2.601l.686-.874a90.03 90.03 0 016.604-7.38 74.316 74.316 0 019.566-8.044c4.727-2.684 9.453-5.352 14.233-7.916.384-.203.776-.407 1.161-.61a93.684 93.684 0 017.81-2.91c13.079-4.222 25.654-5.744 39.374-5.458 30.561.641 59.931 11.172 87.975 22.804 1.621.671 2.616 1.093 3.626 1.523.995.422 1.99.852 2.993 1.274.407.173.821.339 1.228.513.106.045.686.286.89.377a185.423 185.423 0 018.994 4.108c3 1.485 5.955 3.076 8.82 4.817a80.334 80.334 0 013.972 2.556c.724.49 1.433.995 2.141 1.508.279.203.558.414.837.625.106.076.181.136.234.174.015.015.105.083.316.256.287.219.566.437.852.656a50.61 50.61 0 011.192.972 87.133 87.133 0 011.779 1.538 59.525 59.525 0 013.565 3.468c2.601 2.744 4.245 4.945 6.348 7.765.626.844 1.259 1.688 1.892 2.54 2.375 4.282 4.779 8.556 7.516 12.605.407.603.829 1.213 1.251 1.816-1.734-.113-3.467-.188-5.186-.278a96.388 96.388 0 00-10.547.06 101.92 101.92 0 00-11.014 1.281c-3.716.634-7.304 1.621-10.961 2.496-7.161 1.718-14.18 4.033-21.032 6.739-13.268 5.239-26.468 11.512-37.98 20.023-10.048 7.44-18.763 16.411-26.075 26.55-4.086 5.669-7.72 11.685-10.645 18.025a89.044 89.044 0 00-3.716 9.491 110.492 110.492 0 00-1.546 5.104c-.482 1.719-.708 3.505-1.01 5.262-.075.429.49.58.648.181a273.61 273.61 0 013.151-7.765c.212.324.777.415 1.011 0 .407-.716.806-1.432 1.198-2.156-.06.234-.113.475-.173.709a87.026 87.026 0 00-1.056 4.191c-.128.573.144 1.01.536 1.236a59.49 59.49 0 00-.641 4.32c-.241 2.292-.475 4.583-.618 6.89-.015.256.407.317.452.06.799-4.575 2.209-9.001 3.8-13.358 1.598-4.387 3.347-8.647 5.473-12.808 4.266-8.36 9.543-16.034 15.951-22.895 13.743-14.707 31.587-24.741 50.682-30.757 9.883-3.113 20.166-4.99 30.456-6.053 11.097-1.146 22.48-1.583 33.471.625 10.833 2.179 21.244 6.046 32.114 8.044 11.399 2.096 22.782 1.809 34.188-.008 5.156-.595 10.29-1.47 15.25-2.811 15.884-4.282 31.157-13.14 40.128-27.298 4.908-7.749 7.313-16.796 9.084-25.706 1.855-9.34 2.955-18.99 2.782-28.519a169.501 169.501 0 00-.211-5.842c-.046-3.905-.287-7.802-.656-11.632-.829-8.601-2.518-17.052-3.641-25.609-.528-4.04-.837-8.134-.551-12.204.272-3.981 1.169-7.841 2.149-11.7.015-.068.038-.128.053-.196.369-1.071.753-2.141 1.153-3.204 1.636-4.342 3.415-8.685 5.006-13.08 2.781-5.646 5.043-11.564 6.845-17.565.738-2.45 1.387-4.922 1.975-7.402.203-.603.392-1.199.58-1.802 1.056-3.453 1.87-7.041 2.202-10.645 2.284 11.746 6.249 23.061 12.672 33.328 6.95 11.112 16.072 20.732 25.759 29.491 9.288 8.406 19.239 16.08 29.551 23.174 20.543 14.127 42.586 25.895 64.711 37.316 22.262 11.496 44.719 22.668 66.189 35.62a617.47 617.47 0 013.762 2.291c1.591.98 3.204 1.568 4.983 2.111a3.342 3.342 0 002.435-.158c.113.083.218.173.331.249 3.694 2.593 8.255 1.568 12.025-.264 4.952-2.405 6.445-8.067 6.829-13.087.347-4.576.204-9.227.264-13.811.061-4.666-.022-9.34-.052-14.007-.053-9.521-.114-19.034-.174-28.548zM582.567 248.184c.008 0 .008-.008 0 0zM167.222 541.705c-.038-.06-.075-.12-.121-.18l.86-.317c-.257.166-.498.332-.739.497zm16.17 8.934l-.022.045c-.083-.128-.181-.249-.272-.369.317-.385.641-.762.965-1.139-.226.49-.452.973-.671 1.463zm187.002-48.481a257.624 257.624 0 00-3.995-1.598 248.15 248.15 0 016.038 1.952c-.679-.128-1.365-.241-2.043-.354zm-61.967 139.901c-.008-.008-.015-.008-.03-.015.113-.219.234-.43.347-.648-.106.218-.212.437-.317.663zm38.356-42.314c-5.812 3.988-11.36 8.33-16.494 13.125a119.904 119.904 0 018.518-7.494c4.026-3.211 8.285-6.098 12.695-8.722-1.59.995-3.166 2.028-4.719 3.091zm14.829-4.923a145.2 145.2 0 011.937-.957c.136-.023.264-.053.4-.083-.784.347-1.561.694-2.337 1.04zm61.25-14.368c.046-.045.091-.091.129-.143 1.605-.008 3.211.015 4.817.06a118.04 118.04 0 00-4.946.083zm21.387 1.507c-.301-.06-.595-.113-.897-.173 1.063.166 2.119.347 3.182.528a8.17 8.17 0 001.07.369 103.738 103.738 0 00-3.355-.724zm3.973.867c.03.008.061.015.083.015.008 0 .008.008.015.008a1.842 1.842 0 00-.098-.023zm7.946-66.151c-.279-.414-.558-.829-.829-1.243-.121-.325-.234-.649-.355-.973a85.83 85.83 0 002.42 3.965 90.648 90.648 0 01-1.236-1.749zm14.708 45.662a67.07 67.07 0 00-.445-.046c-.023-.143-.038-.286-.06-.422l.542.453c-.015.007-.03.015-.037.015zm12.589-139.366c-.007.083-.007.166-.007.249a17.792 17.792 0 00-4.546 1.523 29.144 29.144 0 00-.701-.242c1.432-1.605 3.068-2.985 5.028-3.935.022.008.633-.249.641-.256.218-.068.444-.113.655-.181.091-.03.159-.053.204-.075.045 0 .106.007.188.007h.438c-1.071.49-1.825 1.561-1.9 2.91zm6.973 6.83c0-.008 0-.023-.007-.03.188.053.377.105.565.166.015.06.03.12.045.188-.196-.113-.399-.218-.603-.324zm4.923-8.782a20.29 20.29 0 00-.89-1.87c.777.136 1.546.286 2.307.46a4.156 4.156 0 00-1.417 1.41zm3.475 23.55a4.244 4.244 0 00-.43.158c-.309-.309-.603-.633-.897-.957-.113-.294-.233-.588-.346-.89l.09-.233c.58.61 1.146 1.244 1.681 1.899l-.098.023zm12.273-12.876c-.136.06-.264.128-.392.211-1.742-1.56-3.581-3-5.503-4.319.618.165 1.229.346 1.832.557 1.228.43 2.133.837 3.588 1.629a34.957 34.957 0 012.872 1.771c-.821-.203-1.704-.158-2.397.151zm21.538 119.155c.083-.829.15-1.666.211-2.503.188-.249.377-.505.558-.761a21.758 21.758 0 01-.769 3.264zm58.944-236.576c-.008-.701-.023-1.409-.03-2.11h.075v.241c0 .309.053.58.143.837-.06.339-.128.686-.188 1.032zm28.865 117.444c-.083-.098-.166-.189-.249-.287.106.068.219.136.324.211-.022.023-.052.046-.075.076zm17.64 17.384c.452.346.912.693 1.372 1.032 0 .053.008.106.008.166-.46-.407-.92-.806-1.38-1.198zm17.022-11.723a3.266 3.266 0 00-.316-.475c.294-.045.58-.098.867-.143a21.5 21.5 0 00-.551.618zm37.942 49.589c.038-.053.083-.113.12-.166.083.053.166.113.249.173.641.43 1.274.86 1.907 1.29-.761-.43-1.522-.86-2.276-1.297zm27.9-94.903c.143-.234.287-.475.422-.709.03.174.068.347.106.52a2.986 2.986 0 00-.528.189zm79.713 145.494a.354.354 0 01-.098-.06c.128-.023.226-.038.301-.045.031.015.068.03.106.045a1.05 1.05 0 01-.309.06zm.045-3.008a49.472 49.472 0 01-.09-1.537c.105.15.233.278.384.369-.09.392-.188.776-.294 1.168zm.912 3.4l-.022-.022c.022.022.053.037.075.06-.015-.015-.03-.03-.053-.038zm.219.226c-.113-.203-.249-.399-.369-.595.098.098.233.301.399.626a.057.057 0 00-.03-.031zm.106.204c.007 0 .007 0 0 0 .022.038.037.068.052.098-.015-.03-.03-.068-.052-.098zm3.392-104.748c-.098 2.532-.211 5.066-.324 7.591a62.877 62.877 0 00-.242-1.726 140.987 140.987 0 01.513-5.986c.023-.173.038-.354.06-.528a6.09 6.09 0 01-.007.649zM313.13 677.49c.015-.354-.083-.693-.354-.95-.528-.49-1.478-.55-2.118-.716-1.109-.286-2.217-.58-3.325-.852a297.418 297.418 0 00-5.654-1.342c-1.04-.392-2.126-.648-2.774-.226a.457.457 0 00-.369.362c-.905 4.35-1.312 8.79-1.915 13.193a455.962 455.962 0 01-1.138 7.81c-.596 2.397-1.192 4.802-1.817 7.191-.159.619.294 1.071.867 1.139 4.425.52 8.865.671 13.313.445.362-.016.784-.264.859-.649a914.558 914.558 0 004.433-25.05c.007-.129.015-.242-.008-.355zm-9.724-1.5c-.046-.023-.098-.045-.144-.068.053.015.106.038.159.06 0 0-.008.008-.015.008zm7.945 2.36a.454.454 0 00-.09-.121l.105.023c-.007.03-.007.067-.015.098zm7.185-1.938c-1.237-.203-2.767-.218-3.83.121-.716.226-.905.867-.958 1.538-.791 3.965-1.319 7.991-1.997 11.971-.347 2.058-.716 4.109-1.071 6.167-.354 2.125-.595 4.342-1.176 6.415-.128.452.159.98.626 1.101 1.41.346 2.887.618 4.229 1.198.633.272 1.568-.015 1.561-.829.294-.731.354-1.545.459-2.322.166-1.214.325-2.427.483-3.634l.972-7.267c.302-2.254.619-4.508.905-6.762.302-1.847.528-3.716.822-5.548.083-.505.46-1.508.03-1.953-.219-.211-.648-.226-1.055-.196zm-7.17 25.526l.023-.136c.03.045.06.098.098.143-.045-.007-.083-.007-.121-.007zM462.1 750.886c3.34-3.377 6.408-6.973 9.529-10.539.136-.151.219-.437.083-.618-.867-1.124-1.862-2.149-2.917-3.106-.114-.136-.242-.256-.37-.377-1.281-1.184-2.608-2.337-3.905-3.506-1.244-1.115-2.473-2.389-3.935-3.226-.241-.136-.603.158-.407.407.098.128.211.256.317.385-.506 0-1.101.218-1.455.52-2.285 1.945-4.222 4.5-6.227 6.717a153.81 153.81 0 01-6.212 6.483c-.4.392-.776.791-1.146 1.198a1568.995 1568.995 0 01-5.179 5.111c-.203.204-.181.513 0 .724 1.606 1.84 3.234 3.687 5.096 5.27a96.295 96.295 0 005.526 4.342c.249.181.603.075.814-.106 3.573-3.113 7.056-6.309 10.388-9.679zm3.347-10.253c-.007 0-.007 0 0 0l-.158-.135c.091.007.181.007.272.007a.92.92 0 01-.114.128zm.445-2.902c-.09-.068-.173-.128-.249-.196-.791-.648-1.726-1.176-2.404-1.93.889.701 1.786 1.402 2.653 2.126zm-11.504 12.838a26.796 26.796 0 00-2.359-2.08c-.603-.475-1.244-1.048-1.915-1.493.083-.083.158-.166.241-.249a575.583 575.583 0 003.769-3.731c1.915-1.923 4.215-3.996 5.76-6.325l.038-.038c1.394 1.545 2.894 2.955 4.493 4.312a194.287 194.287 0 00-10.027 9.604zm21.742-6.664a17.033 17.033 0 00-1.575-1.477 31.106 31.106 0 00-2.013-1.689c-.189-.143-.453-.015-.566.151-1.311 1.952-3.015 3.663-4.583 5.412-1.508 1.674-3.068 3.287-4.636 4.893-3.332 3.415-6.672 6.822-9.944 10.298-.286.301-.196.716.121.949a24.644 24.644 0 013.943 3.611c.165.189.527.189.693 0 3.098-3.513 6.385-6.875 9.469-10.41a688.934 688.934 0 009.159-10.69c.188-.226.181-.482.015-.686.045-.113.03-.241-.083-.362zm-14.874 16.766l-.022-.045c.324-.355.656-.701.995-1.048-.324.362-.648.731-.973 1.093zm11.029-18.839c.038-.053.076-.098.113-.143.016.015.031.03.053.045a.755.755 0 00-.166.098zm-128.179-61.424c-.045 0-.09.007-.143.007-1.206-.234-8.617-1.289-8.179.784a.794.794 0 00-.083.309 245.473 245.473 0 00-.385 10.26c-.392 5.586-.686 11.18-1.018 16.766-.015.302.279.596.581.581a67.204 67.204 0 018.895.203c.332.03.551-.294.581-.58.927-9.28.98-18.56.234-27.855-.031-.242-.212-.49-.483-.475zm-8.616 27.53c0-.03.007-.067.007-.098a.819.819 0 00.128.098c-.045-.007-.09 0-.135 0zm1.47-15.808c.007-1.379.015-2.751.03-4.131.022.716.037 1.425.06 2.141-.03.663-.053 1.327-.09 1.99zm3.218 13.464a.715.715 0 00.181.098c0 .023.008.045.008.068-.075.007-.151.022-.226.03.015-.068.03-.136.037-.196zm.159 2.352c.068-.007.143-.015.211-.015.045.007.098.023.143.03-.113-.007-.234-.015-.354-.015zm2.91.173c-.053-.007-.113-.007-.166-.015a.41.41 0 00.181-.143c-.008.053-.008.106-.015.158zm.565-7.742v-.052c.008.022 0 .037 0 .052zm9.304-21.16c-.181.075-.362.143-.543.211a.739.739 0 00-.188 0c-1.644.181-3.295.362-4.938.535a1.11 1.11 0 00-.347.098c-.407.098-.731.384-.739.852-.037 4.093-.068 8.262.196 12.401v1.387c-.015 4.576-.12 9.144-.316 13.712-.015.415.346.694.723.724 2.94.249 5.858.241 8.805.143.423-.015.807-.354.799-.799-.256-9.672-1.145-19.313-2.502-28.887-.053-.445-.611-.521-.95-.377zm-5.232 28.141c-.06.023-.113.06-.158.091 0-.076.007-.151.007-.227.061.046.128.083.196.114-.015.015-.03.015-.045.022zm7.086-.03c0 .128.008.256.008.384h-.196c.083-.113.143-.241.188-.384zm6.898-12.303c-.505 5.579-.913 11.165-1.365 16.743-.022.309.287.588.581.581 2.97-.068 5.932.06 8.888.384.339.038.542-.301.58-.58 1.123-9.258 1.365-18.53.799-27.84-.015-.249-.203-.49-.475-.475-.045 0-.083 0-.128.007-1.168-.248-8.586-1.477-8.194.618a.774.774 0 00-.091.317c-.264 3.408-.467 6.83-.595 10.245zm-.151 16.155c0-.038.007-.075.007-.105.046.037.091.075.136.105h-.143zm8.481-7.44c0 .045-.008.098-.008.15 0-.052 0-.098.008-.15zm-.709 7.606l-.023.173c-.06-.007-.12-.015-.18-.015a.57.57 0 00.203-.158zm-2.556-.038l-.361-.022c.068 0 .143-.008.211-.015.053.015.098.03.15.037zm-.482-2.374a.833.833 0 00.173.105c0 .023 0 .045.008.068l-.226.023a8.6 8.6 0 00.045-.196zm-2.827-17.663c.008.716.008 1.425.015 2.141-.038.663-.083 1.319-.128 1.982.03-1.372.068-2.751.113-4.123zm16.449-8.504c-.233.098-.467.181-.693.264a.917.917 0 00-.196 0c-1.651.143-3.295.294-4.946.437a1.167 1.167 0 00-.354.091c-.415.09-.716.392-.731.852-.121 4.078-.234 8.232-.053 12.363-.008.475-.015.95-.03 1.417a332.852 332.852 0 01-.596 13.705c-.03.415.355.686.724.724 2.933.309 5.85.362 8.805.324a.814.814 0 00.799-.799c-.06-9.612-.739-19.216-1.892-28.76-.06-.354-.407-.799-.837-.618zm-5.97 28.089a.992.992 0 00-.151.083c0-.075.007-.151.007-.219.061.046.129.083.196.121-.015 0-.03.007-.052.015zm7.093.09v.408h-.203a1.15 1.15 0 00.203-.408zm5.082 3.385c0 .121.03.226.068.324.015.083.06.151.113.212.286.384.859.467 1.259.248 2.156.151 4.319.264 6.468.106a99.563 99.563 0 006.988-.792c.302-.045.475-.377.498-.648.354-4.727.588-9.453.588-14.188 0-4.749-.34-9.461-.618-14.195-.016-.301-.219-.475-.513-.512-1.357-.181-2.722-.211-4.101-.151-.045-.008-.091-.008-.136-.008-1.779-.075-3.633.166-5.42.249-1.756.083-3.611.03-5.322.475a.368.368 0 00-.121.06c-.256-.068-.543.076-.543.392 0 4.546.513 9.084.573 13.63.076 4.93.098 9.868.219 14.798zm11.157-24.515v.136h-.008c-.045.007-.098.007-.143.015.053-.053.106-.098.151-.151zm-1.719-2.254v.007c-1.131.098-2.276.415-3.392.347 1.131-.12 2.261-.256 3.392-.354zm1.214 3.347a189.347 189.347 0 00-.385 13.871c-1.703 0-3.52.09-5.216.414-.106-.082-.211-.158-.317-.241-.007-.226-.007-.437-.007-.648.022-1.643.052-3.294.052-4.945.008-2.639.174-5.624-.339-8.293v-.083c2.073.128 4.124.076 6.212-.075zm6.015 8.858c.023 4.636.046 9.265.151 13.901.008.429.377.641.762.58a24.81 24.81 0 015.337-.196c.256.015.505-.241.49-.49-.286-4.681-.286-9.378-.573-14.067a727.856 727.856 0 00-.988-14.044c-.022-.294-.211-.467-.474-.49a.357.357 0 00-.317-.196 17.432 17.432 0 00-2.088.045c-.867.038-1.727.091-2.586.204-.279.037-.452.233-.4.52.46 2.465.453 5.051.558 7.546.098 2.231.113 4.455.128 6.687zm5.594 7.388c-.015-.008-.038-.016-.053-.023a59.514 59.514 0 01-.03-1.644c.023.558.053 1.116.083 1.667zm-5.345-21.35a.862.862 0 00-.045.204l-.023-.196c.023 0 .046 0 .068-.008zm27.297 4.855c-.075-.347-.249-.641-.581-.822-.625-.339-1.568-.173-2.239-.18-1.145-.008-2.284-.023-3.43-.023-2.284 0-4.575.03-6.86.09-.135 0-.286.008-.452.015-.482.016-.988.091-1.274.438a.47.47 0 00-.234.429c.181 4.441.86 8.858 1.35 13.268.286 2.616.55 5.24.791 7.863a590.11 590.11 0 01-.015 7.41c-.007.438.415.958.897.898a80.528 80.528 0 0013.261-2.835c.354-.106.671-.46.648-.859a893.345 893.345 0 00-1.787-25.375.85.85 0 00-.075-.317zm-9.793.927c-.06-.007-.113-.022-.173-.03.06.008.128.015.188.015l-.015.015zm8.149.264h.121c0 .046.008.083.008.128a.71.71 0 00-.129-.128zm10.675 21.417c-.143-1.289-.294-2.578-.437-3.874-.271-2.428-.55-4.855-.822-7.283-.241-2.133-.459-4.274-.723-6.408-.159-1.854-.392-3.708-.543-5.54-.038-.475.075-1.576-.445-1.9-.271-.166-.761-.045-1.168.098-.513.075-1.033.211-1.523.324-.648.151-1.372.294-1.953.626-.58.331-.723.814-.701 1.357v.045c0 .038 0 .083.015.121.008.075.016.15.031.226.188 4.063.655 8.111.972 12.167.158 2.081.302 4.161.46 6.242.166 2.148.475 4.357.422 6.513-.015.483.422.89.89.89 1.447 0 2.947-.098 4.387.143.694.113 1.485-.415 1.297-1.183.098-.852-.068-1.727-.159-2.564zm-4.809 1.531a1.164 1.164 0 01-.015-.166l.158.136c-.053.015-.098.022-.143.03zm1.99-25.292v-.008a.979.979 0 01.045.219 10.62 10.62 0 00-.045-.211zm-6.664 44.214a.83.83 0 00-.083-.31c.437-2.08-6.996-1.01-8.179-.784-.046 0-.091-.007-.144-.007-.271-.015-.459.234-.474.475-.747 9.295-.702 18.575.233 27.855.03.294.241.61.581.58a67.375 67.375 0 018.895-.203c.302.015.596-.279.581-.581-.34-5.586-.626-11.179-1.018-16.765a275.334 275.334 0 00-.392-10.26zm-8.127 18.816v.052c.008-.015 0-.037 0-.052zm.573 7.795c-.007-.053-.007-.106-.015-.159a.472.472 0 00.181.144c-.053 0-.105.007-.166.015zm2.548-.159c.046-.007.098-.022.144-.03.067.008.143.015.211.015-.113 0-.234.008-.355.015zm.332-2.201c0-.023.008-.045.008-.068.06-.03.12-.06.181-.098l.045.196c-.083-.015-.159-.022-.234-.03zm3.317-15.627c.023-.717.038-1.425.06-2.141.015 1.379.023 2.751.03 4.131-.037-.664-.06-1.327-.09-1.99zm1.425 17.798c.045-.03.09-.06.128-.098 0 .03.007.068.007.098h-.135zm-10.939-14.61c.263-4.138.241-8.307.196-12.401-.008-.459-.324-.753-.739-.851a.976.976 0 00-.347-.098c-1.643-.181-3.294-.362-4.938-.536a.843.843 0 00-.188 0 13.486 13.486 0 01-.543-.211c-.332-.143-.889-.075-.957.392-1.357 9.582-2.247 19.216-2.503 28.888-.015.437.377.784.799.799 2.948.098 5.865.098 8.805-.143.377-.03.739-.302.724-.724a346.571 346.571 0 01-.317-13.712c0-.475.008-.943.008-1.403zm-8.406 14.384c0-.128 0-.256.008-.384.037.15.105.278.188.384h-.196zm7.094-.347l-.045-.022c.068-.031.135-.068.196-.113 0 .075.007.15.007.226-.053-.031-.105-.068-.158-.091zm-36.034-36.17a.202.202 0 00-.121-.06c-1.711-.445-3.558-.392-5.322-.475-1.779-.083-3.641-.324-5.42-.249-.046 0-.091.008-.128.008-1.372-.061-2.745-.03-4.101.15-.287.038-.49.204-.513.513-.279 4.734-.626 9.446-.618 14.195.007 4.742.233 9.469.588 14.188.022.264.196.603.497.648 2.322.347 4.644.618 6.989.792 2.148.158 4.319.045 6.475-.106.4.211.973.136 1.252-.249a.447.447 0 00.113-.211c.037-.098.06-.203.068-.324.12-4.93.15-9.868.218-14.798.068-4.553.581-9.092.573-13.63-.007-.309-.294-.46-.55-.392zm-11.399 4.448h-.007v-.136c.053.053.098.098.151.143-.038 0-.091 0-.144-.007zm1.719-2.39c1.025.091 2.043.204 3.061.317-.958 0-1.885-.196-2.895-.287-.053-.007-.113-.007-.173-.015.007-.007.007-.015.007-.015zm5.006 3.475c-.528 2.684-.354 5.685-.347 8.331 0 1.65.03 3.294.053 4.945.007.301-.008.618-.015.942-1.787-.377-3.724-.475-5.526-.475.038-4.628-.09-9.25-.384-13.871 2.088.151 4.146.204 6.226.083-.007.015-.007.03-.007.045zm-11.956-6.023a32.832 32.832 0 00-2.586-.203 15.913 15.913 0 00-2.088-.046.36.36 0 00-.317.196c-.256.023-.445.196-.475.49a723.478 723.478 0 00-.987 14.045c-.287 4.681-.287 9.385-.573 14.067-.015.256.241.512.49.49a24.75 24.75 0 015.337.196c.384.06.754-.151.761-.581.106-4.636.129-9.265.151-13.901.008-2.224.03-4.455.121-6.679.098-2.495.09-5.089.558-7.546.06-.287-.113-.49-.392-.528zm-5.82 22.118a.347.347 0 00-.053.023c.03-.558.053-1.108.083-1.666 0 .55-.015 1.101-.03 1.643zm5.33-21.123a.896.896 0 00-.046-.203c.023 0 .046 0 .068.007l-.022.196zm43.354 15.492c.49-4.41 1.169-8.828 1.35-13.268a.483.483 0 00-.226-.43c-.204-.248-.513-.346-.845-.392-.309-.052-.633-.06-.882-.067a296.06 296.06 0 00-6.86-.091c-1.055 0-2.111.015-3.166.023-.724.007-1.817-.189-2.503.181a1.156 1.156 0 00-.573.814 1.033 1.033 0 00-.083.331 893.6 893.6 0 00-1.786 25.375c-.023.392.294.747.648.86a81.24 81.24 0 0013.26 2.834c.483.061.905-.46.897-.897a631.181 631.181 0 01-.015-7.41c.234-2.624.498-5.247.784-7.863zm-12.197-11.911c0-.045.007-.083.007-.128h.121a1.03 1.03 0 00-.128.128zm8.27-.392l-.015-.015c.06-.008.12-.015.181-.015a1.206 1.206 0 01-.166.03zm-11.497 11.632c.309-4.048.777-8.096.965-12.152.015-.083.023-.166.03-.249.008-.038.015-.068.008-.105v-.031c.022-.542-.113-1.04-.701-1.372-.573-.324-1.319-.475-1.953-.625-.49-.113-1.002-.242-1.515-.325-.415-.143-.897-.271-1.168-.105-.528.317-.423 1.462-.46 1.907-.159 1.84-.392 3.694-.543 5.549-.264 2.133-.483 4.274-.724 6.407-.271 2.428-.55 4.855-.821 7.283-.136 1.213-.279 2.427-.415 3.641-.098.904-.294 1.877-.166 2.782-.181.768.603 1.296 1.297 1.183 1.44-.234 2.932-.143 4.387-.143.475 0 .905-.407.89-.89-.053-2.065.241-4.191.399-6.249.174-2.171.324-4.335.49-6.506zm-4.5-13.69c-.023.113-.046.226-.068.347a1.52 1.52 0 01.068-.377v.03zm1.99 25.277c-.023-.008-.045-.008-.068-.015.023-.023.053-.046.075-.068 0 .03-.007.06-.007.083z" fill="#FAC150"/><path d="M577.033 246.186l4.757-14.987 5.036 1.599c.889.278 1.477.716 1.771 1.296.294.581.287 1.372-.03 2.367l-.528 1.651c-.203.633-.512 1.093-.942 1.387-.43.294-.814.445-1.176.445 1.003.701 1.289 1.734.86 3.091l-.702 2.216c-.731 2.307-2.005 3.182-3.822 2.601l-5.224-1.666zm5.963-5.383l-.543-.173-1.251 3.95.603.189c.204.06.362.053.49-.03.121-.083.234-.287.332-.596l.754-2.375c.09-.278.105-.497.06-.633-.06-.143-.204-.256-.445-.332zm1.787-5.842l-.483-.151-1.025 3.227.46.151c.4.128.686-.061.844-.551l.566-1.771c.075-.242.09-.43.045-.573-.045-.151-.181-.257-.407-.332zm6.355 6.875l.596-7.478 3.362 1.07-.686 4.614 2.081-4.176 3.166 1.002-3.739 6.484-.709 8.601-3.347-1.063.716-5.337-2.533 4.764-3.241-1.025 4.334-7.456zm17.451 2.3l-2.254 7.108c-.407 1.29-1.055 2.187-1.937 2.692-.882.505-1.9.573-3.061.203l-.64-.203c-1.207-.385-2.021-1.033-2.443-1.938-.422-.912-.422-2.013-.015-3.317l2.254-7.109c.897-2.819 2.586-3.837 5.066-3.045l.648.203c2.488.777 3.28 2.586 2.382 5.406zm-5.767 6.242l2.435-7.675c.181-.565.068-.912-.339-1.04-.399-.128-.693.09-.874.656l-2.435 7.674c-.159.498-.03.814.392.942.392.121.663-.06.821-.557zm9.982 9.483l.671-2.118-3.347-1.063-.671 2.118-2.842-.905 1.674-5.277.505.159c.188-.174.497-.822.92-1.923.414-1.108 1.5-4.364 3.271-9.762l7.313 2.322-3.755 11.828.769.241-1.673 5.277-2.835-.897zm-.067-8.225c-.37.935-.709 1.659-1.026 2.179l1.614.513 2.796-8.828-1.168-.369a1408.381 1408.381 0 01-2.216 6.505zM381.701 426.742a250.565 250.565 0 019.137 21.417zm-4.183 2.345a364.172 364.172 0 009.634 20.844zM160.957 545.211c-8.059 2.586-11.119 8.202-12.265 12.454-1.236 4.598-.588 8.526-.558 8.692l.023.12 4.033 2.443-.136-.603c-.007-.038-.844-3.943.068-8.315 1.214-5.82 4.802-9.665 10.66-11.414 6.927-2.065 11.383-5.307 13.252-9.626 1.501-3.461 1.214-7.441-.814-11.504-3.633-7.26 9.529-15.665 9.665-15.756.444-.301 10.915-7.425 12.069-13.615.234-1.259.068-2.404-.505-3.407l.942.92c.038.037.882.882.739 2.661-.204 2.45-2.329 6.671-11.278 12.838-12.024 8.292-12.861 12.748-10.215 18.062.769 1.553 1.734 6.174-.211 10.569-1.801 4.056-5.525 6.906-11.074 8.459-8.609 2.412-11.602 7.983-12.597 12.235-1.07 4.591-.128 8.541-.09 8.707l.022.105 4.026 2.443-.136-.603c-.007-.038-.844-3.928.061-8.3 1.213-5.835 4.802-9.68 10.667-11.429 6.928-2.065 11.383-5.307 13.252-9.626 1.501-3.461 1.214-7.441-.814-11.504-3.633-7.26 9.529-15.665 9.665-15.756.445-.301 10.916-7.425 12.069-13.614.234-1.244.068-2.368-.475-3.363l.92.875c.007.007.874.859.739 2.631-.196 2.457-2.307 6.679-11.278 12.868-12.024 8.293-12.861 12.748-10.215 18.063.769 1.552 1.734 6.174-.211 10.569-1.802 4.055-5.526 6.905-11.074 8.458-8.609 2.412-11.602 7.983-12.597 12.235-1.071 4.591-.128 8.541-.091 8.707l.023.106 4.026 2.435-.136-.604c-.008-.037-.844-3.942.068-8.315 1.214-5.819 4.802-9.664 10.659-11.413 6.928-2.066 11.384-5.307 13.253-9.627 1.5-3.46 1.214-7.44-.814-11.504-3.634-7.259 9.529-15.665 9.664-15.755.445-.302 10.916-7.426 12.07-13.615.256-1.349.037-2.563-.634-3.618l1.305 1.266c.037.038.882.882.738 2.661-.203 2.45-2.329 6.672-11.277 12.838-12.024 8.293-12.861 12.748-10.215 18.063.769 1.553 1.734 6.174-.211 10.569-1.802 4.056-5.526 6.905-11.074 8.458-8.609 2.413-11.602 7.984-12.597 12.235-1.071 4.591-.128 8.541-.091 8.707l.023.106 4.026 2.435-.136-.603c-.008-.038-.844-3.943.068-8.315 1.213-5.82 4.802-9.665 10.659-11.414 6.928-2.065 11.383-5.307 13.253-9.627 1.5-3.46 1.214-7.44-.814-11.503-3.634-7.26 9.529-15.665 9.664-15.756.445-.301 10.916-7.425 12.07-13.615.233-1.259.067-2.404-.506-3.407l.943.92c.037.037.882.882.739 2.661-.204 2.45-2.33 6.671-11.278 12.838-12.024 8.292-12.861 12.748-10.215 18.062.769 1.553 1.734 6.174-.211 10.569-1.802 4.056-5.526 6.906-11.074 8.459-8.609 2.412-11.602 7.983-12.597 12.235-1.071 4.591-.128 8.541-.091 8.707l.023.105 4.026 2.435-.136-.603c-.008-.037-.844-3.942.068-8.315 1.214-5.827 4.802-9.664 10.659-11.413 6.928-2.066 11.384-5.307 13.253-9.627 1.5-3.46 1.214-7.44-.814-11.504-3.634-7.259 9.529-15.665 9.664-15.755.445-.302 10.916-7.426 12.07-13.615.256-1.349.037-2.563-.634-3.619l1.305 1.267c.037.038.882.882.731 2.661-.204 2.45-2.33 6.672-11.278 12.838-12.024 8.293-12.861 12.748-10.215 18.063.769 1.553 1.734 6.174-.211 10.569-1.801 4.056-5.525 6.905-11.074 8.458-8.609 2.412-11.602 7.983-12.597 12.235-1.07 4.591-.128 8.541-.09 8.707l.022.106 4.026 2.435-.136-.603c-.007-.038-.844-3.943.068-8.316 1.214-5.819 4.802-9.664 10.66-11.413 6.928-2.065 11.383-5.307 13.252-9.627 1.501-3.46 1.214-7.44-.814-11.503-3.633-7.26 9.529-15.666 9.665-15.756.445-.302 10.916-7.426 12.069-13.615.234-1.259.068-2.405-.505-3.407l.942.92c.038.037.882.881.739 2.661-.204 2.45-2.329 6.671-11.278 12.838-12.024 8.292-12.861 12.748-10.214 18.062.768 1.553 1.733 6.174-.212 10.569-1.801 4.056-5.525 6.906-11.074 8.459-8.609 2.412-11.602 7.983-12.597 12.235-1.07 4.591-.128 8.541-.09 8.707l.023.105 4.025 2.443-.136-.603c-.007-.038-.844-3.928.061-8.3 1.213-5.835 4.802-9.68 10.667-11.429 6.928-2.065 11.383-5.307 13.253-9.627 1.5-3.46 1.213-7.44-.815-11.503-3.633-7.26 9.529-15.665 9.665-15.756.445-.301 10.916-7.425 12.069-13.615.256-1.349.038-2.563-.633-3.618l1.304 1.266c.038.038.882.882.731 2.661-.203 2.45-2.329 6.672-11.277 12.839-12.024 8.292-12.861 12.747-10.215 18.062.769 1.553 1.734 6.174-.211 10.569-1.802 4.056-5.526 6.905-11.074 8.458-8.609 2.413-11.602 7.984-12.597 12.235-1.071 4.591-.129 8.542-.091 8.708l.023.105 4.025 2.443-.135-.604c-.008-.037-.845-3.927.06-8.299 1.214-5.835 4.802-9.68 10.667-11.429 6.928-2.066 11.383-5.307 13.253-9.627 1.5-3.46 1.214-7.44-.814-11.504-3.634-7.259 9.529-15.665 9.664-15.755.445-.302 10.916-7.426 12.069-13.615.234-1.259.068-2.405-.505-3.407l.943.919c.037.038.882.882.731 2.662-.204 2.45-2.329 6.671-11.278 12.838-12.152 8.383-13.034 13.026-10.441 18.22.626 1.259 1.953 5.903-.12 10.57-1.757 3.965-5.436 6.754-10.939 8.3-8.609 2.412-11.602 7.983-12.597 12.235-1.07 4.591-.128 8.541-.09 8.707l.022.105 4.026 2.435-.136-.603c-.007-.038-.844-3.943.068-8.315 1.214-5.82 4.802-9.664 10.66-11.413 6.928-2.066 11.383-5.308 13.253-9.627 1.5-3.46 1.213-7.441-.815-11.504-3.633-7.26 9.529-15.665 9.665-15.756.445-.301 10.916-7.425 12.069-13.614.264-1.425.015-2.699-.746-3.792l-.03-.045-4.531-2.744-4.757-2.888-4.531-2.744-4.756-2.887-4.531-2.744-4.757-2.887-4.531-2.744-4.53-2.744-4.501-2.729 1.169 1.319c.007.015 1.115 1.289.829 3.641-.332 2.684-2.518 7.116-11.082 12.959-14.828 10.132-13.343 12.695-11.089 16.577.188.317.377.648.565.988 1.018 1.862 2.488 5.556.965 9.363-1.462 3.724-5.526 6.701-12.024 8.782z" fill="#375A44"/><path d="M963.491 376.995c-1.704-.693 2.321.943-.279-.128-.558-.226-1.101-.467-1.666-.678a63.028 63.028 0 00-2.624-.912 103.16 103.16 0 00-6.506-1.878c-5.94-1.485-11.978-2.638-17.979-3.867-16.374-3.354-32.868-6.046-49.197-9.664-17.61-3.898-35.175-8.428-52.084-14.768-13.494-5.066-27.832-11.647-37.896-21.726-5.843-5.85-8.79-13.359-12.062-21.493-5.737-14.255-10.079-29.038-15.914-43.249-9.657-23.52-25.819-44.138-46.882-58.469-24.47-16.653-54.655-24.432-82.6-33.132-14.806-4.606-29.846-8.503-44.606-13.207-12.024-3.83-24.727-8.376-34.12-17.143-12.913-12.062-20.278-27.064-32.129-40.852-14.255-16.585-32.469-27.26-54.451-29.234-3.958-.355-7.923-.55-11.873-.995a14.237 14.237 0 00-.912-.083c-.521-.09-1.041-.196-1.546-.264-1.696-.249-3.4-.475-5.111-.686l-.49-.06c-.015 0-.03-.008-.045-.008-7.577-1.161-15.077-2.661-22.51-4.576-7.939-2.043-15.764-4.478-23.491-7.192a361.697 361.697 0 01-17.911-6.86c-1.214-.505-3.317-1.417-.89-.362-1.063-.46-2.126-.912-3.181-1.372-35.409-15.393-68.933-35.16-101.07-56.464-16.954-11.24-33.546-23.015-49.83-35.205a1152.588 1152.588 0 01-11.948-9.061 154.36 154.36 0 00-1.455-1.116l-2.413-1.87c-2.02-1.575-4.04-3.15-6.053-4.741a1322.201 1322.201 0 01-22.706-18.311c-14.278-11.775-27.908-24.274-42.05-36.193-2.164-1.824-4.606-3.355-6.883-5.051a468.84 468.84 0 00-2.247-1.673c-.753-.566-.211-.151.219.181-1.055-.8-2.111-1.606-3.166-2.405-.731-.558-1.455-1.116-2.179-1.674-.339-.256-1.07-.829-1.44-1.108-1.523-1.176-3.038-2.36-4.553-3.543-6.445-5.043-12.672-10.592-19.404-15.175a95.015 95.015 0 01-4.154-2.986c-1.093-.836-3.619-2.54-4.403-3.015-2.646-1.598-5.276-3.362-7.659-5.337-4.674-3.875-9.054-8.006-13.35-12.288-6.4-6.385-12.273-13.23-18.462-19.774-1.802-1.907-3.521-3.95-4.976-6.136-.498-.747-1.892-.302-1.545.648 2.299 6.235 6 11.67 9.958 16.947 6.687 8.903 14 17.308 20.904 26.038 4.878 6.167 7.253 10.841 11.444 16.479 4.93 6.634 10.441 12.816 15.944 19.035 2.722 3.076 5.458 6.129 8.217 9.175 1.365 1.507 2.729 3.008 4.086 4.523.633.708 1.274 1.41 1.907 2.111.551.61 2.021 1.93 1.885 1.756 1.749 1.787 3.325 3.732 5.224 5.435 1.712 1.53 3.423 3.061 5.142 4.584 3.513 3.113 7.041 6.204 10.584 9.272 30.38 26.348 61.937 51.413 94.646 74.806 32.364 23.135 65.993 44.779 101.545 62.698 31.036 15.635 64.191 29.604 98.74 34.926 8.202 1.266 16.291 1.975 24.591 1.78 2.239-.054 4.478-.152 6.724-.106 1.41.022 2.82.098 4.23.226.565.052 1.13.105 1.696.173.083.015.188.038.331.068 2.375.46 4.727.942 7.049 1.628 1.199.355 2.382.77 3.558 1.184.46.166.92.34 1.372.52.106.045.226.106.347.158 16.276 7.848 27.229 21.44 39.427 35.884 5.503 6.513 11.466 12.718 18.326 17.821 10.644 7.923 23.701 11.911 36.464 14.896 21.455 5.029 43.098 10.381 64.327 16.744-15.779 8.903-30.313 19.916-42.97 32.905-3.86 3.966-7.637 7.969-11.248 12.16-.271.317-.46.671-.58 1.04a6.434 6.434 0 00-.445.46 6.44 6.44 0 00-.844.973c-.468.686-.189 1.673.429 2.148.671.52 1.561.43 2.187-.128.052-.053.113-.098.173-.151.083.03.166.068.249.091 2.013.58 4.018 1.161 6.031 1.741 1.884.543 3.927 1.417 5.925 1.297l.249-.023c-.121.4-.242.792-.355 1.191.008 0 .008 0 .015.008-.422 1.681 2.119 2.97 2.94 1.244 1.478-3.129 2.918-6.272 4.38-9.401.129-.218.257-.437.385-.648 3.649-5.971 7.554-11.821 12.099-17.158 8.918-10.486 20.098-18.997 33.796-21.847a40.537 40.537 0 014.244-.656c2.94.973 5.88 1.968 8.797 2.986 26.679 9.355 50.916 23.354 67.689 46.671 17.173 23.875 21.606 53.803 32.167 80.746 5.443 13.893 16.276 23.573 28.986 30.953 15.1 8.767 31.881 14.723 48.541 19.736 30.923 9.303 62.698 14.934 94.323 21.206 3.648.724 7.583 1.206 11.051 2.616 3.566 1.455 7.833-1.576 8.767-4.976 1.131-4.108-1.394-7.335-4.967-8.79zM492.586 95.068c-.746-.302-.49-.219 0 0zm164.07 88.503c.573-.302 1.145-.596 1.726-.89l.874.272c-.866.18-1.733.392-2.6.618zM372.715 431.635c2.955 6.023 5.91 12.039 8.866 18.062.422.86.836 1.727 1.273 2.586.174.332.641.43.95.249 4.207-2.443 8.67-4.403 12.778-7.003 2.624 5.51 5.307 10.983 8.029 16.441 2.382 4.772 4.787 9.536 7.192 14.301.459.904 1.688 1.342 2.638 1.07 8.149-2.314 16.133-5.216 24.056-8.194 9.589-3.604 19.102-7.426 28.578-11.323 17.181-7.064 34.09-14.444 51.202-21.44 2.888-1.183 5.775-2.359 8.7-3.452 1.553-.588 3.151-1.305 4.787-1.629 1.643-.331 2.163-2.314 1.477-3.633-3.701-7.154-7.146-14.414-10.275-21.84-.399-.957-.799-1.907-1.198-2.864 4.787-1.425 9.287-3.596 13.999-5.24.324-.113.633-.482.482-.851-2.533-6.242-5.299-12.401-7.945-18.591-.392-.912-.784-1.824-1.169-2.736-.136-.324-.573-.422-.874-.354-2.986.656-5.888 1.583-8.775 2.578-1.327.46-2.654.935-3.988 1.379-.55.181-1.101.347-1.651.513-.912-2.073-1.87-4.131-2.978-6.068a62.06 62.06 0 00-2.812-4.448c-.851-1.229-1.892-2.315-3.294-2.903-3.475-1.462-7.576.626-10.856 1.734a1176.025 1176.025 0 00-10.848 3.717c-22.706 7.938-44.982 16.833-66.972 26.573-10.17 4.508-20.271 9.175-30.456 13.66a.235.235 0 00-.143.174c-.618.407-1.01 1.115-.694 1.929a361.494 361.494 0 003.747 9.212c-.664.362-1.319.762-2.005 1.116-1.244.641-2.518 1.214-3.785 1.802-2.721 1.266-5.337 2.616-7.757 4.41-.354.264-.482.648-.279 1.063zm352.248-59.027c.603-1.169 1.485-2.608 1.402-3.965-.083-1.372-1.274-2.488-2.164-3.423-.904-.942-1.862-1.96-2.947-2.744a4.222 4.222 0 00-.882-.611 4.1 4.1 0 00-.558-.226 5.66 5.66 0 00-.294-.143c-1.463-.641-3.114-.196-4.32.754-1.545 1.214-2.57 3.015-3.656 4.621a146.152 146.152 0 00-2.269 3.468 88.275 88.275 0 00-4.267 6.566c-.618.95-1.214 1.907-1.726 2.902-.875 1.689-1.01 3.521.316 5.021.769.867 1.802 1.583 2.865 2.231.535.483 1.108.913 1.711 1.282a6.539 6.539 0 001.681.724c.89.429 1.704.497 2.473.158a5.017 5.017 0 001.772-.611c1.017-.588 1.779-1.5 2.442-2.487.611-.747 1.108-1.636 1.561-2.518 1.538-2.42 3.354-4.87 4.764-7.471a35.455 35.455 0 002.096-3.528zM341.491 261.761c1.116 2.254 3.392 3.656 5.714 4.402.867.279 1.757.445 2.639.505.038.008.068.015.105.015.852.196 1.734.332 2.669.438.686.083 1.372-.242 1.892-.724a9.735 9.735 0 002.224-.988 11.699 11.699 0 002.066-.949c3.369-1.991 5.36-5.496 5.352-9.235.151-1.553-.007-3.129-.55-4.614-1.063-2.895-3.28-5.156-5.956-6.604a12.112 12.112 0 00-1.696-.889c-4.071-1.711-9.506-1.033-12.341 2.578-1.485 1.885-2.374 4.237-2.608 6.649-.52 2.066-.648 4.222-.166 6.136a6.553 6.553 0 00.656 3.28zm53.222-24.101c-4.568-3.031-11.089-2.669-15.484.52-3.34 2.428-5.503 6.152-5.616 10.162-.716 2.39-.626 4.915.927 7.305 1.372 2.111 3.445 3.634 5.722 4.636 2.51 1.108 5.533 2.179 8.307 2.186 5.737.023 9.74-5.48 11.338-10.433 1.764-5.42-.505-11.263-5.194-14.376zm14.3-25.367c-1.99.52-3.792 1.575-5.322 2.932-2.902 2.586-4.749 6.717-4.35 10.63.468 4.606 3.928 8.692 7.976 10.802.822.43 1.674.762 2.541 1.003 2.352 1.116 5.118 1.236 7.84.837 2.058-.302 3.995-1.003 5.443-2.571 1.402-1.523 2.329-3.483 2.811-5.48.935-3.853.4-8.104-1.673-11.512-2.02-3.324-5.526-5.744-9.348-6.491-1.945-.384-3.98-.655-5.918-.15zm12.643-1.877c1.123.663 2.375 1.093 3.656 1.16 2.307.279 4.297-.429 5.88-1.764a14.83 14.83 0 001.817-1.349c3.95-3.468 5.458-9.551 1.696-13.75-3.302-3.679-9.868-4.712-14.331-2.729-3.927 1.741-5.834 6.468-5.058 10.554.641 3.422 3.219 6.31 6.34 7.878zM27.027 611.762c0 .135.052.263.135.361-.037.144.023.309.204.355 1.199.286 2.639-.121 3.852-.317 1.553-.256 3.098-.505 4.651-.754.777-.128 1.553-.249 2.33-.377.543-.045 1.085-.098 1.628-.143 1.372-.121 2.752-.181 4.131-.309a385.8 385.8 0 01-4.236.965 333.27 333.27 0 01-6.092 1.281c-1.937.385-4.07.566-5.895 1.342-.165.068-.203.211-.173.347v.008c-.234 1.025.219 1.945.694 2.834.587 1.757 1.311 3.566 2.495 4.9a.537.537 0 00.49.189c-.023.12.12.256.233.173 1.086-.822 2.066-1.779 3.212-2.525a87.698 87.698 0 013.89-2.352 110.467 110.467 0 014.139-2.262c.097-.053.203-.106.308-.151-.557.407-1.115.822-1.673 1.229-1.78 1.297-3.55 2.601-5.33 3.898-.852.625-1.711 1.243-2.555 1.869-.603.445-1.086.769-1.116 1.553a.19.19 0 00.113.173c.083 2.096 2.201 4.297 3.664 5.624.158.143.384.226.618.241a.452.452 0 00.46.219c1.402-.196 2.548-2.405 3.294-3.46 1.184-1.659 2.27-3.385 3.393-5.081a120.8 120.8 0 013.528-5.051c-.4.716-.792 1.425-1.169 2.141-2.224 4.252-4.35 8.541-6.445 12.853a1.2 1.2 0 00-.106.611c-.083.173-.06.384.128.558.837.754 1.508 1.507 2.488 2.095a14.342 14.342 0 003.219 1.455c.92.279 1.87.468 2.827.588 1.327.347 2.699.513 4.093.52.52 0 1.078-.474 1.026-1.025-.58-6.392-.505-12.838-.211-19.268.06 1.078.15 2.156.301 3.226a30.352 30.352 0 00.113 3.091c.264 2.97.633 5.918.746 8.903.046 1.191-.24 2.94.196 4.101a1.08 1.08 0 00.106.792c.023.09.075.165.158.211.37.384 1.01.467 1.53.527.657.076 1.99.257 2.164-.633a1.26 1.26 0 00.181-.897c-.792-5.224-1.922-10.35-2.978-15.522-.248-1.214-.392-2.45-.49-3.694.015-.414.023-.829.03-1.244.52 2.058 1.161 4.094 1.682 6.159 1.236 4.863 2.329 9.763 3.746 14.572.31 1.041 1.32 1.259 2.08.92.853-.045 1.757-.309 2.511-.543.58-.181 1.395-.392 1.742-.912.248-.053.497-.354.467-.618a4.868 4.868 0 00-.166-.799 1.493 1.493 0 00-.105-.49 857.047 857.047 0 00-5.94-13.464c-.785-1.741-1.569-3.49-2.39-5.217.4.656.799 1.304 1.198 1.96 1.108 1.817 2.201 3.642 3.22 5.511 1.017 1.877 1.952 3.792 2.94 5.677 1.04 1.99 1.854 4.289 3.128 6.128.633.92 1.545.679 2.028.098l.806-.648c.317-.256.324-.776.143-1.1a179.512 179.512 0 00-3.791-6.552 58.73 58.73 0 00-2.752-4.613 126.418 126.418 0 00-2.714-3.943c.452.437.912.875 1.365 1.312 1.997 1.93 3.995 3.86 6 5.79.89.859 1.772 1.726 2.707 2.533.769.67 1.756 1.176 2.472 1.884.34.332.747.437 1.123.37a.63.63 0 00.483.022c1.093-.377 3.566-3.679 3.611-5.593.211-.551.143-1.154-.324-1.629-1.787-1.786-4.23-3.098-6.325-4.493-2.035-1.357-4.063-2.729-6.114-4.071-2.043-1.334-4.108-2.661-6.234-3.867-.686-.392-1.38-.761-2.08-1.138.414.12.828.241 1.243.369.603.309 1.229.588 1.764.89 1.975 1.108 3.988 2.141 5.978 3.211 1.998 1.078 4.018 2.096 6.031 3.151 1.764.927 3.55 2.186 5.45 2.812.332.241.8.279 1.124-.083a.754.754 0 01.075-.083c.67-.218.957-.874 1.01-1.658.12-1.727-.038-3.536-.113-5.262-.03-.679.053-5.021-1.168-5.352a.482.482 0 00-.09-.091c-1.056-.859-2.956-.317-4.2-.203-1.975.173-3.958.256-5.94.346-1.915.083-3.83.068-5.745.076-1.334.007-2.729-.113-4.078-.038l-.166-.023c1.885-.301 3.777-.52 5.677-.731 4.199-.482 8.42-.716 12.634-.942.679-.038 1.184-.588 1.176-1.206a.752.752 0 00.098-.543c-.294-1.455-.753-3.136-1.59-4.388-.302-.444-.8-1.153-1.372-1.485a1.427 1.427 0 00-.438-.324c-.867-.414-1.975.068-2.827.294-1.38.362-2.736.792-4.086 1.252a138.262 138.262 0 00-7.923 2.97c.596-.415 1.192-.822 1.795-1.229 1.538-1.033 3.083-2.103 4.689-3.031 1.636-.942 3.61-1.937 4.915-3.317.422-.452.475-1.055.203-1.59 0-.008-.007-.008-.007-.015-.272-1.237-1.463-2.254-2.503-2.85-.61-.354-1.078-.166-1.432.234-1.026.211-1.877 1.462-2.579 2.148-1.168 1.139-2.329 2.285-3.422 3.483a90.176 90.176 0 00-1.59 1.794c-1.064.958-2.111 1.93-3.152 2.918-.21.158-.422.324-.626.482a60.463 60.463 0 002.255-2.759c2.427-3.151 4.38-6.619 7.093-9.536.445-.475.415-1.274-.06-1.681-.188-.362-.588-.694-.912-.89-.226-.135-.46-.271-.694-.392-1.334-1.048-3.128-1.756-4.576-2.254-2.065-.708-4.191-.867-6.31-1.183a.577.577 0 00-.557-.091 8.05 8.05 0 01-.43-.075.468.468 0 00-.573.505.358.358 0 00-.045.181 30.836 30.836 0 00-.038 2.359c-.075.83-.068 1.674-.105 2.398-.113 2.02-.106 4.04-.068 6.061.03 1.929.09 3.859.18 5.789.016.272.023.543.038.814a35.92 35.92 0 01-.196-1.447c-.195-1.885-.4-3.769-.52-5.661-.226-3.619.06-7.351-.527-10.931-.053-.332-.573-.309-.649 0a.823.823 0 00-.573-.242c-.49-.022-.95.113-1.432.136-.58.023-1.116-.075-1.704.008-1.017.15-2.193.467-3.098.972-.234.136-.34.475-.188.709-.008.007-.016.015-.016.03-.15.829.392 1.508.717 2.277.43 1.025.866 2.042 1.266 3.075.754 1.953 1.402 3.95 2.066 5.933.505 1.5 1.002 3.016 1.553 4.508.18.671.361 1.342.535 2.013-1.003-1.689-1.968-3.4-2.955-5.096a798.463 798.463 0 00-3.19-5.413c-1.054-1.779-2.057-3.867-3.497-5.352-.203-.211-.528-.121-.663.09a.71.71 0 00-.324.181c-1.003.973-1.938 1.968-2.797 3.068-.325.415-.28.898.158 1.214 3.294 2.375 5.676 5.76 8.036 9.009.52.723 1.048 1.44 1.576 2.156-.958-1.056-1.9-2.141-2.835-3.227-2.201-2.548-4.493-5.382-7.395-7.184-.943-.814-1.855-.535-2.835.324-1.311 1.154-2.284 2.654-3.053 4.214-.52 1.056-1.35 2.495-1.545 3.792-.159.339-.264.679-.264 1.003-.128.377.128.844.512.935 1.81.444 3.596 1.138 5.39 1.673 1.72.513 3.438 1.025 5.157 1.553 2.14.656 4.237 1.463 6.34 2.247l-.324-.068a577.847 577.847 0 00-6.333-1.327 873.337 873.337 0 00-6.083-1.229c-1.018-.203-2.036-.384-3.053-.565-.89-.159-1.825-.49-2.684-.144-.038.016-.06.046-.06.083a.245.245 0 00-.129.031c-.203.098-.203.113-.248.339-.008.022 0 .045.007.068-1.213 1.04-1.485 5.51-.942 7.214a1.39 1.39 0 00-.03.385zm5.231 8.578c.023-.052.046-.113.06-.165l.099-.046a5.52 5.52 0 00-.159.211zm3.408-6.528l-.09-.045c.105-.023.218-.038.324-.061-.083.038-.159.068-.234.106zm-1.81 10.147c-.037-.03-.067-.06-.105-.091.045-.03.09-.052.136-.083a1.146 1.146 0 00-.03.174zm2.571 3.536l-.105-.106a.642.642 0 00.128.06l-.023.046zm21.968-37.935c.015.008.022.023.037.031a3.593 3.593 0 01-.083.294l.046-.325zm-17.377-1.96l.106-.128c.03.061.053.128.083.189a1.268 1.268 0 00-.189-.061zm-5.194 18.251l-.799-.113c-.068-.037-.136-.075-.211-.113.34.075.671.151 1.01.226zm-4.478-1.01h-.196c-.083-.03-.166-.053-.24-.083a.142.142 0 00-.039-.03c.151.038.317.075.475.113zm54.308 40.724c-.61-.702-1.326-1.885-2.254-2.202a1.564 1.564 0 00-.829-.045c-.724-.083-1.62.279-2.163.52-1.335.603-2.624 1.704-3.657 2.722a.676.676 0 00-.21.452c-.37.528-.121 1.319.399 1.704 3.445 2.585 6.875 5.179 10.132 7.991 1.364 1.176 2.729 2.329 4.048 3.55-.06-.03-.12-.06-.174-.083-.987-.731-2.088-1.342-3.09-2.028-1.546-1.062-3.121-2.08-4.636-3.181-1.53-1.116-3.061-2.231-4.546-3.415-.8-.633-1.59-1.274-2.39-1.907-.467-.369-.98-.784-1.62-.731a.782.782 0 00-.265.068 1.158 1.158 0 00-.791.06c-1.161.497-2.156 2.359-2.888 3.339-1.1 1.478-2.299 2.978-3.241 4.569-.43.723-.603 1.455-.143 2.05 0 .023 0 .046.007.068.008.038.008.068.015.106.06.422.543.686.958.656 1.952.535 4.199.474 6.196.701 2.217.241 4.433.52 6.657.738 2.209.212 4.418.475 6.634.656.61.046 1.297.166 1.975.249.415.128.837.264 1.251.392-.633-.06-1.274-.121-1.907-.173-2.525-.211-5.073-.272-7.614-.309-2.533-.038-5.073-.023-7.614-.031-2.54-.007-5.254-.263-7.757.234-.528.106-1.033.671-1.123 1.236-.98 1.659-.777 5.602-.136 6.461.12.166.28.264.445.302.317.294.776.444 1.282.346 1.047-.196 2.254-.068 3.34-.218 1.318-.181 2.63-.423 3.942-.656 2.653-.475 5.3-.942 7.953-1.417l1.545-.272c-1.56.596-3.12 1.199-4.666 1.855a56.877 56.877 0 00-4.636 2.201 189.12 189.12 0 00-6.913 3.377c-.347.174-.535.664-.415 1.025.098.31.189.611.287.92.067.754.64 1.485 1.53 1.131 2.043-.814 3.943-2.179 5.88-3.234 1.938-1.056 3.852-2.149 5.805-3.181 1.945-1.033 3.942-1.968 5.948-2.888a555.07 555.07 0 002.073-.949 257.747 257.747 0 00-4.765 2.909 926.828 926.828 0 00-12.664 8.014 1.159 1.159 0 00-.317.316 3.882 3.882 0 00-.573.596c-.166.211-.09.55.075.739 0 .633.558 1.266.973 1.764.467.565 1.07 1.349 1.756 1.854.506.634 1.5.943 2.315.272 3.852-3.204 7.493-6.657 11.232-10.004 1.56-1.402 3.212-2.714 4.772-4.116-.21.332-.422.663-.633.995-.807 1.018-1.651 2.005-2.578 2.91-3.77 3.701-7.561 7.327-11.135 11.225-.188.203-.279.49-.286.784-.34.754.731 1.357 1.296 1.666.49.264 1.124.611 1.697.497a.294.294 0 00.271-.098c.075-.037.15-.09.219-.15a1.19 1.19 0 00.286-.407c.988-.671 1.696-2.269 2.352-3.174 1.892-2.616 4.04-5.021 6.031-7.554a31.348 31.348 0 001.508-2.103c.46-.513.897-1.04 1.319-1.583-3.114 5.104-6.287 10.139-10.087 14.821-.43.527-.384 1.221.211 1.613a15.919 15.919 0 003.634 1.824c.874.438 1.787.815 2.722 1.093 1.062.325 2.163.49 3.271.558 1.221.076 2.247-.181 3.445-.354.227-.03.34-.158.377-.309a.698.698 0 00.219-.437c.686-4.87 1.327-9.748 1.862-14.64.083-.732.143-1.478.211-2.224.098 2.261.128 4.531.113 6.815-.015 2.216-.083 4.447.045 6.664.053.987-.203 3.166 1.026 3.588.082.03.173.008.256-.03.188.105.43.151.686.113 1.998-.294 4.787-.942 6.106-2.608a.206.206 0 00.204-.091c.429-.701.165-1.259-.113-2.02-.392-1.071-.777-2.149-1.169-3.219-.746-2.066-1.5-4.131-2.246-6.197-.189-.527-.377-1.055-.573-1.583.655 1.206 1.311 2.412 1.93 3.641a108.813 108.813 0 011.892 4.011c.716 1.568 1.093 3.189 1.681 4.794.053.144.241.151.301.015a.599.599 0 00.566.098c1.711-.444 3.294-1.537 4.749-2.661.912-.482 1.772-.98 2.164-1.982.09-.106.128-.264.03-.407-1.056-1.636-2.714-2.948-4.079-4.32a323.241 323.241 0 01-7.327-7.614c1.085.874 2.209 1.696 3.287 2.571.384.309.761.618 1.146.927.603.565 1.206 1.123 1.809 1.689 1.085 1.01 2.171 2.02 3.249 3.03.95.897 1.952 2.096 3.189 2.556.151.052.316-.061.369-.204a.739.739 0 00.317-.241l.158-.226c1.417-1.041 3.702-4.983 3.264-6.551a.135.135 0 00.061-.068c.09-.211.083-.234-.031-.43a.253.253 0 00-.082-.075c.015-.03.022-.068.007-.091-.475-.708-1.221-.904-1.99-1.244-.905-.399-1.809-.806-2.729-1.191a824.482 824.482 0 00-11.979-4.9 8.505 8.505 0 01-.482-.203c2.186.52 4.387 1.017 6.536 1.673 1.711.52 3.43 1.048 5.141 1.583 1.779.558 3.649.98 5.39 1.614.362.135.746-.121.882-.453.204-.286.309-.663.369-1.063.581-1.251.701-2.932.86-4.191.226-1.817.279-3.882-.407-5.616-.4-1.01-1.056-1.312-1.938-1.206-3.362-.121-6.784.904-9.988 1.779-1.44.392-2.88.791-4.327 1.153.972-.347 1.937-.709 2.902-1.063 3.664-1.334 7.403-2.714 11.338-2.849.392-.016.807-.347.769-.769-.106-1.463-.332-2.873-.633-4.305a.598.598 0 00-.136-.264c.007-.256-.271-.505-.55-.452-1.945.414-3.883 1.545-5.677 2.397-1.967.942-3.943 1.877-5.903 2.835-1.756.852-3.498 1.734-5.254 2.57.535-.467 1.07-.934 1.613-1.402 1.297-.95 2.571-1.937 3.845-2.917 1.658-1.282 3.317-2.571 5.036-3.77.852-.588 1.726-1.145 2.585-1.718.671-.445 1.606-.769 1.938-1.531.007-.022.015-.037.015-.06.007-.008.023-.008.03-.015.271-.121.302-.49.189-.716-.46-.905-1.267-1.847-2.021-2.518-.414-.377-.889-.581-1.342-.897-.467-.324-.784-.769-1.311-1.003a.87.87 0 00-.468-.075c.113-.317-.339-.551-.558-.324-2.435 2.585-4.244 5.782-6.392 8.609-1.124 1.477-2.322 2.902-3.513 4.327-.309.369-.664.746-1.026 1.131.031-.046.068-.091.098-.136a182.789 182.789 0 003.513-4.885c1.146-1.643 2.285-3.294 3.31-5.021.43-.716.987-1.507 1.425-2.344.429-.626.844-1.259 1.236-1.908a.386.386 0 00.06-.188c.159-.211.166-.543-.128-.663-.158-.068-.317-.144-.482-.219a.587.587 0 00-.505-.234c-1.817-.859-3.566-1.839-5.526-2.427-1.583-.475-3.634-.935-5.45-.792-.19-.022-.37-.037-.559-.053-.369-.022-1.002-.007-1.432.197-.678.022-1.116.829-1.01 1.47.648 3.92.294 7.892.55 11.843.076 1.183.196 2.359.347 3.535-.083-.271-.173-.535-.256-.799-.317-1.41-.649-2.812-.995-4.206a77.991 77.991 0 00-.317-2.322c-.241-1.591-.558-3.166-.882-4.734-.211-1.018-.226-2.503-.972-3.295-.083-.573-.438-.98-1.297-1.002-1.146-.031-2.525.158-3.4.964-.045.023-.09.046-.128.068-.55.309-.701.912-.603 1.485.294 1.764 1.35 3.672 2.133 5.262.89 1.81 1.644 3.687 2.398 5.556.233.573.46 1.146.685 1.719a132.021 132.021 0 00-4.885-6.815c-.799-1.04-1.552-2.028-2.367-2.962zm18.787 43.557c.022.046.037.083.06.129-.045.007-.083.007-.128.015.022-.053.045-.098.068-.144zm4.138-9.302c-.022 0-.037-.008-.06-.008-.03-.045-.06-.098-.091-.143l.151.151zm-.837 7.169l-.022.098c0-.053-.008-.098-.008-.151.008.015.015.03.03.053zm9.846-12.009c-.023 0-.038.008-.06.008l-.249-.068-.189-.136c.159.068.332.136.498.196zm-3.792-1.462l-.241-.023c-.249-.121-.49-.234-.739-.354.324.12.656.248.98.377zm4.862-18.606c.008.061.015.121.015.181a.804.804 0 00-.203-.06c.068-.038.128-.075.188-.121zm-15.484-7.915a.1.1 0 01-.015.045c0-.015.008-.03.015-.045zm-2.902 43.693c.06.023.128.031.196.038l-.211.045c0-.03.007-.052.015-.083zm26.762 56.811c-1.025-.648-2.533-1.214-3.769-.852h-.053a1.36 1.36 0 00-1.267.965c-.558 1.726-.497 3.867-.527 5.669-.031 1.945-.211 3.882-.377 5.82-.061.716-.128 1.44-.204 2.156a142.44 142.44 0 00-1.266-8.541c-.249-1.35-.513-2.691-.852-4.026-.219-.852-.324-2.073-1.116-2.623a1.582 1.582 0 00-.543-.234c-.55-.332-1.349-.422-1.93-.467-1.492-.121-3.196.286-4.613.738a.663.663 0 00-.415.34c-.55.301-.754 1.032-.46 1.643 1.885 3.867 3.762 7.735 5.383 11.723.686 1.688 1.387 3.362 2.005 5.073-.03-.045-.068-.09-.098-.136-.573-1.183-1.327-2.306-1.952-3.445-.897-1.643-1.825-3.272-2.661-4.945-.852-1.704-1.704-3.4-2.488-5.134-.566-1.251-1.025-3.46-2.413-4.018a.572.572 0 00-.113-.03c-.882-.912-4.666 1.281-5.261 1.575-1.508.747-3.076 1.478-4.509 2.36-.716.437-1.236 1.018-1.093 1.764 0 0 0 .008-.007.008-.015.037-.023.067-.038.105-.166.475.098.837.475 1.01 1.463 1.365 3.445 2.322 5.104 3.423 1.892 1.251 3.761 2.525 5.676 3.754 1.907 1.221 3.785 2.48 5.707 3.671.52.324 1.063.732 1.613 1.109.302.294.603.595.905.889a77.588 77.588 0 00-1.983-1.259c-2.088-1.266-4.244-2.435-6.408-3.581-2.163-1.146-4.349-2.254-6.521-3.377-2.239-1.161-4.568-2.661-6.995-3.355-.603-.173-1.139.046-1.516.46-1.688.897-3.384 4.787-3.188 5.941.03.188.128.316.256.407.136.354.422.655.874.791 1.033.309 2.028.958 3.061 1.327 1.252.445 2.533.822 3.807 1.214 2.57.791 5.149 1.575 7.72 2.367.52.158 1.032.316 1.552.482a115.862 115.862 0 00-4.56-.444 56.288 56.288 0 00-5.526-.181 184.653 184.653 0 00-7.644-.151c-.37 0-.807.279-.875.671-.06.339-.12.678-.173 1.017-.271.702-.038 1.614 1.1 1.712 2.202.196 4.554-.181 6.77-.234 2.171-.053 4.335-.158 6.506-.181 2.164-.015 4.335.053 6.498.151.724.03 1.44.068 2.164.098-1.832.113-3.664.256-5.503.407-4.976.407-9.951.852-14.92 1.349a1.247 1.247 0 00-.474.151 2.926 2.926 0 00-.618.181c-.317.128-.558.422-.445.784 0 .008.008.015.008.023-.234.452-.136 1.04-.016 1.651.166.852.37 1.869.784 2.714.09.821.807 1.605 1.87 1.371 4.892-1.093 9.71-2.502 14.564-3.776 2.043-.535 4.117-.95 6.159-1.493-.339.196-.678.4-1.017.596-1.161.527-2.345 1.017-3.558 1.394-5.036 1.576-10.072 3.076-15.025 4.908-.324.12-.55.339-.678.603-.634.543.113 1.613.482 2.141.302.43.679.965 1.199 1.116.09.067.203.098.324.037.06 0 .12-.007.18-.022.22-.046.385-.136.521-.257 1.13-.158 2.382-1.145 3.264-1.605 2.805-1.44 5.722-2.616 8.602-3.89.935-.415 1.832-.89 2.721-1.38a34.24 34.24 0 002.495-1.078c-5.329 3.264-10.742 6.393-16.479 8.926-.513.226-.61.965-.37 1.402a16.025 16.025 0 002.406 3.287c.58.799 1.228 1.56 1.937 2.254a13.908 13.908 0 002.556 1.93c1.07.641 2.125.889 3.286 1.304.249.09.438 0 .551-.166.196-.09.369-.226.482-.392 2.857-4.063 5.677-8.149 8.406-12.295.324-.49.64-.995.957-1.5a132.9 132.9 0 01-2.993 6.076c-.965 1.839-1.975 3.671-2.827 5.563-.422.935-1.817 3.008-.889 3.973a.305.305 0 00.249.098.93.93 0 00.512.399c1.96.664 4.697 1.342 6.679.475a.193.193 0 00.211.015c.603-.369.656-.784.777-1.477.196-1.123.286-2.277.43-3.408.278-2.186.557-4.372.829-6.551.09-.686.173-1.372.264-2.058.037 1.583.067 3.167.045 4.757-.023 1.463-.091 2.918-.158 4.373-.068 1.53-.468 2.977-.671 4.485-.023.143.135.271.263.158a.557.557 0 00.408.34c1.741.392 3.678.143 5.51-.196 1.026-.023 1.998-.053 2.797-.769.128-.046.234-.151.219-.332-.196-1.937-1.063-3.86-1.651-5.707-.649-2.02-1.267-4.04-1.87-6.076a273.846 273.846 0 01-1.183-4.093c.52 1.176 1.093 2.329 1.62 3.49.249.55.49 1.101.732 1.644.279.768.558 1.537.829 2.306.505 1.395 1.01 2.79 1.508 4.184.437 1.229.776 2.774 1.673 3.754.128.136.294.106.407 0 .136.023.272 0 .392-.06.068-.038.128-.068.196-.105 1.395-.023 2.82-1.139 3.853-1.923.844-.641 1.982-1.379 2.095-2.465a.12.12 0 00.098-.022c.174-.144.189-.166.174-.385a.248.248 0 00-.038-.121c.03-.015.053-.037.045-.075-.09-.739-.475-1.123-.942-1.696a178.91 178.91 0 00-2.126-2.609c-1.387-1.65-2.789-3.286-4.192-4.93a636.071 636.071 0 00-4.229-4.892c-.12-.136-.241-.279-.361-.422 1.696 1.455 3.414 2.887 5.013 4.44a955.927 955.927 0 013.95 3.852c1.304 1.282 2.744 2.48 3.98 3.815.264.286.777.278 1.048 0 .287-.159.535-.423.754-.724 1.093-.829 1.99-2.33 2.691-3.362.98-1.433 1.802-3.023 2.134-4.742.233-1.229-.053-2.043-1.139-2.435-2.985-1.659-6.551-2.292-9.845-2.985a158.997 158.997 0 01-4.192-.92c.92.121 1.847.234 2.767.347 3.943.49 8.014.95 11.647 2.661.339.158.882.136 1.056-.279a31.45 31.45 0 001.409-4.116.653.653 0 000-.362c.113-.219.023-.543-.248-.618-1.923-.52-4.147-.407-6.129-.46-2.179-.06-4.365-.128-6.544-.173-1.96-.046-3.92-.053-5.88-.113.694-.174 1.395-.347 2.096-.521 1.553-.241 3.106-.527 4.651-.814 1.96-.362 3.92-.739 5.888-1.018 1.1-.158 2.209-.263 3.309-.384.86-.098 1.87.045 2.578-.49l.046-.045h.007c.287.022.52-.257.52-.52.023-1.011-.279-2.202-.625-3.144-.181-.498-.483-.897-.739-1.357-.279-.505-.385-1.063-.724-1.538a.88.88 0 00-.43-.331c.234-.219-.022-.664-.331-.551-3.415 1.214-6.551 3.279-9.823 4.832-1.636.777-3.309 1.478-4.975 2.187-.46.196-.958.377-1.455.565.075-.038.143-.075.211-.113 1.801-.89 3.588-1.802 5.36-2.744 1.771-.942 3.543-1.892 5.239-2.963.724-.452 1.613-.92 2.397-1.47a34.807 34.807 0 001.923-1.1.552.552 0 00.135-.129c.257-.113.385-.467.151-.753a4.58 4.58 0 01-.241-.31c-.008-.196-.128-.376-.37-.474-1.311-1.704-2.472-3.483-4.101-4.953-1.138-1.026-2.608-2.232-4.161-2.895-.113-.075-.226-.151-.347-.226-.346-.211-1.048-.588-1.59-.588-.581-.196-1.282.181-1.478.791-1.236 3.785-3.332 7.169-4.907 10.826a72.694 72.694 0 00-1.32 3.294c.038-.264.083-.528.121-.784.362-1.387.701-2.774 1.025-4.169.272-.731.535-1.47.784-2.209.513-1.522.95-3.068 1.372-4.613.272-1.003.95-2.352.656-3.4.181-.483.143-.973-.422-1.327zm-15.809 48.677c.016-.015.023-.031.038-.046l.113.091a4.135 4.135 0 01-.151-.045zm4.463.58c-.037-.015-.083-.03-.12-.045a.615.615 0 00.128-.113c-.008.053-.008.105-.008.158zm3.83-.415c.03-.067.06-.143.09-.211 0 .031.008.061.008.098-.03.031-.068.068-.098.113zm4.123-6.091l-.067-.045-.023-.219c.03.091.06.181.09.264zm10.2-.233a.104.104 0 00-.053-.016 3.696 3.696 0 01-.188-.173c-.03-.06-.068-.12-.098-.188.113.128.226.256.339.377zm-2.706-3.031c-.06-.045-.128-.083-.189-.12a42.564 42.564 0 01-.482-.634c.219.249.445.505.671.754zm12.83-14.301c-.022.053-.037.098-.06.151a2.347 2.347 0 00-.143-.135c.068-.008.136-.016.203-.016zm-10.199-14.119c.007 0 .015.007.015.007-.038.023-.068.053-.106.076a.978.978 0 00.091-.083zm600.145-357.427c1.538-2.42 3.354-4.87 4.764-7.47a31.979 31.979 0 002.111-3.513c.603-1.169 1.485-2.609 1.402-3.966-.083-1.372-1.274-2.487-2.163-3.422-.905-.942-1.862-1.96-2.948-2.744a4.196 4.196 0 00-.882-.611 3.927 3.927 0 00-.558-.226 4.953 4.953 0 00-.294-.143c-1.462-.641-3.113-.196-4.319.754-1.546 1.213-2.571 3.015-3.657 4.621a146.152 146.152 0 00-2.269 3.468 88.275 88.275 0 00-4.267 6.566c-.618.95-1.213 1.907-1.726 2.902-.874 1.689-1.01 3.521.317 5.021.769.867 1.801 1.583 2.864 2.231.536.483 1.109.912 1.712 1.282.52.316 1.093.565 1.681.723.889.43 1.703.498 2.472.159a5.003 5.003 0 001.772-.611c1.018-.588 1.779-1.5 2.442-2.488.588-.761 1.094-1.643 1.546-2.533zm20.181-.648c.603-1.168 1.485-2.608 1.402-3.965-.083-1.372-1.274-2.488-2.164-3.423-.904-.942-1.862-1.96-2.947-2.744a4.18 4.18 0 00-.882-.61 3.981 3.981 0 00-.558-.227 5.66 5.66 0 00-.294-.143c-1.463-.641-3.114-.196-4.32.754-1.545 1.214-2.57 3.016-3.656 4.621a146.152 146.152 0 00-2.269 3.468 87.953 87.953 0 00-4.267 6.566c-.618.95-1.214 1.907-1.726 2.902-.875 1.689-1.01 3.521.316 5.021.769.867 1.802 1.583 2.865 2.232a11.63 11.63 0 001.711 1.281c.52.317 1.093.565 1.681.724.89.429 1.704.497 2.473.158a4.997 4.997 0 001.772-.611c1.017-.588 1.779-1.5 2.442-2.487.603-.747 1.108-1.636 1.561-2.518 1.537-2.42 3.354-4.87 4.764-7.471a36.272 36.272 0 002.096-3.528zm13.132 22.096c.927-2.707 2.08-5.511 2.804-8.353a32.28 32.28 0 001.244-4.086c.301-1.304.822-2.932.294-4.229-.483-1.184-1.832-1.937-2.865-2.586-1.1-.693-2.261-1.44-3.482-1.937a5.291 5.291 0 00-.641-.279 3.732 3.732 0 00-.943-.189 3.801 3.801 0 00-.422-.09c-1.545-.234-3.015.565-3.935 1.764-1.214 1.568-1.779 3.558-2.457 5.398-.815 2.208-1.546 4.44-2.3 6.671l-.203.558c-.566 1.561-1.244 3.189-1.674 4.832a41.8 41.8 0 00-.686 2.277c-.482 1.854-.279 3.716 1.365 4.908.987.716 2.224 1.168 3.46 1.553.588.316 1.191.58 1.794.791.58.204 1.199.324 1.817.354.528.159 1.07.257 1.613.128.452-.105.822-.346 1.131-.663a5.33 5.33 0 001.123-.708c.92-.777 1.478-1.817 1.9-2.918.505-.972.814-2.096 1.063-3.196zm17.082-1.312c.302-1.304.822-2.933.294-4.229-.482-1.184-1.832-1.938-2.865-2.586-1.1-.694-2.261-1.44-3.482-1.937a5.224 5.224 0 00-.641-.279 3.733 3.733 0 00-.942-.189 3.604 3.604 0 00-.423-.09c-1.545-.234-3.015.565-3.935 1.764-1.213 1.568-1.779 3.558-2.457 5.397-.815 2.209-1.546 4.441-2.3 6.672-.067.188-.135.369-.203.558-.566 1.56-1.244 3.189-1.674 4.832a42.43 42.43 0 00-.686 2.277c-.482 1.854-.279 3.716 1.365 4.907.987.717 2.224 1.169 3.46 1.553a12.46 12.46 0 001.794.792 6.49 6.49 0 001.817.354c.528.158 1.07.256 1.613.128.453-.105.822-.346 1.131-.663a5.31 5.31 0 001.123-.709c.92-.776 1.478-1.817 1.9-2.917.505-.965.814-2.088 1.063-3.189.927-2.706 2.073-5.511 2.804-8.353a31.493 31.493 0 001.244-4.093zm17.686-2.345c-.98-.889-2.043-1.884-3.197-2.593a4.219 4.219 0 00-.671-.43 3.757 3.757 0 00-.821-.301 3.466 3.466 0 00-.573-.204c-1.598-.429-3.189.294-4.29 1.433-1.485 1.53-2.457 3.581-3.505 5.412a164.778 164.778 0 00-1.99 3.611c-1.259 2.006-2.45 4.071-3.438 6.182-.603 1.063-1.168 2.149-1.591 3.257-.686 1.824-.369 3.618 1.184 4.87.792.633 1.696 1.198 2.631 1.711a11.24 11.24 0 001.689 1.1c.542.287 1.13.506 1.734.641 1.002.468 1.831.422 2.548.038a4.93 4.93 0 001.658-.671c1.025-.648 1.741-1.621 2.344-2.669.581-.806 1.033-1.749 1.425-2.691 1.372-2.525 3.023-5.111 4.245-7.825a33.295 33.295 0 001.801-3.543c.528-1.214 1.289-2.646 1.184-4.011-.121-1.387-1.41-2.442-2.367-3.317z" fill="#375A44"/><path d="M306.52 663.34c-.287-1.492-.528-3.038-.965-4.5-.422-1.402-1.289-1.922-2.608-2.314-3.498-1.041-7.124-1.742-10.705-2.451-2.043-.407-4.094-.806-6.167-1.032-1.726-.189-2.706.399-4.01 1.538-1.915 1.666-3.717 3.46-5.481 5.277-1.131 1.161-3.166 2.766-3.558 4.417-.038.174-.06.332-.068.49-.007.038-.007.068-.015.098-.241 3.317.196 6.845.482 10.147.136 1.538.091 3.468.852 4.855.634 1.153 2.028 1.485 3.197 1.885 3.912 1.326 7.923 2.45 11.941 3.407 1.553.369 3.181.792 4.779.859 1.636.068 3.038-.912 4.305-1.831a54.148 54.148 0 005.699-4.803c1.236-1.191 2.887-2.608 3.43-4.304.475-1.493.166-3.317-.015-4.832a101.406 101.406 0 00-1.093-6.906zm92.754-267.438c-.256-1.5-.467-3.046-.874-4.516-.4-1.409-1.297-1.922-2.594-2.336-3.475-1.109-7.093-1.885-10.652-2.669-2.035-.445-4.078-.89-6.143-1.146-1.719-.219-2.707.384-4.026 1.485-1.945 1.621-3.784 3.385-5.586 5.164-1.161 1.146-3.197 2.699-3.626 4.357a2.27 2.27 0 00-.076.581v.015c-.309 3.309.061 6.852.279 10.154.098 1.493.061 3.249.679 4.637.603 1.334 2.005 1.688 3.272 2.148 3.882 1.41 7.87 2.608 11.865 3.641 1.531.392 3.174.89 4.765.942 1.643.053 3.03-.859 4.334-1.764 2.036-1.417 3.966-3.007 5.79-4.696 1.266-1.169 2.932-2.556 3.49-4.252.49-1.485.226-3.317.068-4.832-.226-2.299-.573-4.614-.965-6.913zm-197.217 93.365c-.256-1.5-.467-3.045-.874-4.515-.4-1.41-1.297-1.923-2.593-2.337-3.476-1.108-7.094-1.885-10.652-2.669-2.036-.445-4.079-.89-6.144-1.146-1.719-.218-2.707.385-4.026 1.485-1.945 1.621-3.784 3.385-5.586 5.164-1.161 1.146-3.196 2.699-3.626 4.357a2.267 2.267 0 00-.075.581v.015c-.309 3.309.06 6.853.279 10.154.098 1.493.06 3.25.678 4.637.603 1.334 2.005 1.688 3.272 2.148 3.882 1.41 7.87 2.609 11.865 3.641 1.531.392 3.174.89 4.765.943 1.643.052 3.03-.86 4.335-1.764 2.035-1.418 3.965-3.008 5.789-4.697 1.267-1.168 2.933-2.556 3.491-4.252.49-1.485.226-3.317.067-4.832-.226-2.307-.573-4.621-.965-6.913zM66.672 568.724c-.286-1.493-.528-3.038-.965-4.501-.422-1.402-1.289-1.922-2.608-2.314-3.498-1.04-7.124-1.741-10.705-2.45-2.043-.407-4.093-.807-6.166-1.033-1.727-.188-2.707.4-4.011 1.538-1.915 1.666-3.716 3.46-5.48 5.277-1.131 1.161-3.167 2.767-3.559 4.418-.037.173-.06.331-.067.49-.008.037-.008.067-.016.098-.24 3.317.196 6.845.483 10.147.136 1.537.09 3.467.852 4.854.633 1.154 2.028 1.485 3.196 1.885 3.913 1.327 7.923 2.45 11.941 3.407 1.553.37 3.181.792 4.78.86 1.636.068 3.038-.912 4.304-1.832a54.2 54.2 0 005.7-4.802c1.236-1.191 2.887-2.608 3.43-4.305.474-1.492.165-3.317-.016-4.832-.271-2.314-.656-4.613-1.093-6.905zm285.381-330.943c-.257-1.501-.468-3.046-.875-4.516-.399-1.41-1.297-1.922-2.593-2.337-3.475-1.108-7.094-1.885-10.652-2.669-2.036-.444-4.079-.889-6.144-1.146-1.719-.218-2.706.385-4.026 1.486-1.945 1.62-3.784 3.384-5.586 5.164-1.161 1.145-3.196 2.698-3.626 4.357a2.26 2.26 0 00-.075.58v.015c-.309 3.31.06 6.853.279 10.155.098 1.492.06 3.249.678 4.636.603 1.334 2.005 1.689 3.272 2.148 3.882 1.41 7.87 2.609 11.866 3.642 1.53.392 3.173.889 4.764.942 1.643.053 3.03-.859 4.335-1.764 2.035-1.417 3.965-3.008 5.789-4.697 1.267-1.168 2.933-2.555 3.491-4.251.49-1.485.226-3.317.067-4.833-.226-2.306-.572-4.621-.964-6.912zm369.503 109.678c-.234-2.322-.581-4.628-.965-6.928-.257-1.5-.468-3.045-.875-4.515-.399-1.41-1.297-1.923-2.593-2.337-3.475-1.108-7.094-1.885-10.652-2.669-2.036-.445-4.079-.889-6.144-1.146-1.719-.218-2.706.385-4.026 1.485-1.945 1.621-3.784 3.385-5.586 5.164-1.161 1.146-3.196 2.699-3.626 4.357a2.272 2.272 0 00-.075.581v.015c-.309 3.309.06 6.853.279 10.154.098 1.493.06 3.25.678 4.637.603 1.334 2.005 1.688 3.272 2.148 3.882 1.41 7.87 2.609 11.866 3.641 1.53.392 3.173.89 4.764.943 1.643.052 3.03-.86 4.335-1.764 2.035-1.418 3.965-3.008 5.789-4.697 1.267-1.168 2.933-2.555 3.491-4.252.482-1.47.218-3.294.068-4.817z" fill="#fff"/><path d="M291.66 664.479h-.354c-1.214 0-2.103 1.04-2.699 2.073v-4.357h5.247v-3.83h-9.046v12.25h3.882v-1.334c0-.475.03-1.071.626-1.071.678 0 .678.535.678 1.101v6.672c0 .595-.18 1.04-.738 1.04-.596 0-.739-.415-.739-1.04v-3.649h-3.943v4.508c0 1.689.89 3.912 4.184 3.912h1.184c2.91 0 4.184-2.073 4.184-4.297v-9.106c-.008-1.357-.656-2.872-2.466-2.872zm86.785-272.497l-.068 3.377 2.314.046-.324 16.223 3.943.075.437-22.058-3.294-.068c-.174 1.365-.732 2.45-3.008 2.405zM189.023 493.828c.716-.369 1.447-1.191 1.492-3.324l.046-2.465c.052-2.518-1.252-4.267-4.245-4.328l-.829-.015c-2.963-.06-3.958 2.119-3.995 4.131l-.061 2.85 3.619.075.045-2.457c.015-.799.256-1.003.761-.995.566.007.769.226.754 1.025l-.06 3.023c-.015.709-.166.972-.852.965l-1.839-.038-.076 3.943 2.043.038c.679.015.739.278.724.904l-.083 4.297c-.015.686-.286 1.033-.822 1.025-.565-.015-.821-.369-.806-1.055l.068-3.498-3.853-.075-.09 4.448c-.038 2.012.957 3.995 4.221 4.055l.83.015c2.729.053 4.425-1.636 4.478-4.478l.113-5.518c.022-1.327-.498-2.171-1.583-2.548zm149.776-250.19c1.915-2.397 1.998-3.581 2.043-5.948l.023-1.244c.06-2.849-1.546-4.274-4.395-4.327l-.799-.015c-2.993-.06-4.071 1.998-4.116 4.041l-.076 3.882 3.709.075.068-3.407c.015-.709.196-1.003.761-.995.505.007.732.339.724 1.025l-.03 1.334c-.015.8-.091 1.455-1.161 3.182l-1.96 3.106c-2.45 3.897-2.767 5.05-2.827 7.742l-.045 2.254 9.996.196.151-7.592-3.852-.075-.076 3.769-2.759-.052c.008-.475-.188-.898 2.397-4.162.731-.919 1.523-1.884 2.224-2.789zm367.709 99.034l-.233-.007c-1.516-.03-2.488 1.259-3.061 1.899l.113-5.601c.008-.445.196-.859.761-.844.596.015.709.309.694.874l-.045 2.458 4.063.083.068-3.325c.038-1.899-1.319-3.678-4.139-3.731l-.829-.015c-3.174-.061-4.606 1.839-4.659 4.591l-.271 13.667c-.045 2.314 1.364 4.327 4.538 4.395l.89.015c2.962.06 4.553-2.133 4.598-4.327l.143-7.297c.008-1.206-.701-2.797-2.631-2.835zm-1.643 9.582c-.015.565-.113 1.153-.912 1.138-.799-.015-.905-.58-.897-1.176l.098-5.104c.015-.708.316-1.063.942-1.047.626.015.882.316.867 1.115l-.098 5.074zM53.487 563.846h-3.468c-1.1 3.234-3.769 10.705-4.953 13.939v3.355h4.569v4.923h3.852v-4.923h2.043v-3.769h-2.043v-13.525zm-3.852 13.525h-1.81c.626-1.659 1.335-3.913 1.81-5.368v5.368z" fill="#111"/><path d="M392.798 418.789l45.653-15.936 2.925 7.425-36.554 11.142 4.99 12.039 7.298-3.844 2.141 6.045-7.418 2.925 10.938 26.845-7.938 1.32-22.035-47.961z" fill="#fff"/><path d="M438.843 449.848l-2.359-5.986 20.663-9.076-8.835-20.641-27.968 13.133 13.366 32.446 31.835-12.545-1.297-8.036-25.405 10.705zm-8.496-20.663l14.294-5.631 3.023 6.189-14.799 5.835-2.518-6.393zm52.401-24.071l-3.309-6.098-22.563 10.968 7.742 21.621 19.276-9.408 3.611 8.179-16.072 6.332.995 7.139 26.528-10.448-12.054-21.349-18.055 8.526-2.985-8.549 16.886-6.913z" fill="#fff"/><path d="M447.113 409.389l-3.046-8.888 59.857-24.41 2.977 4.975-15.439 5.971 19.857 41.492-4.508 1.772-22.857-40.158-36.841 19.246z" fill="#fff"/></g></svg>