<svg width="119" height="22" viewBox="0 0 119 22" fill="none" xmlns="http://www.w3.org/2000/svg">
<path d="M76.7222 1.13568L93.7479 1.80372V4.59347L80.3238 3.53262L80.4046 8.09135L83.2929 7.77603L83.2148 10.018H80.4046L80.523 20.1589L77.7504 19.5683L76.7222 1.13568Z" fill="#FF9900"/>
<path d="M87.8045 17.1473V14.8974L95.7507 14.5927L95.5192 6.74188L84.655 7.42863L84.8462 19.7019H96.9028L97.5165 16.9202L87.8045 17.1473ZM87.6887 9.33389H93.102L93.2931 11.7362H87.6887V9.33389Z" fill="#FF9900"/>
<path d="M107.974 8.21963L107.678 5.80933L98.8651 6.48539L98.6121 14.5153L106.144 13.922L106.273 17.0512H100.187L99.5892 19.5015H109.635L108.443 11.0067L101.422 11.4663L101.549 8.30246L107.974 8.21963Z" fill="#FF9900"/>
<path d="M95.7427 5.03972L95.8907 1.75829L118.666 1.4884L119 3.48986L113.167 3.45245L114.319 19.5015H112.61L110.305 3.50055L95.7427 5.03972Z" fill="#FF9900"/>
<path d="M9.93555 2.15912L15.583 2.33815V17.166L24.5548 14.7183L24.8052 21.1449H11.0096L9.93555 2.15912Z" fill="#FF9900"/>
<path d="M29.9143 7.30306L17.0474 6.7713L17.7365 14.7905L21.0393 14.2373L20.6867 12.3374L26.7002 11.8484L26.7352 20.8857L33.0933 20.883L29.9143 7.30306ZM20.3745 10.4348L19.8522 8.61243L26.1 9.13083L26.4472 10.4348H20.3745Z" fill="#FF9900"/>
<path d="M21.5022 5.53677L22.2694 2.15914L46.0974 1.17578L46.4042 4.15793L35.4485 5.29093L38.7918 21.2999L34.7379 21.2812L32.2587 5.62228L21.5022 5.53677Z" fill="#FF9900"/>
<path d="M49.6802 21.698L47.5645 1.32269L53.1715 2.3114L56.8539 16.0384L55.5915 2.28468L59.6319 2.03884L59.8795 20.6799L54.2967 20.4207L51.9064 10.3359L52.4555 21.1235L49.6802 21.698Z" fill="#FF9900"/>
<path d="M70.9536 0L61.0962 2.07093L61.823 20.3566L72.1273 19.1087L70.9536 0ZM65.0962 16.2922L64.1487 5.4539L68.6683 5.64363L68.6764 14.713L65.0962 16.2922Z" fill="#FF9900"/>
<path d="M9.17103 12.9386L8.44963 1.50708L0 2.15909L1.14402 20.8349L5.19791 20.8536L4.04311 13.7002L9.17103 12.9386ZM3.03637 5.90548H5.63936L5.98661 10.2478L3.64473 10.189L3.03637 5.90548Z" fill="#FF9900"/>
<path d="M46.2104 6.02307L38.1592 7.50345L40.3261 20.7147L42.5791 20.696L41.4647 14.6275L44.4715 14.9107L44.8268 21.9973H47.4164L46.2104 6.02307ZM41.2036 12.5218L40.8349 9.22968L43.7662 8.66318L44.3181 12.7276L41.2036 12.5218Z" fill="#FF9900"/>
<path d="M18.0352 1.34143L20.8724 2.06025L19.8576 5.3871L17.0742 5.41649L18.0352 1.34143Z" fill="#FF9900"/>
</svg>
