<svg width="181" height="181" fill="none" xmlns="http://www.w3.org/2000/svg"><g clip-path="url(#clip0_34_607)"><path d="M119.201 151.996c34.018-15.908 48.7-56.38 32.792-90.398-15.907-34.018-56.38-48.7-90.398-32.792-34.018 15.907-48.7 56.38-32.792 90.398 15.908 34.018 56.38 48.699 90.398 32.792z" fill="#FFC64F"/><path d="M62.366 127.596l.076.427c.07.388.077.682.027.871-.05.189-.213.356-.491.486l-1.49.696 1.271 4.433 3.706-1.733c1.389-.649 1.954-2.053 1.703-4.215l-2.827-26.528c-1.216.5-2.42 1.014-3.603 1.54l-.742.347 1.781 12.212-4.796-10.802-.51.238a141.772 141.772 0 00-3.9 1.983l8.963 17.734c.427.898.698 1.669.832 2.311zm17.963-1.77l-4.751-16.569 7.034 15.501 1.734-.811-2.569-17.589 4.75 16.569 4.052-1.895-7.144-24.834a92.02 92.02 0 00-6.026 1.396l2.112 13.155-5.335-12.235c-1.904.58-3.779 1.207-5.624 1.884l7.845 27.261 3.922-1.833zm9.531-11.929c.628 2.185 1.668 3.64 3.12 4.369 1.453.729 3.152.64 5.09-.267l.934-.437c3.072-1.436 3.976-4.435 2.719-8.998l-4.16-14.45a68.256 68.256 0 01-5.238.834c.15.22.286.495.394.859l4.394 15.258c.288 1.046.069 1.742-.668 2.087-.856.4-1.44.079-1.758-.953l-4.393-15.258c-.19-.643-.244-1.143-.176-1.5a.95.95 0 01.093-.257c-1.723.184-3.44.428-5.137.724.053 1.074.265 2.28.657 3.636l4.13 14.353zm19.362-1.582l-3.201-11.085 2.6-1.217c1.479-.691 2.366-1.645 2.67-2.87.298-1.224.184-2.739-.351-4.546l-.643-2.248a82.611 82.611 0 01-4.667 1.658l.662 2.3c.17.543.218.955.155 1.233-.066.287-.319.53-.755.733l-.935.438-1.181-4.075a71.945 71.945 0 01-4.738 1.207l5.913 20.562 4.471-2.09zm5.905-15.889l.498 12.894 4.709-2.202-.487-11.511.38-.178 2.98 10.346 4.471-2.091-5.462-18.991a99.233 99.233 0 01-4.402 2.328l1.115 3.905-.867.405c-.487.228-.843.25-1.071.059-.227-.19-.408-.548-.545-1.078L115.779 88a87.851 87.851 0 01-4.538 1.977l.844 2.927c.604 2.252 1.623 3.426 3.042 3.522zM50.73 78.152l2.383 14.844-5.778-13.257-5.304 2.48 5.458 18.966a139.15 139.15 0 013.864-2.028L49.16 91.51l3.24 7.123a138.21 138.21 0 014.141-1.97l-1.177-8.055 2.182 7.605a134.267 134.267 0 014.093-1.734l-5.435-18.887-5.474 2.56zm13.162-6.156l1.787 12.21-4.796-10.803-4.47 2.091 8.885 17.584c1.712-.621 3.44-1.208 5.204-1.75l-2.28-21.356-4.33 2.024zm9.61 15.395l.835 2.849a90.189 90.189 0 014.758-1.12l-1.122-3.82-4.471 2.091z" fill="#fff"/><path d="M84.298 81.328c-.683-2.243-1.752-3.29-3.206-3.149.952-.977 1.132-2.511.547-4.606l-1.002-3.412c-.523-1.724-1.383-2.883-2.573-3.465-1.186-.585-2.72-.441-4.59.433l-.8.374c-1.592.745-2.588 1.7-2.985 2.874-.397 1.173-.318 2.642.226 4.41l1.034 3.57 4.437-2.074-.784-2.755c-.15-.496-.177-.863-.092-1.096.084-.233.277-.427.577-.567.624-.292 1.05-.015 1.277.84l.986 3.467c.136.468.163.822.093 1.055-.076.236-.305.44-.702.625l-2.148 1.004 1.43 4.947 2.249-1.052c.39-.183.682-.21.872-.07.19.14.352.443.488.911l1.508 5.13a75.74 75.74 0 015.057-.749 17.654 17.654 0 00-.23-.92l-1.67-5.725zm8.278-22.745l7.699 26.757a80.022 80.022 0 004.638-1.513l-7.866-27.334-4.47 2.09zm5.359 22.741l-1.912-6.702c-1.018-3.743-3.008-4.926-5.966-3.543l-2.181 1.02-2.853-9.984-4.47 2.091 6.8 23.641c.073-.006.152-.016.225-.022a68.201 68.201 0 0010.611-1.91c.006-.017.018-.036.024-.053.375-1.176.278-2.684-.278-4.538zm-6.236-4.134l1.645 5.777c.148.552.181.993.114 1.321-.073.331-.352.606-.834.832l-.867.405-2.572-8.927.867-.406c.487-.228.851-.246 1.095-.05.244.197.428.546.552 1.048zm18.376-26.79l-4.539 2.123.221 11.844-3.026-10.532-4.47 2.09 7.895 27.445a86.325 86.325 0 004.535-1.865l-3.444-11.959 6.456 10.558a93.17 93.17 0 004.593-2.39l-7.969-12.95-.252-14.363zm3.638-1.7l4.768 28.907c1.355-.75 2.676-1.528 3.965-2.317l-.82-4.16 2.737-1.28 1.373 3.35a119.558 119.558 0 003.947-2.723l-10.672-24.255-5.298 2.477zm6.985 17.463l-1.885-9.718 3.687 8.876-1.802.843zm3.367 15.973l-.561.262-.156-.334 1.536-.718.156.334-.561.263.668 1.428-.408.19-.668-1.428-.006.003zm3.456.124l-.493-1.054-.107 1.114-.181.085-.914-.609.483 1.031-.38.178-.824-1.762.334-.157 1.169.787.14-1.399.335-.156.829 1.76-.391.182z" fill="#fff"/></g><defs><clipPath id="clip0_34_607"><path fill="#fff" transform="rotate(-25.062 129.598 28.804)" d="M0 0h136v136H0z"/></clipPath></defs></svg>